<?xml version="1.0" standalone="no"?>
<!DOCTYPE svg PUBLIC "-//W3C//DTD SVG 20010904//EN"
 "http://www.w3.org/TR/2001/REC-SVG-20010904/DTD/svg10.dtd">
<svg version="1.0" xmlns="http://www.w3.org/2000/svg"
 width="133.000000pt" height="133.000000pt" viewBox="0 0 133.000000 133.000000"
 preserveAspectRatio="xMidYMid meet">
<metadata>
Created by potrace 1.14, written by Peter Selinger 2001-2017
</metadata>
<g transform="translate(0.000000,133.000000) scale(0.100000,-0.100000)"
fill="#000000" stroke="none">
<path d="M230 1253 c10 -38 28 -104 40 -148 11 -44 25 -95 31 -112 8 -24 7
-48 -2 -86 -11 -54 -11 -55 25 -111 20 -31 36 -62 36 -69 0 -6 -27 -61 -60
-120 l-60 -108 76 -182 c42 -100 88 -210 102 -244 24 -61 37 -77 40 -50 0 6
13 60 27 118 l26 105 60 28 c33 15 59 30 56 32 -3 4 -45 -3 -134 -22 -16 -3
-25 -16 -33 -47 -22 -85 -21 -83 -36 -51 -44 94 -124 290 -124 304 0 9 28 67
62 130 55 102 60 115 48 134 -76 119 -72 109 -59 162 14 56 17 62 27 49 4 -6
39 -36 79 -68 62 -51 80 -60 140 -71 108 -20 177 -1 267 72 39 31 74 61 78 67
9 13 16 5 22 -28 2 -15 8 -36 11 -48 5 -14 -6 -41 -35 -89 l-42 -69 64 -117
c34 -65 62 -124 60 -132 -2 -8 -14 -38 -27 -66 -13 -28 -43 -98 -66 -154 -46
-111 -47 -111 -69 -25 -11 43 -14 46 -80 57 -14 3 -41 8 -60 11 -32 7 -33 6
-15 -7 11 -8 39 -23 62 -33 42 -20 48 -32 68 -125 17 -80 27 -118 35 -130 9
-13 10 -13 10 0 0 13 58 158 90 225 5 11 32 74 60 140 l50 119 -37 71 c-20 38
-49 92 -63 119 l-27 48 40 60 c39 59 39 60 29 113 -13 62 -14 53 31 215 62
220 64 229 34 173 -8 -16 -48 -85 -88 -154 -66 -112 -83 -134 -153 -192 -95
-79 -132 -90 -246 -72 -35 5 -63 21 -123 70 -81 66 -90 78 -201 273 -32 56
-60 102 -61 102 -2 0 5 -30 15 -67z"/>
<path d="M487 664 c20 -20 48 -43 61 -53 21 -15 23 -20 11 -38 -11 -18 -9 -30
9 -78 12 -31 38 -72 57 -91 l35 -34 35 34 c45 44 80 131 66 163 -11 25 -13 23
88 110 38 34 24 28 -71 -25 l-86 -48 15 -28 c17 -33 10 -72 -21 -115 l-23 -31
-20 23 c-12 12 -28 38 -36 58 -13 32 -13 37 5 62 19 26 19 26 -4 40 -47 29
-149 87 -154 87 -3 0 12 -16 33 -36z"/>
</g>
</svg>
