<?xml version="1.0" encoding="utf-8"?>
<!-- Generator: Adobe Illustrator 24.2.3, SVG Export Plug-In . SVG Version: 6.00 Build 0)  -->
<svg version="1.1" id="Layer_1" xmlns="http://www.w3.org/2000/svg" xmlns:xlink="http://www.w3.org/1999/xlink" x="0px" y="0px"
	 viewBox="0 0 865.6 1027" style="enable-background:new 0 0 865.6 1027;" xml:space="preserve" preserveAspectRatio="none">
<style type="text/css">
	.st0{fill:#FFFFFF;}
</style>
<g>
	<g>
		<path class="st0" d="M433.5,18c4.3-2.6,7.2-8.5,12.9-7.9c1.2,0,2.8-0.1,3.6,1.1c5.2,5.2,10.1,10.7,15.9,15.3
			c5.6,3.3,8.5,9.4,13.1,13.9c5.2,4.6,5.6,12.1,7.2,18.5c1.3,9.9,0.6,20,1.9,29.9c1.5,18.7,5.3,37.2,11.9,54.8
			c7.2,5.1,15.6,8.3,23.5,12.2c3.2,1.8,7.7,1.8,9.9,5c1.1,3.8-1.8,7.1-3.9,10c1.7,2.4,4,4.8,3,7.9c3.2,3.2,1.6,8.1,2.4,12.1
			c1.2,5.6,1.4,11.4,3,16.9c2.5,12.5,3.9,25.4,9.2,37.1c1.6,3.1,3.1,6.4,4,9.8c0.7,3.3,3,5.9,3.9,9.1c0.9,4.8,5.4,7.6,7,12.1
			c0.1,4.6,4.5,7,6.1,11c-0.1,0.6-0.4,1.8-0.5,2.4c1.1,1.3,2.3,2.7,2.7,4.4c0.2,2.6-1,5.3,0.5,7.7c4.2,6.6,10.1,12,15.1,18
			c0.9-1,1.8-2,2.6-3c1.7,2,4.2,0.6,6.4,0.4c-1.1,3-3.8,4.8-6.1,6.8c3,0.6,4.1-3.1,6.9-3c-0.5,3.7-3.4,6.3-4.2,9.8
			c0.8,1,1,2.1,0.7,3.4c5.7,8,12.3,15.4,17.5,23.9c2.7,4.3,5.2,8.6,8.7,12.3c5.3,6.2,9.7,13,14.6,19.4c2.4,2.8,7.1,4.5,7.4,8.5
			c0.6,0.6,1.3,1.2,1.9,1.8c-1.2-7.9-1.1-15.9-2-23.8c-1.4-13,0.3-26.2-2.6-39c2.5,6.8,2.2,14.1,2.9,21.2c0.2,11.4,2.5,22.6,3,34
			c1.2,4.6,0,10.8,4.8,13.6c8.6,5.5,13.4,14.8,19.9,22.4c2.5,2.6,3.7,6.5,7,8.3c2.7,1.9,4,5.1,6.6,7.2c5.1,3.8,8.8,9.1,12.7,14.1
			c3.1,3,5.7,6.7,6.9,10.9l1.3,0c-0.4,0.9-0.8,1.7-1.2,2.6l-1.7-1.4c0-0.7,0.1-2,0.2-2.7c-0.3,0.1-0.9,0.3-1.2,0.4
			c0.1-0.4,0.4-1,0.6-1.4c-3.2-5.3-6.5-10.7-11.3-14.8c-10.3-10.4-21.7-19.9-30.4-31.8c-2.9-4.6-7.8-7.5-10.9-12
			c-1.5-2.1-2.9-4.4-5-6c-3.5-2.8-6.1-6.6-9.7-9.4c-2.2-1.7-3.4-4.2-5-6.4c-0.3-0.1-1-0.3-1.4-0.4c-2.9-3.4-5.6-6.9-8.6-10.1
			l2.5,0.6c-3-4.3-7-7.9-9.5-12.6c-6.4-11.1-13.6-21.7-21.5-31.8c-0.7-1.2-2.1-1.6-3.3-1.9c-0.1-0.6-0.2-1.8-0.3-2.3
			c-1.3-0.8-2.6-1.5-3.9-2.2c-4.5,8.1-5.1,17.5-8.9,25.9c-1.4,3.5-1.1,7.3-0.4,10.9c1.2,1,2.2,2.2,3.4,3.3c-0.4,0.3-1.1,0.8-1.5,1.1
			c0.2,0.4,0.8,1.3,1,1.7c0.5-0.6,1-1.2,1.4-1.8c3.4,3.8,8.1,5.9,12.2,8.6c3.9,2.3,7.4,5.4,11.3,7.8c0.3-0.1,1-0.3,1.3-0.4
			c4.2,3,9.9,4.8,12.3,9.8c2,1.8,3.9,4,6.6,4.8c2.9,3.2,7.1,4.5,10.2,7.5c3.8,2.5,7,5.7,9.8,9.2c2.9,2.9,3.8,7.3,7,9.9
			c1.9,1.4,3.3,3.3,4,5.6c-1,0.1-3.1,2.1-3-0.1c-1.2-4.5-5.3-7.1-8.6-10c0.6-2.2-1.8-3.5-2.8-5.1c-3.4-4.7-9.2-6.7-12.5-11.5
			c-3.8-3.1-7.9-6-11.5-9.4c-2.2-1.6-4.8-2.7-6.9-4.5c-0.7,0.4-1.5,0.8-2.2,1.2c2,3.6,1.6,7.8,1.8,11.8c-0.7,0.9-2,1.2-2.9,1.8
			c2.2,5.4,1.8,11.6,4,17c3.5,5.4,3.9,12,5.2,18.1c0.6,3.3,2.1,6.5,1.5,10c-2.3-1.1-2.6-4.1-3.5-6.2c-0.7,7.1,1.7,14,1.8,21
			c0.1,7.1,3.3,13.9,2.5,21.1c-1.4-8.5-5.3-16.2-8.3-24.2c-0.1,4.8,1.4,9.5,3,14c0,0.7-0.1,2.2-0.1,3l1.1-0.3
			c-0.1,4.3,2.5,8.2,3.6,12.2c2.8,6.6,4,13.6,6.1,20.4c-0.2,0.4-0.6,1.2-0.8,1.7l-1.2-1.8c0.5,1.5,1,2.9,1.5,4.4
			c0.5-1.1,1-2.2,1.5-3.3c0.6,4.4,2.3,8.5,3,12.9l-1-2c-0.4,0.8-0.9,1.6-1.3,2.4c2.1,5.1,3.8,10.4,5.2,15.8c-0.6,0.5-1.2,1-1.7,1.5
			c-0.7-4.3-1.9-8.6-3.5-12.6c-3.5-9.5-4.4-19.7-6.9-29.5c-2.1-6.5-2.8-13.3-5.4-19.7l0.2-1.5l-1.1,0.2c-1.7-5.2-4.2-10.2-4.8-15.7
			c0.8-4.4-1-8.7-3.5-12.2c-0.1,2.2-0.1,4.4-0.7,6.6c3.1,9.8,6.4,19.5,9.3,29.4c-0.7,0.3-3.3-0.6-2.4,0.8c0.3,0.1,0.9,0.4,1.2,0.5
			c-0.6,2.3-0.6,5.2,2.5,5c0.1,4.3,2.2,8.2,3.2,12.3c2.2,8.8,5.3,17.3,8.1,25.9c0,6.8,4.2,12.9,4.1,19.8c-1.6,5.7-4.4,11.1-5.4,17
			c-0.3,1.5,0.9,2.8,1.4,4.1c1,2.1,1,4.5,1.9,6.6c1.1,2.3,3.7,3.4,5.7,4.8c0-1.5,0-3,0-4.4c-2.1-2.3-5-4.1-6.5-6.8
			c0.5-2.5,2.5-4.3,4-6.3c0.1-3.6,0.5-7.2,1.3-10.8c1-4.3-1.3-8.3-2.3-12.4l-1.1-1c1,0,2-0.1,3-0.1c0.3,3.2,1.8,6.2,2.4,9.4
			c0.4,4.8-1.4,9.3-1.4,14.1c0,2.8-2.7,4.5-3.9,6.8c6.9,5.9,11.3,15.1,20.5,18.1c4.5,2.1,9.1,4.7,12.4,8.6
			c3.5,5.9,7.1,12.4,6.3,19.5c-0.5,2.2-0.7,5.8-3.8,4.9c-1.1-1.8-2.6-3.3-4-4.8c0.9,0,2.7,0,3.6-0.1c0.4-1.7,1.2-3.5,0.5-5.3
			c-2.4-6.1-8.2-9.7-12.1-14.7c-4.5-6.1-13.3-6.3-17.9-12.2c-1.5-2.6-4.8-3.1-6.7-5.3c-1.5-1.8-1.7-4.2-3-6.1
			c-1.1-2.1-3.3-4-2.9-6.6c0.9-6,3.3-11.7,6-17.1c0.3-3-1-6-1.7-8.8c-3.1-10.3-5.4-20.8-8.4-31.1c0.1,4.4,1.6,8.8,0.8,13.2
			c-0.4-0.1-1.2-0.4-1.5-0.5c-1.7-9.1-4.1-18.2-7.5-26.8c-0.2,2.4-0.2,4.8-0.5,7.2c-0.6-2.6-0.8-5.3-0.7-8l-0.7-0.1
			c0.1,3.7-1,7.4-0.2,11.1c-1.5,8.7,3.6,17.2,1.4,25.8c-0.8,4,2.2,8,0.4,12c-3,0.2-2.9-3.8-4.1-5.7c-3.2,1.7-2.7-2.3-3.4-4.3
			c-0.8,4.1,1.5,8.2-0.5,12.1c-0.4-0.5-1.1-1.5-1.5-2.1c-0.2,2.8,0.2,5.6,1.4,8.2c-0.3-1.6-0.1-3.1,0.4-4.3l0.6,0.1
			c1.1,6.6,2.3,13.3,3.8,19.9c-1,0.6-1.9,1.2-2.8,2l2.1-0.6c-0.3,1.6-0.6,3.1-0.9,4.7l3.3-1.7c-1.7,1.7-2.3,3.8-2,6.1
			c0.5-1.7,0.7-3.5,1.7-5c0.6,5.8,2.3,11.3,2.7,17.1c-2.5-0.4-1.4-3.5-2.1-5.2c-0.1,1.5-0.2,3.1-0.2,4.6c0.6,0.2,1.8,0.6,2.4,0.8
			c-1.1,3.2,1.6,5.7,2.5,8.5c1.3,2.9,1.3,6.1,2.2,9.1c0.2,8.5-3.2,16.5-3.6,25c0.4,8.7,0.5,17.4-0.6,26c-0.2,1.2-0.1,4-2.2,3.3
			c-0.3-1.1-0.4-2.2-0.4-3.3c0-15.3,0-30.7-0.5-46c-0.1-2-0.5-4-1.5-5.7c1.2,2.6-0.4,5.1-0.4,7.7c0.2,6.4,0.8,12.7,0.7,19.1
			c-0.5,3.6-2.7,6.7-4.3,10c0.4-4.3,1.6-8.8,0.1-13c-1,3.1,0,6.4-0.6,9.5c-0.3,0.1-0.9,0.2-1.2,0.2c-0.5-6.6-1.2-13.2-2.1-19.7
			c-1.1,4.4-1.6,8.9-2.9,13.2c-2,7.1-0.6,14.5-0.5,21.8c-0.6,16.3,1.3,32.8-0.9,49c1.8,19.4,3.2,38.8,6.2,58.1
			c0.9,4.6,3.3,8.7,5.4,12.8c2.5,4.6,4.5,9.5,6.9,14.2c3.7,7.2,5.1,15.5,9.5,22.4c1.9,3.4,5.6,6,5.8,10.3c6.6,5,13.1,10.2,19.4,15.5
			c3.7,1.4,9.6,1,11.1,5.5c2.1,0,4.2,0.2,6.2-0.7c6.5-2.5,13.6-3.7,19.6-7.5c7.7-4.8,14.9-10.3,22-16c2.2-1.7,1.2-5.1,3.6-6.8
			c4,4,0,9.2-2.3,12.8c-6.1,7.5-12.6,14.7-20.2,20.7c-5.2,4.1-11.5,6.3-16.8,10.1l1.5,0.3c-0.3,2,1.7,1.7,3,2.1
			c-1.9-0.6-3.3-0.1-4.1,1.3c1.2,0.7,2.5,1.5,3.7,2.3c0,0.3-0.1,1-0.1,1.3c-3.6-2.2-7.7-3.8-11.5-5.6c-8.2,0.1-16.7-0.9-24.1-4.5
			c-3-1.4-5.8-3.2-9-4.1c1.5-0.2,3-0.4,4.6-0.5c-1.3-1.6-2-3.8-4-4.6l0-0.6c-1.7-0.6-2.8-2-3.5-3.6c1.6,1.5,3,3,5,4.1
			c-1.2-2.2-4.1-6.9-6.9-5.8l0.5,1.3l-0.4,0.2c-0.4-1-1-1.9-1.8-2.5l0.1-1l-1.4,0.1l0.3-0.9c-2.2-1.8-3.4-4.5-5.9-5.9
			c-1.2-5.9-6.1-10.1-9.8-14.6c-3-4-7.6-6-11.4-9.1c2.3,5.2,4.7,10.3,7.1,15.4l-0.2,1.4c0.4,0,1.3,0,1.7,0l-1.1,2l1.4-0.5
			c1.9,3.4,3.9,6.9,6.9,9.5c4.1,2.6,8.7,4.3,12.7,7c-2.4-0.8-4.7-2-7-2.9c0.8,3.2,3.9,5.1,5,8.2c-4-4.8-8.2-9.7-13.9-12.5
			c-5.4-2.5-10.7-5-16.1-7.5c5.6,1.4,10.7,4.4,16.2,6.1c-2.4-3.1-5.2-6-7-9.6l0.6-1.8l-2,0.8c0.3-0.7,0.8-2,1.1-2.7l-2.1,0.8
			c0.3-0.7,0.9-2.1,1.2-2.8l-2.2,0.8c0.3-0.7,0.9-2.2,1.2-2.9l-1.8,1c-0.2-1.6-1.4-3.1-0.6-4.7l-1.2,0.5c-1.4-3.9-1.5-8.5-5.5-10.9
			c0.1,0.8,0.4,2.5,0.5,3.3c-2.1-1.5-0.5-5.2-3.6-6.1c-1.4-3.6-3.8-6.6-5.5-10.1c-2.7-4.7-4.3-9.9-6.9-14.7c0-0.7-0.1-2-0.1-2.7
			l-1.1,0.4c0.1-0.8,0.3-2.5,0.4-3.3l-1.1,0.1c0.5-1.8-0.5-3.4-1-5c-8.1-19.9-14.1-40.7-22.1-60.7c-3.7-9.5-6.4-19.3-8.8-29.1
			c-1.9-7.9-4.9-15.4-7.5-23c-4.4-11.8-8-23.9-12.1-35.8c4.5,5.8,6,13.2,8.6,19.9c4.6,14.5,10.9,28.3,14.8,43.1
			c3.2,12,8.2,23.5,12.9,35c2.7,7.3,5,14.8,8,21.9l0.5,0.2c0.1-0.6,0.4-1.7,0.5-2.3c1.5,3.7,3.2,7.4,4.2,11.3l-1.3-0.7
			c-0.2-0.8-0.5-2.3-0.7-3.1l-0.9,0c0.3,1.8,0.8,3.7,1.4,5.5l0.4,0.6c0.9,1.1,0.2,3,1.6,3.7c-0.1,1.5,0.4,3,0.9,4.5l0.7-2.2
			c1.2,1.4,1.2,3.2,0.3,4.7c0.6-0.1,1.2-0.1,1.8-0.2c0.4,2.7,1.6,5.1,2.2,7.7c0.3,0,1-0.2,1.4-0.2c0,0.4-0.1,1.2-0.1,1.5
			c1.3,0.7,1.3,2.2,1.8,3.5c1.2,4.1,3.8,7.6,5.3,11.5c0.4-2.2,0.5-4.7,2.5-6c-0.2,2.7-1.2,5.2-2,7.8l1.6-1.9c0.2,1,0.5,3.1,0.6,4.1
			c0.5-1.8,0.2-3.7,0-5.5c0.7-5.2-1.7-10.2-2.7-15.2c-3.3-15.3-4.7-31-8.2-46.3c-3.4,8.5-2.8,17.7-4,26.7c-0.2-6-1.6-12.1,0.1-17.9
			c0.1-3.8,1.7-7.3,2.4-11c1.1-3.9-1.1-7.7-1.6-11.5c-0.5-3.8-2.7-7.4-2.1-11.3c0.9,0.8,1.8,1.6,2.7,2.4c0.4-2.4-3.3-2.1-3-4.5
			c0.5-0.4,1.6-1.2,2.2-1.5c-0.7-11.4-4.1-22.3-5.7-33.6c-0.1-0.2-0.4-0.7-0.6-1c-0.2-1.5-0.4-2.9-0.5-4.4l-1.1,0.2
			c-0.9-8-2.9-15.8-4.2-23.7c-1.4-9.3-2.1-18.8-4.8-27.9c0.2,1.2,0.4,2.5,0.8,3.7c0.7,8.3,1.8,16.6,2.3,24.9l-1.2,0
			c-1.9-19-5.3-37.9-8-56.8c-0.6-4.5-1.9-8.9-2.4-13.4c0.3-0.2,0.8-0.7,1-0.9c-0.3-3.5-1.1-6.9-2-10.3c-1.4,2.6,1,5.5,1.5,8.1
			c-0.2,1.1-0.6,1.4-1.3,1c-0.2-3.3-2.8-7.2-0.8-10.2c-2-6.3-2.6-12.9-3.8-19.3c-1.3-8-3.9-16-2.5-24.1c-0.3,0.7-1,2.1-1.3,2.8
			l-0.3-0.1c0.9-3.3,0.6-6.6-0.1-9.9c3.6,7.7,4.9,16.4,7.3,24.6l0.8,0.8c0.4-8.8-1.8-17.3-2.6-26c-0.5-3.4-0.5-6.8-1.2-10.1
			c1.8,3,1.8,6.6,2.4,9.9c0.6,7.4,2.4,14.5,2.7,21.9c0.3,7,0.7,14.1,1.7,21c2.3,10.7,4.1,21.4,6.2,32.1c4.5,10.9,7.6,22.4,10.4,33.9
			c1.9,5.7,4.7,11.1,6.4,16.9c0.3-0.1,0.9-0.3,1.2-0.4c0,4.2,2,8.5,1.4,12.6c-2.5-1.5-1.4-5.2-3.5-7.1c1.1,4.3,2.8,8.5,3.1,13
			c0.3-1.6,0.4-3.3,0.8-4.9c5,25.9,6.6,52.5,11.1,78.6c1,6.4,2.5,12.8,3.1,19.2c0.1-1,0.4-2.9,0.6-3.9l1,0.1
			c0.2,0.4,0.5,1.2,0.7,1.6c-0.1-1.1-0.5-1.8-1.4-2.3c0.6-2.8-0.1-5.6-0.3-8.4c-1-12.1-2.8-24-4-36.1c-0.1-11.2-1.9-22.2-3-33.3
			c1.4-3.7,1.5-7.7,2.8-11.4c-3.3,0.9-1.4-2.1-0.9-3.5c-1.4-8.2-1.8-16.6-2-24.9c1.3,1.5,1.3,3.5,1.8,5.4c-0.3-1.3-1-3.8-1.3-5
			l1.7,0.1c-1.3-0.7-1.9-2-2.6-3.2c-0.8-9.1-2.2-18.1-3.5-27.2c-2.2-17.7-5-35.5-10.4-52.6c-0.6-1,0.1-1.7,0.8-2.3
			c8.1,22.1,10.3,45.8,14.5,68.9c1.4,7.2,1.8,14.5,2.7,21.8l-1.4-0.4c-0.1,1.8-0.3,3.6-0.3,5.4l1.1,0c0-1.2,0-3.7,0.1-4.9
			c1.2,1.6,0.2,3.7,0.3,5.6l-1.3-0.2c1.4,6.9,2.6,13.9,3.8,20.9c0.5,7.7,0.7,15.5,2.5,23.1c1.5-8-0.2-16.1,0-24.1
			c0.6-7.1,2.3-14.2,2.4-21.4c-1.4,1.9-2.5,4.1-3.4,6.3c-0.1,4.2,0.8,8.3,0.3,12.5c-1.2-0.7-1.2-2.2-1.5-3.4
			c-0.5-3.7-1.5-7.3-1.1-11c-0.8-11.6,0.1-23.5-2.1-35c-1.2-9.3-3.6-18.7-2.9-28.1c1.6,6.9,2.6,13.9,3.6,21c-0.1,1.1,1,0.8,1.7,0.7
			c-0.4-2.6-0.8-5.1-0.4-7.7c3.5,11.7,6.2,23.8,7.4,36c0.5-1.2,1.2-2.4,1.1-3.8c-0.5-6.8-2.4-13.4-2.3-20.3c2.7,0.9,2,4.3,2.9,6.4
			c0.8,2.7,0.3,6,2.5,8.1c0-3.3-2-6.4-1.6-9.5c2.2-2,2.9,1.4,3.4,2.9c0.3-0.2,0.9-0.6,1.2-0.8c-4-14.1-10.2-27.7-19.1-39.4
			c-2.1-2.9-4.3-5.9-5.5-9.4c4.9,4.5,7.6,10.9,12.7,15.1c0.9,1.7,1.7,3.5,3,5c-1.1-4.1-3.3-7.8-4.2-11.9
			c-3.3-8.9-8.7-17.1-10.8-26.4c2.3,2.3,3.2,5.5,4.8,8.2c0.1-0.8,0.2-2.4,0.3-3.1c0.9,0.5,1.5,1.2,1.8,2.3c1.1,3.7,1.6,7.7,3.4,11.1
			c0,0.5,0.1,1.5,0.1,2c0.3-0.6,0.9-1.7,1.2-2.3c1,4,2.4,7.9,3.8,11.7c1.2,5.4,2.6,10.8,3.9,16.2c2.9,6.1,5,12.7,6.3,19.3
			c0.4-1.7,1.4-3.3,1.1-5.1c-0.9-5.4-2.8-10.5-3.8-15.9c2.2-5.5-0.2-11.4-2.6-16.4c-1.6-3.3-2.8-7.8-0.2-10.9
			c-0.1-1.7-0.5-3.3-0.4-5c2.2-3.5,1.2-7.9-0.1-11.6c-0.7-0.8-1.8-0.9-2.7-1.1c0.5-13-6.2-24.7-9-37.1c-4-17.3-10.4-33.9-15.1-51.1
			c-2.9-9.7-5.7-19.4-9.2-28.9c-1.4-3.6-2.2-7.3-3.1-11.1c1.3,1.8,1.8,3.9,2.5,5.9c2,6,4.4,11.9,6.1,18c5.2,22.6,15.7,43.5,21,66.1
			c2.2,9,6.4,17.4,8.4,26.4c1.4,6.9,4.3,13.3,7.3,19.6c0.1-2.4-0.2-4.9-0.2-7.3c0.6,0.3,1.9,0.8,2.5,1.1c-0.8-2.8-1.4-5.6-1.4-8.5
			c-0.6,0-1.8,0.1-2.3,0.1c-0.7-2.7-2.4-4.9-3.3-7.5c-2.2-6-3.1-12.4-5.8-18.2c-4-8.8-5-18.6-8.1-27.7c-3.7-10.6-7.4-21.2-10.1-32
			c-4.5-20-13.4-38.6-18.5-58.5c-2.6-8.1-4.5-16.4-7.1-24.5c-1.9-5.9-3-12-4.2-18.1c1.9,4.1,2.5,8.7,4,13c6.2,17.8,9.9,36.4,16.8,54
			c3.4,9.2,7.8,18.2,10.1,27.8c2.8,12.3,6.7,24.3,11,36.1c3.4,9.5,4.3,19.9,8.6,29.1c1.8,4.1,2.7,8.5,3.8,12.8
			c-0.3-5-1.7-9.9-2.4-14.9c0.1-0.3,0.4-1,0.5-1.3c0.1,0.8,0.4,2.5,0.6,3.3c1-2.6-1.1-5.4-1.5-8c-3.2-12.7-6.5-25.3-9.9-37.9
			c-3.4-11.7-6.9-23.5-9.5-35.4c-1.4-1.5-1.3-3.6-1.2-5.5c0,0.6,0.1,1.9,0.1,2.5c0.8,1.2,1.4,2.5,1.7,3.9c2.2,9.9,5.7,19.4,8.5,29.1
			c5.8,17.6,10.3,35.7,16,53.3c0.5,1.6,0.7,3.2,1,4.9c0.2-2.4,0.4-4.7,0.6-7.1c0.3,0.8,1,2.3,1.3,3.1c0.8-0.5,1.6-1,2.5-1.5
			c-0.4,0.2-1.3,0.4-1.7,0.6c-1-4.4-1.5-9.1-4.3-12.8c-3-4.3-3.8-9.6-5.1-14.5c1.9,1.8,2.5,4.5,3.9,6.6c-0.8-4.1-1.8-8.2-1.7-12.4
			c-1.9-7.8-5.4-15.1-7.8-22.7c-0.2-1.1-0.2-2.1,0.2-3.1c1.1,2.4,1.7,5.1,2.8,7.5c2.5,3.6,3.4,8.1,5.9,11.8c0-2,0.2-4.1,0.6-6
			l-1.2,0.3c0.8-5.2-2.9-9.6-5.1-14c-1.6,2.7-1.8-2.7-4.1-2.2c-1.2-2.5-1.5-5.7-3.8-7.5c0.1,0.8,0.2,2.4,0.2,3.2
			c-3-2.6-2.2-6.7-2.3-10.3c-0.7-4.6-2.7-9-4.1-13.4l-2.5-0.2c0.9-1.4,1.9-2.7,2.9-4.1c0.3,1.8,0.8,4.2,2.8,5
			c-0.2,0.7-0.5,2.2-0.7,2.9c0.6-1.3,1-2.7,1.6-4c-1.2-1.9-2.3-3.7-3.3-5.7c-1.2-0.2-3.3,0.4-3.6-1.3c0.2-1.5,1.8,0,2.6-0.8
			c-0.9-5.2-0.4-11.2-4.2-15.3c-2.2-7.1-1.8-14.8-3.7-21.9c0.3-3.2,0.8-6.5,2.2-9.5c2.3-5,3.4-10.4,4.8-15.6c0.9-3,2.7-5.7,3.3-8.8
			c1.3-1.2,2.7-2.2,4.2-3.1c-3.9-5-8.4-9.6-12.3-14.6c-2.7-0.2-4.7-2-6.6-3.7c-0.7-3.2-5.5-3.4-5.8-6.5c2-1.1,3.6,1.6,5.2,2.1
			l-1.2-2.6c1.7,1.3,3.2,2.7,4.7,4.2c0.1-1.7,0.3-3.3,0.3-5c0.2-2.9-4.3-4.2-2.7-7.3c-0.5-2.9-3.4-4.8-4.8-7.4
			c-1.7-2.2-0.9-5.3-2.2-7.7c-2.5-4.4-6-8-8.4-12.4c1.2,1.1,2,2.5,3.6,3.2c-3.2-5-3.9-11-6.8-16.1c-4.7-9.4-6.5-19.8-8.4-30
			c-0.9-10.1-4.3-19.7-4.7-29.9c-1.5-1.9-0.7-4.9-2.7-6.5c-1.4-1-0.5-2.8-0.2-4.1c-1.1-1.6-2.2-3.2-3.3-4.7
			c-4.2,3.4,0.1,9.2-3.1,12.9c2.2-5-1.6-10.5,0.5-15.5c-0.7,0.1-2.1,0.3-2.8,0.4c0.2-1.9,1.2-3.5,1.8-5.3c-3.9,1.5-7.8,0.7-11.9,0.1
			c0.4-1.3,1.3-1.8,2.9-1.4c-1.7-1.6-3.3-3.2-4.7-5.1c3.5,0.8,4.8,5.8,8.8,5.3c2.6,0.6,4.8-2.2,7.2-0.4c1.5-0.6,2.5-0.4,2.2,1.4
			c-0.8,0.2-2.3,0.5-3,0.6c0,0.8,0,1.7,0,2.5c0.5,2,0.2,4.1-0.7,6.1c1.8-3.9,5.7-6.6,6.6-11c-0.3-1.6-2.2-1.7-3.4-2.2
			c-6.2-1.9-11.7-5.5-17.7-7.9c-3.3-1.5-6.3-3.5-9.3-5.6c0.7,3.3,0.5,6.7-0.6,10c-1.2-7.1-2.4-14.3-5.3-21
			c-7-21.6-9.9-44.4-10.4-67.1c-0.1-7.8-1.5-15.7-4.3-22.9c-2.4-3.7-5.9-6.4-8.4-10.1c-4-6-10.7-9.2-15.6-14.3
			c-2-4.6-8.3-9-13.4-6.5c-9.4,6.4-18.9,13.3-25.2,22.9c-1.2,3.3-2.5,6.5-3.3,9.9c-1.5,10.2-5,19.9-6.2,30.2
			c-1.3,12.4-4,24.5-6.2,36.7c-1.2,6.9-3.2,13.7-6,20.1c-3,6.7-4.3,14.6-10,19.7c0.4-1.8,0.8-3.5,1.2-5.2
			c-6.2,2.1-13.3,3.6-18.2,8.4c-0.1,4.2-0.8,8.5-2,12.5c0.6,3.1-1.7,5.6-2.5,8.5c-2.1,6.6-3.8,13.4-5.8,20.1
			c-4.3,11.5-3.9,24.4-9.6,35.5c-2,3.8-3,8.1-5.4,11.7c-4.4,8.5-8.2,17.3-13,25.6c-5.6,9.5-9.7,19.6-15.2,29.1
			c-4.4,10-10.9,19-17.6,27.6c6.1-4.7,12.2-9.3,18.1-14.2c5-2.9,7.4-8.4,11.6-12.2c-6.1,8.5-13.3,16-21.4,22.6
			c-2.9,3.3-6.8,5.7-9.1,9.5c-3.8,2.3-7.3,5.3-11.3,7.3c0.3,3.8,4.4,0.6,6.3,0.3c-0.7,2.5-3,4-4.7,5.8c2,0.8,4,1.2,6.1,1.5
			c0.7,4.5-0.3,9.1-0.1,13.6c-1.5,0.4-2.5,1.7-2.9,3.2c1.9-0.3,3.9-0.6,5.8-0.7c-0.3,1.5-0.7,3-1.2,4.5c0.8,0.3,2.4,0.8,3.2,1.1
			c0-0.6,0.1-1.9,0.1-2.6c0.4,0.8,0.9,1.6,1.3,2.5c1.3-0.9,2.1-2.5,3.4-3.5l0.6,0.1c-1.7,4.3-5,7.9-5.3,12.7c-0.1,2.8-1.8,5-2.4,7.6
			c0.9-0.8,2.2-0.3,1.6,1c-1,2.1-2.6,3.8-3.8,5.7c-2,3.9-1.4,8.4-2.3,12.6c-0.7,3.3,0.9,6.6,0.6,10c-0.5,3.3-0.5,6.7-0.2,10.1
			c0.9,6.8,0.4,13.6,0.4,20.4c0.8,0.7,2.2,1.1,2.4,2.3c0.1,5.4-4.3,9.8-3.8,15.2c-0.1,6.1-1.4,12.2-1.6,18.3
			c-1.4-5.2-0.3-10.7-0.9-16.1c-1.9,6.3-6.9,11-9.4,17c-4.2,8.4-8,17-12.6,25.1c0.2-0.1,0.7-0.2,1-0.3c1.2-2,2.7-3.8,4.4-5.4
			c1.7-0.8,2.5,1.7,1.3,2.6c-4.2,6.1-9.3,11.6-13.2,17.9c-0.9,1.5-2.1,2.8-3.7,3.4c-2.9,6.3-8.2,11.1-12.3,16.6
			c-2.8,3.8-6.3,7-9.1,10.7c-3-0.2-4.4,3.1-6,5.1c2.2-1.4,3.8-4.7,6.5-4.5c1.1,2.2-2,3.5-2.9,5.2c-9.1,12.5-19.8,23.8-28.3,36.8
			c-4.5,7-10.7,12.6-15.5,19.4c-5,6-8.5,13-12.9,19.4c-0.3-0.7-1-2.2-1.3-2.9c-2,2.6-3.9,5.2-5.6,8c0.5,0.5,1.4,1.5,1.9,2
			c-1.5,4.8-5.5,9.5-3.9,14.7c-0.8,2.3-2.8,4.5-2.1,7.1c-3.6,5.3-7.9,10.3-10.6,16.2c-0.4,1.8-1.5,3.3-2.6,4.7
			c0.1,0.4,0.1,1.2,0.2,1.6l-1.5,0c0.2,0.6,0.6,1.8,0.8,2.3l-1.8-0.7l0.5,1.7c-4.1,9.9-9.8,18.9-14.8,28.3
			c-4.1,7.6-7.9,15.4-11.5,23.2c-0.3-0.3-1-1-1.4-1.3c1.2-6.3,6.2-10.9,7.8-17c1.1-4,2.8-7.9,2.5-12.1c1.5-5.1,2.7-10.4,2.6-15.8
			c0.3-0.3,0.9-0.8,1.2-1.1c-0.6-0.7-1.1-1.3-1.7-1.9c3.6-0.9,5.9-4,7.6-7.1c-3.5,1.8-6.4,5-10.4,5.9c-4.8,2.2-8.8,5.8-12.7,9.3
			c-2.3,1.9-4.6,4.2-7.7,4.5l0.3-1.4c3-2.6,6.6-4.5,9.2-7.6c2.5-3.2,6.1-5.1,8.9-7.8c2.1-1.8,4-4.1,6.6-5.2c3.3-1.3,5.1-4.6,8.2-6.1
			c2-5,6.7-8.3,8.7-13.3c-0.6-0.2-1.9-0.4-2.5-0.6c0.3-0.9,0.7-1.7,1.3-2.4c1,0.2,2,0.4,2.8-0.5c0.2-1.3,0.4-2.5,0.8-3.7
			c-1.4,1-1.7,2.2-1,3.6c-1.5-0.2-3-0.4-4.4-0.5c-2.2,1.1-4.4,3-7.1,2.7c-4.6,3.3-9,7.2-14.2,9.5c-1.6,0.6-2.6-1.6-1.2-2.5
			c11.1-6.1,21.4-14.1,28.4-24.8c7.4-8.1,12.8-17.7,19.6-26.2c1.6-2.2,3.9-4.4,3.5-7.4c3.5-3.9,6.4-8.4,10-12.2
			c2.9-5.2,6.8-9.8,10.8-14.2c-1.5,0.5-2.7,1.6-3.4,3c-0.7,0.2-2,0.6-2.6,0.9c1.9-2.6,4.5-4.7,7.1-6.5c2-1.5,2.7-4,3.7-6.1
			c-0.4-0.8-0.9-1.5-1.4-2.2c1.4-0.9,3.1-1.5,3.9-3c-2.3,1.4-4.4,3-6.5,4.7c0,0.3-0.2,1-0.2,1.4l1.5-1.9c0.6,0.6,1.2,1.2,1.9,1.9
			c-12.9,8.8-24.1,19.8-35.1,30.8c-2.5,2.8-5.7,5.2-7.3,8.7c2.9-1.6,4.5-4.7,7.2-6.6c4.5-4.7,10.7-7.3,15-12.1
			c3.2-2.7,6.7-5.1,9.4-8.2c0.4,0.5,0.8,1,1.2,1.4c-6.9,4.3-12.1,11-19.5,14.6c-8.9,7.8-16.8,16.8-24.1,26.1c-0.4,0-1.2-0.1-1.6-0.1
			l1.2,0.6c-1.7,1.9-3.4,3.8-4.9,6c-0.3-0.2-1-0.5-1.3-0.7c3.4-7,8.6-12.9,13-19.3c-0.8,0.3-2.4,0.8-3.2,1
			c-8.3,5.4-15.8,11.9-23.6,18c-8.4,6.9-14.4,16.3-23,23c-5.6,3.7-10.5,8.2-16,12c-0.4,0.1-1.3,0.2-1.8,0.3
			c-0.3,1.7-1.4,2.5-3.5,2.3c0.9-3.2,3.3-5.7,5.6-8c-0.5-0.5-1-1-1.5-1.5c-2.1,2.1-4.5,3.9-6.6,6c-0.3-0.1-0.9-0.3-1.2-0.4
			c-4.6,4.2-8.7,8.9-12.8,13.5c-2,2.4-5.2,3.2-7.9,4.8c-0.4-0.3-1.2-0.9-1.6-1.2c2.7-1.2,6-1.7,8.1-4c5.4-5.9,10.3-12.6,17.2-16.8
			c4.2-2.7,7.9-6.1,11.1-9.9c3.9-3.9,8.7-6.8,13.3-9.8c6.2-3.3,9.6-10,15.4-13.8c-3.7,0.1-5.7,4.3-9.5,4c2.6-3.4,7.3-4.6,10.3-7.8
			c6.7-4.2,12.8-9.4,19.7-13.5c9.2-7.3,19.1-13.8,27.7-21.9c-0.2-0.4-0.6-1.3-0.8-1.7c2.2-3.3,5.9-5.2,8.5-8.1
			c6.9-6.1,14.4-11.5,21.4-17.6c0.5,0.5,1.6,1.4,2.1,1.9c0-1-0.1-2.1-0.8-2.9c1.4-1.4,2.9-2.9,4.6-4c3.1-1.9,4.4-5.4,6.9-7.9
			c3-3.2,7-5.2,10.8-7.2c0.6,0.5,1.3,1.1,1.9,1.6c-1.7,1.1-3.3,2.3-4.7,3.8c3.1-1.4,5.4-4,7.6-6.5c-0.5,0.5-1.5,1.4-2,1.9
			c-0.6-0.7-1.1-1.3-1.7-2c4.8-2.9,7.9-7.6,11.9-11.2c7.7-10.5,15-21.4,22.7-32c3.3-6.9,6.7-13.9,10.9-20.3
			c1.2-4.4,3.6-8.4,4.6-12.8c0.3-0.1,1-0.2,1.3-0.3c-0.1-0.6-0.2-1.8-0.3-2.5c2.1-5.6,3.5-11.4,5.2-17.1c-0.1,1.2-0.2,2.5-0.4,3.8
			c-2.1,4.4-2.5,9.3-4.5,13.7c0.4,0.8,0.7,1.7,1.1,2.5c0.3-1.3,1-4,1.3-5.3c2.4,2.9-0.9,6-1.7,8.8c0.4-0.1,1.3-0.3,1.7-0.4
			c0.2-3.7,3.1-6.9,2.3-10.7c-0.2,0.6-0.5,1.8-0.6,2.4c-0.3-0.1-1-0.2-1.4-0.3c1.7-3.2,2.5-6.8,4.1-10c1.3-0.8,2.7-1.7,2.8-3.4
			c0.2-7-0.4-14.1,1.5-20.9c-1.2-6.6,0.9-13.2-0.3-19.8c-0.7,1.2-1.4,3.8-3.1,2.2c-0.7-6.6-0.5-13.2-0.3-19.9
			c-0.3-0.6-0.9-1.9-1.2-2.5c-6.5,6.1-14.6,10.6-19.9,18c-0.4,0.8-0.7,1.7-0.9,2.6c-3,3.2-5.6,6.6-8.8,9.6c-1.8,1.8-3.9,3.5-5.2,5.7
			c-2.2,3.9-5.6,6.8-7.5,10.9c-2.2,1.2-2.6,3.8-4.4,5.4c-5,4.7-10.8,8.6-15.8,13.3c0,0.5-0.1,1.6-0.1,2.1c-1.7-0.8-2.6-0.4-2.8,1.2
			c-0.9,6.7,0.3,13.4,0.4,20.1c0.4,4-0.1,8,0.5,12c-1-1.9-1.5-4-1.6-6.2c-0.9-7.9-1.1-15.8-1.7-23.6c0.4,0,1.3,0,1.8,0
			c0-0.6,0-1.8,0-2.4c-2.2,1.7-4.2,3.7-5.3,6.3c-0.8,2.9-1,5.9-1.5,8.8c-0.8,3.8-4.4,5.7-6.7,8.4c-2.6,3.1-5.3,6.6-6.1,10.7
			c-0.7,2.7-0.3,5.6-1.8,8.1c-0.9-2.8-2.1-5.5-3.1-8.2c0.1-2.8,0.7-5.6,0.9-8.3c-1.5,1.9-4.1,3.4-4.4,6c-0.8-0.8-1.6-1.7-2.4-2.5
			c1.6-0.3,2.2-1.7,2.2-3.2c-3,2.4-4.7,6.3-4.7,10.1c0.1,1.4-0.2,2.8-0.9,4c-0.1-1.1-0.4-3.2-0.5-4.3c-1.3,3.8-2.2,8.1-0.1,11.8
			c-0.4-0.1-1.3-0.3-1.8-0.4c-0.4-2.3-1.6-4.6-1.1-6.9c0.7-2.6,1.7-5.1,2.7-7.6c0-0.7,0-2.1,0-2.8c-0.6,4.5-4.5,7.6-4.6,12.2
			c-0.7,3.6,1.8,6.3,3.7,9c0.2-1.4,0.6-2.7,1.2-3.9c1.4,3.1,3.5,5.8,4.8,9c0.4,0.4,1.2,1.1,1.6,1.4c-0.6-0.1-1.9-0.2-2.5-0.3
			c-0.1,3,1,5.8,0.9,8.8c-1.6-1.6-1.1-4.3-1.8-6.3c-1.4,1.6-0.6,4.1-0.8,6.1c-0.4,10.3,2.1,20.5,1.5,30.8c-0.1-8.4-1-16.7-2.5-25
			c-0.4-4.5-0.3-9.1-0.3-13.6c0.5-0.2,1.6-0.7,2.1-1c-0.1-1.3-0.4-3.9-0.6-5.2l-2.3,1.8c0-0.7-0.1-2.1-0.1-2.8
			c-1.8,1.2-2.9-1.1-4.1-1.9c-2.8-2.4-2-6.1-2.2-9.3c-1.9,3.7-1.6,8-2,12c-0.5,2.3-2.3,4.3-1.4,6.7c0.6-1.2,1.3-2.4,1.9-3.6
			c0.1,1.9,0,4-1.2,5.6c0.3,2.9,0.6,5.9,0.6,8.8c-0.1,0-0.5,0-0.6,0c-0.1-5.7-2.4-11.2-2.3-17l1.4,0.1l-0.6-1.3l1.2,0
			c-0.6-6,0.2-12.1,2.4-17.7c-2.6,1.9-2.9,5.4-3.9,8.2c-1,2.5-0.8,5.3-0.7,8c-2.4-2.3-0.8-6.4-1.3-9.4c-2.6,2.8-4.1,6.8-7.8,8.5
			c-2.3,1.3-4.1,3.2-6.4,4.5c1-2.9,2.3-5.6,3.8-8.3c2.3-1.3,0,2.5,1.7,2.4c1.9-0.9,3.3-2.6,4.8-4c-0.2-0.4-0.4-1.1-0.6-1.4
			c3-5.5,8.4-8.9,13.1-12.8c5.4-5,12.1-8.4,18.3-12.3c-0.5,0.5-1.4,1.5-1.9,2c-0.2,4.9-0.5,9.8-0.9,14.6c0.2,0.4,0.6,1.2,0.8,1.6
			c0.1,0.9,0.3,2.6,0.4,3.5c0.6-1.3,0.8-2.6,0.3-4.1c1.5-3.3,2-7.2,4.7-9.9c3-3.2,5.6-6.8,8.5-10c0.3-2.8,0.2-5.7,0.9-8.5
			c1.7-4.6,5.9-7.2,8.6-11.1l1.3-0.4c0-0.5-0.1-1.6-0.2-2.1l0.7,1.6c6-6.2,13.1-11.3,18.2-18.3c2.1-2.8,5.2-5,6.5-8.5
			c3.3-4.7,8.2-8,11.9-12.3c1.6-1.6,1.2-4.3,3.1-5.7c7.7-9.7,18.1-16.6,27-25c0.6-1.4,0.9-3,1.2-4.5c-0.5-0.4-1.3-1.1-1.8-1.4
			c0.2-2.9,2.1-5.3,3.7-7.6c-1.3-0.8-3.3-0.8-4-2.3c0.7-2.8,1.6-5.5,2.3-8.3c-0.4-2-0.8-4-1.3-5.9c-4.3,0.4-8.5,1.8-12.3,3.8
			c-2.5,2.9-6.3,4.4-8.1,7.9c-8.6,12.5-16.6,25.5-25.3,37.9c-6.7,10.1-14.2,19.9-20,30.5c-7.2,9.3-15.1,18-22,27.4
			c-3.8,3.9-7.4,7.9-11.2,11.7c-5.5,4.4-10.1,9.7-15.2,14.5c-3.7,3.2-6.2,7.5-8.9,11.5c-0.8,1.5-2.1,3-1.6,4.8
			c-0.9-0.7-1.9-1.3-2.8-1.9c2.8-0.1,2.9-3.9,4.6-5.6c5.5-5.9,9.6-13.1,16.2-17.9c2.8-2.9,4.8-6.6,8.5-8.6
			c5.6-5.8,11.4-11.6,15.4-18.6c2.4-3.8,6-6.6,8.5-10.3c2.9-4.2,6.4-7.8,8.9-12.2c14.5-21.2,28.9-42.5,42.5-64.4
			c2.4-4.8,6.5-8.3,10.7-11.5c-2.5,1-4.8,2.6-7.5,3.3c2.5-5.7,9.8-5,13.9-9c1.3-0.2,3.1-0.1,3.4-1.8c-7.4,2.9-14.5,6.5-22.1,8.7
			c-0.5,0-1.6-0.1-2.2-0.1c0-2.4,2.2-3.4,3.8-4.7c3.5-2.4,7.2-4.2,10.7-6.6c-0.7-5.3-2.5-10.5-2.3-15.9c0.1-6-2-11.9-1.2-18
			c1,1.5,0.6,3.3,0.9,5c1.2,9.2,1.8,18.5,4.1,27.5c0.4-0.4,1.2-1,1.7-1.4l1.6,1l-0.6-1.9c0.8-0.4,1.6-0.8,2.5-1.2l-0.1,0.5
			c-0.4,0.6-1.3,1.8-1.8,2.3c4-2.2,7.1-5.6,9.5-9.4c5.6-5.7,9.6-12.6,13.7-19.4c5.8-7.8,10.8-16.2,15-25c4.8-10.9,11.3-21,16.2-31.8
			c2.6-5.8,6.2-11.2,7.8-17.4c2.8-2.7,3.7-6.5,5-9.9c2.7-9.7,5.2-19.4,8-29.1c1.6-7,2.6-14.1,5-20.8c0.4-0.4,1.1-1.1,1.4-1.4
			c-0.1-1.1,0.3-2.2,0.8-3.2c-3.2-0.5-0.4-3.5,0.6-4.8c1.9-4.2,0.6-9.2,2.5-13.4c6.2-4.7,13.9-7,21.4-9c2.2-5,3.9-10.2,6-15.2
			c4.1-9.9,5.2-20.7,7.4-31.2c2.5-11.2,3.4-22.8,6.5-33.9c2.3-9.5,2.8-19.3,5.1-28.8C418.3,29.1,426.5,24,433.5,18z M578.1,389.8
			c0.1,6.9,4.9,12.1,8.7,17.3c0.8,2.4-1.5,5.2,0.3,7.5c1.6-3.1,2.5-6.3,2.2-9.7c-1.7-2.4-2.3-6-5.2-7.1c1-0.8,1.6-3-0.7-2.4l0.6-1.2
			c-0.5,0.8-1,1.5-1.5,2.3c-1-3.4-2.1-6.8-3-10.3C577.6,385.3,577.8,388.6,578.1,389.8z M581.8,405.1c0.7,1.9,1.4,3.8,2,5.7
			c0.2-0.7,0.6-2.2,0.8-3c-0.6-0.9-1.1-1.8-1.7-2.7C582.7,405.2,582.1,405.1,581.8,405.1z M586.3,414.5c0.2,6.5,1.4,13.1,4.1,19
			c1.9-5.1-2.8-9.6-1.9-14.7C589.1,416.9,588,415.3,586.3,414.5z M606.9,439.7c0,5.8,0.5,11.9,2.5,17.4c0.3-6-3.1-12.4-0.1-18.1
			C608.7,439.1,607.5,439.5,606.9,439.7z M606,455.1c0.3,1.5,0.7,3,1.4,4.3c0.8,2.6,1.5,5.2,3,7.5c0-2.7-0.5-5.3-0.2-8l-1.8,1.1
			C607.8,458.4,607.5,456.2,606,455.1z M277.6,470l-0.5,0.5l0.4,0.8l0.9,0l0.4-0.8C278.5,470.3,277.9,470.1,277.6,470z M276.7,472.3
			c-1.4,4-2.9,7.9-4,12c-3.1,6.4-6.9,12.6-9.7,19.1c-6.5,9.2-12.6,18.6-19.5,27.6c5.4-3.6,9-9.1,12.8-14.3c-0.3-3,2.5-4.8,4-7.1
			c4.2-4.9,7.9-10.2,11-15.8c0-0.7,0.1-2.1,0.2-2.8c3.2-5.1,5.7-10.6,8.5-15.9c-0.5-0.6-0.9-1.2-1.4-1.8l-1,1.5
			c0.1-0.8,0.3-2.5,0.4-3.4L276.7,472.3z M605.9,492.8c1.2,4.4,3,8.6,4.2,13c0-3.8-0.9-7.6-2.4-11.1
			C607.4,493.8,606.8,493.2,605.9,492.8z M535.7,506.1c0,0.8,0,2.3-0.1,3.1l0.5,0C536.8,507.8,536.7,506.8,535.7,506.1z
			 M536.3,510.4c0,1,0.1,2.9,0.1,3.9c0.4,0.8,1.1,1.1,1.9,0.8C537.5,513.7,537.9,510.8,536.3,510.4z M619.4,514.4
			c-0.3,2.2,0.9,4.3,1.1,6.5C622.6,520,620.6,515.4,619.4,514.4z M536.8,515c0.5,3.9,1.2,7.8,1.8,11.7c1.5,6.5,3.1,13.1,5.5,19.3
			c-1.2-10-3.9-19.8-5.5-29.8C538.1,515.9,537.2,515.3,536.8,515z M193.4,580.2c-3.4,2.9-7.9,4.6-10.1,8.8l-1.6-1.1l0.9,2.5
			l-2.3-1.4l1.2,1.6c-4.1,1.2-6.3,5.3-9.7,7.7c-4,2.7-6.9,6.7-10.8,9.4c-1.3,1-2.4,2.1-3.4,3.4c2.9-1.9,5.9-3.9,8.2-6.5
			c0.3,0.8,0.5,1.6,0.8,2.4c1.6-0.6,2.6-2,3.8-3.2c-0.5-0.5-1-1-1.6-1.5c0.3-0.3,0.9-1,1.2-1.4c0.6,0.3,1.8,0.9,2.4,1.2
			c-0.2-0.4-0.6-1.3-0.9-1.8c3.7-3.8,8.1-6.7,11.8-10.5c1.3-0.9,2-2.4,2.8-3.7C188.7,584.4,191.4,582.7,193.4,580.2z M583,583.2
			c2.8,12.1,1.9,24.5,2.8,36.8c1-1.7,2-3.3,3.2-4.8c-1-11.5-2.6-23-4.7-34.4C583.9,581.6,583.4,582.4,583,583.2z M642.7,590.1
			c4.5,3.8,8.5,8.1,12,12.8c1.2,0.5,2.3,1.2,3.4,2.1c2,4.7,4.5,10.3,1.3,15.1c3.7-1.9,1.4-7.1,1.4-10.3c-1.1-3.9-3.3-7.5-5.2-11
			C652.2,594.7,647.4,592.1,642.7,590.1z M601.8,590.8c0.8,3.8,0.6,7.8,2.2,11.4c1.2,2.7-0.6,6.2,1.8,8.5c0,4.4,0,8.8,0,13.2
			c0.9-6.3,3.6-12.8,1.6-19.1C606.9,599.7,604,595.3,601.8,590.8z M165.9,607.5c0.2-0.2,0.5-0.5,0.6-0.7
			C166.3,606.9,166,607.3,165.9,607.5z M165.1,608.2c0.2-0.2,0.6-0.5,0.7-0.7C165.7,607.6,165.3,608,165.1,608.2z M159.2,614.7
			l-1.8-1l1.1,2.3l-1.8-1.1c-0.3,0.4-0.9,1.1-1.2,1.4l1,0.9l-3.2,0.7c1.4,0,2.8,0.1,4.2,0l-1.3-2.4l2,1.3c0.7-1.2,1.4-2.4,2.1-3.6
			c1.7-1.6,4-2.9,4.8-5.2C163.1,610.1,158.6,611.5,159.2,614.7z M153.4,613.7c-6.2,5.6-14.9,9-19.1,16.6c-0.5-0.6-1-1.3-1.4-1.9
			c-3.7,3.2-7.6,6.3-11.4,9.4c-2.8,2.9-5.1,6.4-8.6,8.6l1.2,0.2c4.6-4.5,11.2-6.7,14.6-12.3c1.7,0.1,3.4-0.1,1.7-2.5l1.9,0.8
			c9.4-5.8,18.1-12.9,26.2-20.3C157.1,610.1,155.1,613.2,153.4,613.7z M159.9,617.5 M156.4,621.6c1.6-0.5,3.3-2.4,3.5-4.1
			C158.2,617.7,156.3,620,156.4,621.6z M153.7,624.1 M579.9,649.3c1.2,6.2,3.2,12.2,4.1,18.3c-0.8-9.9-2.2-19.7-2-29.7
			C581.7,641.8,581.3,645.6,579.9,649.3z M104.1,657.4c-4.5,4.4-10.7,7.3-13.4,13.3l1.2,0.1c4-3.2,7.9-6.6,12.1-9.5
			c5.4-3.5,9.4-8.7,13.6-13.4c1-1.3,2.6-2.3,2.6-4.2C114.6,648,109.5,652.8,104.1,657.4z M107.1,650.9c-2.8,1.4-6.4,3.1-7.2,6.3
			c-3.5,1.6-5.6,5.2-9.1,6.8c0.5,0.4,1,0.7,1.6,1.1c3.1-4.9,9.8-6.6,12.1-12.2l1.5,0.9c1.5-3.6,5.8-4.4,8.1-7.2
			C111.4,647.4,109.1,649.1,107.1,650.9z M570.2,656.9c2-2,0.1-4.8-0.4-7.1C568,651.6,570.2,654.6,570.2,656.9z M574,669.7
			c-1-3.5-1.4-7.2-2.1-10.7C571.2,662.7,571.2,666.8,574,669.7z M152.9,667.6c-1.9,3.7-4.4,7-6.6,10.5c4.2-1.4,5.6-6.5,7.4-10.1
			L152.9,667.6z M569.3,667.6c0.9,4.8,1.9,9.5,2.4,14.3c0.3,2,0.3,4.2,1.4,6c0.7-4.6-0.7-9.5,0.9-13.9
			C572.5,671.9,572.4,667.8,569.3,667.6z M90.7,670.7 M574.8,677c-0.2,3.9,0.4,7.8-0.3,11.6c-0.5,0.1-1.5,0.3-1.9,0.5
			c-0.2,4.2,3.6,6.9,4.2,10.9c0.6,2.5-1.7,4.6-0.9,7.1c2.5,11.3,4.7,22.8,8.4,33.8c0.8,3,2,5.9,2.2,9c0.4,1.6-0.8,2.9-2.1,3.6
			c-0.4-1.7-0.8-3.5-1.2-5.2c-0.5,0.1-1.6,0.3-2.1,0.5c-1-2.5-0.9-5.4-2.6-7.5c0.6,3.1,0.4,6.6,2,9.4c0.1,7.1,2.3,13.9,4.6,20.6
			c2.7,2.2,3.4,5.8,5.5,8.4c3.9,4.7,6.8,10,10.1,15.1c1.3,0.3,2.3,1,3,2.2c1.9,2.9,3.6,5.9,5.6,8.8c-1.1-3.3-2.2-6.6-4.1-9.5
			c-4-6.4-6.3-13.6-8.1-20.9c-1.2,0.4-2.8,2.4-4,1.2c-0.6-3.8-1.2-7.6-1.8-11.4c-0.3,0-0.9,0.1-1.2,0.1c-0.3-3.1-0.3-6.3-1.3-9.4
			c-1.2-6.9-1.5-14-4-20.6c-1.2-5.2-2.2-10.4-4.2-15.4c-0.5-4.8-2-9.5-3-14.2c1.5-2.4,0.5-5.3,0.2-7.9
			C577,690.9,575.9,683.9,574.8,677z M142.1,690c-4.1,2.4-4.4,7.8-6.3,11.7C138.2,698,140.4,694.1,142.1,690z M138.3,702.4
			c-2.8,5.1-4.7,10.7-5.7,16.5c1-1.4,1.9-2.8,2.8-4.2c-0.1-0.7-0.4-2.2-0.6-3c1.9-2.7,3.4-5.8,4.5-8.9
			C139.1,702.7,138.5,702.5,138.3,702.4z M560.7,734.9c-0.6,1.1,0.4,3.7,1.8,3.8C562.7,737.5,562.2,734.8,560.7,734.9z M618,834.1
			c0,1.1,0.8,2.2,1.4,3.2C622.6,837.7,620,833.6,618,834.1z M678.7,841.1l0.5,1.6c-3.7-1.7-5.4,2.4-8,4c-3.6,1.7-6.8,4.2-10.7,5.1
			c7.3,0.1,13.4-4.9,19.6-8.3l-0.7-1.8l1.6,1.2c3.2-2.8,6.5-5.4,9.3-8.6C686.3,836.3,682.3,838.4,678.7,841.1z M628.2,841
			c0.5,0.5,1.5,1.4,2,1.9C631.4,842,629.1,840.4,628.2,841z M625.7,841.1c1.1,2.7,4.7,4.9,3.3,8.1c2.1,0.2,4.3,0.5,6.4,0.5
			c-0.8-0.4-2.3-1.2-3-1.6c2.8-0.3,5.1,2.8,7.9,1.4l-2.8-0.8c1.2-0.7,2.5-1.2,3.7-1.8c-1.4,0.2-2.8,0.4-4.1,0.7
			C633.1,845.7,629.4,843.4,625.7,841.1z M630.6,843.8c2.2,0.7,4.5,1.2,6.9,1.4C636,842.9,632.7,841.9,630.6,843.8z M664.4,845.9
			c-2.3-0.2-3.9,2-5.7,2.9c-0.1-0.4-0.2-1.3-0.3-1.7l-0.7,0.8c-1.3,0.5-3-0.1-3.4,1.6c0.6-0.1,1.8-0.4,2.3-0.5
			c0,0.5,0.1,1.4,0.2,1.9c4.3-0.4,7.4-3.8,11.5-4.6c0.3-0.3,0.9-1,1.2-1.3C667.8,845.5,666.1,846,664.4,845.9z"/>
	</g>
	<g>
		<path class="st0" d="M439.2,28.6c2.2-1.8,3.3-4.6,5.1-6.8c-0.2,2.5-4.2,4.5-1.9,6.8l-1.6,0c0.4,0.6,0.9,1.2,1.3,1.8
			c3.8-3.1,8.6-0.6,12.3,1.3c-0.9-1.1-1.9-2.1-2.9-3.1c-0.1-0.9-0.3-2.5-0.4-3.4c3.9,4,7.5,8.3,11.4,12.3c4.2,4.9,8.9,9.4,11.7,15.3
			c1.4,2.8,1.3,6,2.9,8.7c-0.4,0-1.2-0.1-1.7-0.1c-0.6,7.7-0.8,15.5-2.8,23c1.5,0.5,2.2-1.2,3.3-1.9c-0.8,1.8-1.4,4.3-3.6,4.9
			c0.4,1.3,0.4,2.7-0.7,3.8c-2,2.4-3.7,5-5.8,7.3c0.6-0.1,1.8-0.2,2.4-0.3c-1,4.6,0,9.4,0.2,14.1l0.5,0c0.9-5.3,3.5-10.1,4.7-15.2
			l1.1,0.4c0.1-0.7,0.4-2.1,0.5-2.8c0.4-0.1,1.2-0.4,1.6-0.5c0.5-0.9,1.2-1.5,2.1-2c-0.4,2.9-2.7,5-3.6,7.7
			c-1.3,4.2-2.5,8.7-1.4,13.1c-0.2,4.5-1.3,9-1.2,13.5c-0.4,0.2-1.1,0.5-1.4,0.6l1.4,0.1c1,7.4,0.5,14.9,1.8,22.2
			c1.9,7.6,3.2,15.4,4.6,23.1l1.2,0.7c0.5,3.7,2.3,7.8,0.7,11.3c0.4,2.4,1,4.8,1.7,7.1c1.1-3.1,2.1-6.2,3.1-9.3
			c1.1,3.4-1,6.9-1.2,10.3c-1.1,4-0.8,8.8-3.9,11.9c-1,5.1-1,10.2-1.6,15.4c-0.4,8.5-3.4,16.6-4.3,25.1c-0.7,5.3-2.6,10.4-3.3,15.7
			c-1.1,7.4-3,14.8-5.6,21.8c-1.9,3.5-4.4,6.6-5.7,10.3c2.7-2.8,5.3-5.8,7.8-8.8c-2.4,5.6-7.5,9.5-10.4,14.9
			c-2.3,6.2-3.4,12.9-7.1,18.4c-1.7-0.1-0.7-1.6-0.4-2.6c-1.7,0.4-3.4,0.9-5.1,1.1c1.6-1.2,3.7-1.3,5.6-1.5c0.6-4,1.9-7.8,3.5-11.4
			c-2.7,1.6-5.1,3.4-7.8,5c2.9-3.4,6.9-5.7,9.6-9.3c0.8-1.9,1.2-4,1.4-6c-2.4,1.3-4.3,3.3-5.7,5.5c-1.3,1.8-2.5,4.3-5,4.5
			c0.7-2,2.1-3.7,3.2-5.5c-1.9,0.8-3.8,1.7-5.7,2.5l-0.1-1.9c-3.8,1.1-7.8,2.6-11.8,1.3c-1.6-1.8-2.8-3.9-4-6
			c-3.2-1-3.9-4.5-5.2-7.1c-6.3-17.2-9.1-35.4-14.5-52.8c-0.5,0.1-1.4,0.2-1.9,0.3c-0.7-9.2,0.9-18.3,1.2-27.4
			c-0.3-0.4-0.8-1.2-1-1.7c1.9-4.3,1.3-9,2.3-13.5c1.7-7.6,1.1-15.4,1.7-23.1c0.2-7.7,2.4-15.3,1.4-22.9c-0.1-3,0.2-6.1-0.2-9.1
			c-0.8-6,0.6-12.2-1.5-18c1.7,2.2,1.5,5.1,2,7.7c1.1,11.4,1.5,22.8,1.6,34.3c-0.3,6.7-1.4,13.4-0.4,20.1
			c0.8-12.1,2.4-24.1,3.8-36.1c0.1-8,0.5-16,0.7-24l1.9,3c-1.2-7.5,0.1-15.1-0.6-22.6c-0.5,0.1-1.5,0.4-2,0.5c1-7-2.7-13.8-1.4-20.9
			c0.6-6.3-0.5-12.8,0.7-19c0.3-1.4,0.1-2.9-0.3-4.3c1.7-5.5,5.1-10,8.8-14.3C429.6,37.1,434.5,33,439.2,28.6z M440.7,29.6
			c-1.2,0.6-3.1,1.7-3,3.1c1.1-0.2,2-0.6,2.9-1.3C440.6,30.9,440.6,30,440.7,29.6z M438.2,37.2c-0.3-0.3-1-0.8-1.3-1
			c-0.7,0.7-1.4,1.4-2.1,2c0.2,0.6,0.5,1.1,0.8,1.7c-1.4,0.6-2.3,1.9-3.4,2.9c-0.3-0.2-1-0.7-1.4-1c-2.8,3.2-5.4,6.6-7.2,10.5
			l-1-0.3c0.7,3.8-1.5,7.2-2,10.8c-0.2,0.2-0.5,0.6-0.6,0.8c-0.4,6.1,1.3,12.1,0.1,18.2c-1.1,3.3,2.7,5.6,1.9,8.8
			c2.5,4.1,6.6,6.6,9.5,10.4c2.9,0.5,4.8,3,7.5,3.9c-0.4,0.5-0.8,1-1.2,1.5c0.4,0.3,1.1,0.8,1.5,1c0.2-0.4,0.8-1.1,1-1.5
			c3.2,1.9,7.5,4.8,11.3,2.6c5.6-3.8,11.1-8.1,14.8-13.8c1.4-3.3,3-6.7,4.6-9.9c2.1-7.4,3.6-15.2,3-23c0.1-3.7-1-7.3-2.9-10.4
			c-1.9-3.6-5.4-5.8-8.1-8.7c-2.2-3.2-5-6-8.2-8.2c-3.3-1-6.8-1.5-10.3-1.7C442,33.9,440.1,35.6,438.2,37.2z M472.8,85.9
			 M424.6,103.4c-0.9,1.2-0.7,2,0.6,2.3C426,104.5,425.8,103.7,424.6,103.4z M462,104.2c-0.6,1.2-0.9,2.4-0.7,3.6l-1.8-1l1.1,2.3
			l-2.2-1.4l1.2,2.4l-2.3-1.5l1.1,2c-4.2-0.8-5.9,6-10.5,4c-3.4-1.8-6.9-3.8-10.9-3.7c1.6,1.3,3.7,1.8,5.5,2.7
			c-3.4-0.4-6.6-2-10-2.4c1.2,2.8,5,2.2,7,4.2c-2.2-0.3-4.5-0.8-6.7-1.3c-0.1,1.8-0.2,3.5-0.3,5.3c2.1-0.6-0.6-5.7,2.2-3
			c0,3.4,1.3,7.4-0.9,10.4c0.2-1.4-0.1-2.7-1-3.7c0.1-1,0.4-2.9,0.6-3.9c-0.7,0.7-1.3,1.5-1.7,2.5c1.2,3.8,0.4,8,1.9,11.7
			c0.4,2,0.7,4.1,0.9,6.2c-0.8-0.5-1-3-2-2.4l-0.3,0.4c-0.2-0.1-0.5-0.2-0.7-0.2c-0.6-4.6-1.1-9.2-1.5-13.8c0-2.1-1.7-3.9-0.8-5.9
			c-0.3-0.1-1-0.2-1.3-0.3c0-1.2-0.1-2.4-0.2-3.5c-1.5-0.7-3.1-2-1.1-3.1l-0.6-0.5c0.7-1.9-0.4-2.8-2-3.8c-0.3,4.7-0.2,9.4,0.5,14
			c0,1.5,1,3.9-1.2,4.5c0.4,2.2-1.2,4.9-0.3,6.7c3.1,1.7,3.9,5.7,5.2,8.8c-2.2-1.7-3.3-4.3-4.8-6.5c-0.4,0-1.3-0.1-1.7-0.1l-0.5-0.2
			c-0.2,0.1-0.8,0.4-1,0.6c-1.6,4.3-0.2,8.9-0.8,13.4c-0.8,7.3-1.3,14.7-2.2,22c-0.6,5.3,0,11.4-4.2,15.4
			c-2.2,11.7-3.2,23.6-3.8,35.5c2,7.9,5.4,15.4,8,23c3.8,8.7,4.6,18.3,7.6,27.2c1.7,6.5,4.3,12.7,6.7,18.9c1,2.8,3.6,4.5,5.8,6.3
			c4.4,0.3,7.5-3.1,10.4-5.8c4.9-5.1,9.5-10.5,14.5-15.6c4.1-5.9,3.5-13.4,6-19.9c-0.3-11,2.2-21.7,3.7-32.6
			c0.9-3.9,1.1-8.2,3.7-11.4c-1.8,8.9-2.7,18-4.2,27c-0.7,4.9-1.8,9.9-0.8,14.9c2.2-15.4,6.8-30.5,7.7-46c1.5-5.5,1.8-11.3,2.8-16.8
			c-0.5-2.8-1.9-5.4-2.5-8.1c0.3-0.1,1-0.4,1.3-0.5c-2,0.3-2.4-2.3-2.9-3.7c-0.2-4.6-2.4-8.8-4.3-12.9c-2.1-7.8-2.2-16-2.7-24
			c-0.8-5.6-0.9-11.2-1.4-16.8c1.3-1.2,1.4-3.1,0.9-4.8c-0.2,1.4-0.5,2.7-1.2,3.9c0-4.5-1.7-8.9-1.5-13.3c-0.1,0.5-0.4,1.4-0.5,1.9
			c-3.5-1.9-1.7,1.4-0.1,0.6c0.9,4.4-0.1,9,0.3,13.5c0.5,4.7,0.5,9.4-0.2,14c-0.4,8.3,1.1,16.8-0.3,25.1
			c-0.3-11.7-0.7-23.4-1.2-35.2c-0.1-5.1-1.4-10.1-1.1-15.2c-0.4,0-1.2,0.1-1.6,0.1c-0.1-3.1-0.6-6.4,0.3-9.4
			C462.5,104.9,462.2,104.5,462,104.2z M426.7,106.7c0.5,1.3,1.3,1.8,2.6,1.5C429.8,107,427.1,104.9,426.7,106.7z M426.5,109.6
			c0.4,1,1.7,2.1,2.8,1.9C430.4,110,427.2,107.9,426.5,109.6z M428.5,113.1c0,0.4,0,1.3,0,1.7l0.7,0c0-0.4,0-1.3,0-1.7L428.5,113.1z
			 M445.9,296.5c-0.1,0.2-0.2,0.8-0.3,1c2.1-1.6,4.6-2.4,6.8-3.7c1.1-1.2,1.8-2.6,2.6-3.9C451.7,291.7,448.9,294.3,445.9,296.5z
			 M459.7,293.1"/>
	</g>
	
		<rect x="436.8" y="37.1" transform="matrix(0.9981 -6.142227e-02 6.142227e-02 0.9981 -1.4748 26.9174)" class="st0" preserveAspectRatio="none"/>
	<path class="st0" d="M295.8,48.3c0.3-0.2,1-0.5,1.4-0.7c-1,11.4-0.4,22.8-0.7,34.2c-0.3,10.3-0.2,20.7-0.2,31
		c-0.1,8.4,1.5,16.6,2.1,24.9c1,18,1.8,36,0.2,54c-0.3,4.7-0.2,9.4-0.6,14.1c-2.1,19.6-0.5,39.3-1.1,58.9
		c-0.5,6.1,1.3,12.2-0.1,18.2c-0.3-6.8-2.2-13.4-2.7-20.2c-1.6-12.6-1-25.2-1.1-37.9c-0.3-9.8,1.6-19.4,1.5-29.1
		c1.3-15.2,1-30.6,1.6-45.9c0.3-10.4-0.6-20.8-1.4-31.2c-0.2-13.9,0.1-27.9,0.3-41.9C295.2,67.4,294.2,57.7,295.8,48.3z"/>
	<path class="st0" d="M573.9,63.9c0.3-5.3-0.7-10.8,0.9-15.9c-0.2,7.3,0.2,14.5-0.5,21.8c0.5,4.7,0.4,9.3,0.4,14
		c-0.2,7.7,0.5,15.4,0.3,23.2c-0.6,13.6-0.3,27.3-0.2,40.9c1.1,14.3,1.7,28.7,1.9,43.1c1.2,8.6,1.1,17.3,0.7,25.9
		c1,17.9-1.1,36.1,1.9,53.9c-2.5-7.4-1.5-15.4-2.7-23c-1.7-9.9-0.4-20-1.6-29.9c0-9.3-0.7-18.7-1.9-27.9c0.1-10.1-0.9-20.1-0.3-30.1
		c0.2-15.3,1-30.7,0.8-46c0.7-11-0.3-22,0.2-33C573.9,75.2,573.5,69.5,573.9,63.9z"/>
	<path class="st0" d="M455.4,112.4c0.7,0.6,1.3,1.4,1.9,2.1c-0.4,1.1-0.7,2.3-1,3.4l-1.9-3.5c0.1,1.3,0.4,3.8,0.6,5.1
		c-2.6,3-0.7,7.6-2.7,10.7c-1.1-3.9,1.1-8.2-0.1-12.1C453,116.1,453.5,113.8,455.4,112.4z"/>
	<path class="st0" d="M454.1,135.3c1.8-2.1,3.1-4.5,5.1-6.4c-1,3.4-3.2,6.6-5.1,9.5c-0.2,3.2-2,6.2-1,9.5c-0.3-0.5-1-1.5-1.3-2
		c-0.5,1.4-0.9,3-2.1,4.1c0.6-1.7,1.3-3.4,1.9-5.1c1.2-2.8-0.2-5.7,0.2-8.6l1.1,0l-0.1-1.1L454.1,135.3z"/>
	<path class="st0" d="M405.9,136.9c0.9,6.6-0.8,13.2,0.2,19.8c0.9,10.7,0.8,21.5,0.3,32.3c-0.3,1.2-1.1,2.1-1.8,3.1
		c-0.7-11.7,0.5-23.5,0.7-35.2C404.7,150.2,406.3,143.6,405.9,136.9z"/>
	<path class="st0" d="M432,139.4c0.4,0.3,1.3,1,1.7,1.3c0,1.7-1.7,3.2-0.1,4.8c0.5,1.8,1.1,3.5,1.5,5.3c-2.3-2.4-2-6.3-4.4-8.7
		c0.6,0.1,1.7,0.2,2.3,0.3L432,139.4z"/>
	<g>
		<path class="st0" d="M380.6,172h0.6c0,4.3,0.1,8.6-0.3,12.9c-1.3,7.8,1,15.7-0.9,23.4c-0.3,0-1,0-1.4-0.1l0,0.2c0.4,0,1.1,0,1.5,0
			c-0.2,7.8-2,15.5-2,23.4c0,3-0.1,6.1-0.2,9.1c1.1,5.6,0.5,11.4,0.5,17c0.1,5,2.6,10.3,0,15c0.7,4.7,1.4,9.3,1.2,14.1
			c1.3-1.8,0.8-4.3,1.2-6.3c0.5,2.3,0.1,4.6-0.2,6.9c0.4,0,1.3,0,1.7,0c0,1.8,0.1,3.5,0.1,5.3c0.4,4-2,7.9-0.6,11.8
			c0.3-1.5,0.4-3.1,0.6-4.6c2.9,2.1-0.2,5.9,0.1,8.8c0.5,2.6-2.3,5.5,0.1,7.5c-0.2,3.3-1.1,6.5-1.6,9.7c-0.6-0.7-1.1-1.5-1.7-2.2
			c0.3,0.9,0.6,1.9,1.1,2.7c-0.5,5.1-2.1,10-2.1,15.1c1.8-3.6,3.3-7.3,5.1-10.8c2.3-8.7,6.1-17,8.8-25.6c0.1,0,0.3,0.1,0.5,0.1
			c-1,2.9-0.4,5.9-1.3,8.8c0.2,1.4,0.4,2.8,0.5,4.2l-1-0.2c-0.1,5.7-3.9,10.7-4.2,16.3l-1-0.2c0.4,2.7-2.1,4.7-1.9,7.4l-1.5-0.9
			c0.2,1,0.6,3.1,0.9,4.1l-2-2c0.2,1,0.7,2.9,1,3.9l-1.8-1.4c0.2,1.1,0.5,3.4,0.7,4.5l-1.9-1.9c0.2,1.1,0.6,3.3,0.8,4.4
			c-0.3-0.6-0.8-1.7-1.1-2.3c-3.3,6.4-5.2,14-11,18.8c-2.6,6.3-4.3,12.8-7.1,19c-2,4.3-4.1,8.5-6,12.9c0-1.6-0.8-3-2.2-3.6
			c0-0.8,0.1-2.3,0.1-3.1l2,1.9c-0.7-1.9-1.1-3.9-1.2-5.9c0.4,1.2,0.8,2.4,1.1,3.7c2.1-5.2,4.8-10.2,6.5-15.6
			c1.3-4.7,3.6-9.2,4-14.1c-5.2,10-10.4,20.1-15.6,30.1c-3.2,7.3-2.9,15.4-5.1,22.9c-0.7,3.1-1.1,6.2-1.7,9.4
			c-0.2,0.1-0.7,0.3-0.9,0.4c1.4-4,1.2-8.4,2-12.6l-1.4,0.1c-0.4,4.9-3.3,9-4.7,13.7c-2.3,10-3.5,20.2-6.4,30.1
			c-2,6.6-2.5,13.6-4.9,20.1c-0.7,1.5-0.4,3.2-0.5,4.8c-1.3,1-1.3,2.7-1.7,4.2c-1,4.9-2.5,10.2,0.2,14.9c-0.9,2-2,4.1-4.1,5.1
			c1.2,2.2,1.2,4.7,0.9,7.1c1,3.2,0.6,6.5,0.4,9.7c-0.9,1.5-2,2.7-2.9,4.1c1,1.2,2.4,2.2,2.8,3.9c-0.4,2.3-1.7,4.3-2.7,6.3
			c2.8,0.5,4.9,3.5,3.3,6.2c-2.1,3-4.1,6-5.5,9.5c-0.5,3.8,1.5,7.3,1.3,11.1c-0.2,2.4-1.9,4.3-2.8,6.5c-1.6,9.8-1.6,19.7-0.9,29.5
			c0.2,2.5-0.8,5.2-0.1,7.7c0.1-1.6-0.1-3.2,0.3-4.8c1.8-9.6,2.6-19.4,3.4-29.1c0-1.1,0.3-2.2,1.1-3c2.1,11-0.5,22.1-1.8,33
			c-0.6,6.2-1.6,12.3-3,18.4c0.2,0.7,0.6,2.1,0.8,2.7c-1.1,4.9-1.4,10-0.7,14.9c1.2,12,0.1,24,0.5,36c-0.5,10.6,0.3,21.3-0.7,32
			c-0.1-8.4-1.5-16.7-1.6-25c-0.8-9.9-0.9-19.8-2.4-29.7c-0.1,0.8-0.1,1.6-0.2,2.4c-1.7,1.3-1.7,3.4-1.9,5.3
			c-0.5,5.8-2.1,11.4-2.4,17.2c-1,5.3-1.3,10.8-3.1,16c-0.7,0.8-1.6,1.5-2.4,2.2c-0.6,10.1-3.5,19.9-5.9,29.6
			c-2.1,6.2-2.8,12.9-4.9,19.1c-1.6,4.6-2.9,9.4-4.7,13.9c-5.6,12.6-7.7,26.4-13.6,38.9c0.5,0.1,1.5,0.2,2,0.2
			c-1.4,1-0.4,4.2-2.1,4.8c0.1-0.7,0.2-2,0.2-2.7c-0.4-0.5-0.8-1-1.1-1.4c0,2.8-1.7,5-2.5,7.6c-2.1,6.4-5.4,12.3-7.8,18.6
			c-3.9,8.1-7.1,16.4-12,24c-8.1,13.1-16.1,27.2-28.6,36.7c1.3,0.4,2.5-0.6,3.7-1c6.8-3.3,13-7.7,19.2-11.9
			c-4.4,6-11.8,8.6-17.4,13.2c6.5-3.3,13.6-6.1,18.5-11.6c0.3,0,0.9-0.1,1.2-0.2l-0.7-1.3l2,1.1l-0.8-2.2l1.6,1
			c6.3-5.1,13-9.8,18.2-16.1c1.5-1.7,3.1-3.3,5-4.6c-0.3,0.8-0.8,2.4-1,3.2c4.3-3.8,9.4-6.8,13.5-10.8c7.5-12.2,14.4-24.6,20.6-37.5
			c6.1-15.4,11.3-31.2,16.8-46.8c5.6-17.8,7.7-36.4,12.5-54.3c1.4-4.3,2.5-8.7,4.5-12.7c-0.8,3.3-1.8,6.5-2.7,9.8
			c-6.3,21-6.6,43.3-13.9,64c-2.5,7.2-3.9,14.9-7.5,21.7c-2.1,4-3.3,8.4-5.3,12.4c-1,2.2-2.1,4.7-1.2,7.2c3.9-5.4,5.6-12.1,9.7-17.3
			c-2.1,5.5-4.2,11-5.4,16.9c5.5-6.9,7.6-15.7,10.9-23.7c0.4-2.1,0.8-4.2,1.5-6.2c0.1-1.6,1.5-1.9,2.8-1.6
			c6.2-12.8,11.5-26.1,18.5-38.5c0.4-1.2,0.9-2.4,1.4-3.6c0.6,2.4-1.4,4.1-2.1,6.1c-2.9,6.5-5.3,13.2-8.1,19.8
			c-4.8,12-10.5,23.5-16.4,35c0.8-0.3,2.5-0.8,3.4-1.1c-8.1,13.2-17.1,26.1-27.9,37.2c-2.2,2.5-4.5,4.9-6.4,7.6
			c4.9-2.6,8.3-7,12.4-10.6c7.1-6.9,12.8-15,18.5-23c-3,6.3-6.2,12.5-9.3,18.7c-0.6,1.1-2.1,1.1-3,1.7c-3.4,4.5-6.2,9.5-10.4,13.3
			c-5.3,5.5-10.3,11.2-15.1,17c-2.8,2.9-4.8,6.7-8.4,8.7c-2.7,2.1-6,3.2-9,4.9c-4.2,4-8.6,7.8-13,11.6c5.6-1.2,11-3,16.6-4.4
			c4-1,7.4-3.5,10.9-5.6c2.5-1.8,5.7-2.9,7.1-5.8c4.3-7.7,9-15.3,15.6-21.3c-4.9,6.6-10,13.1-13.5,20.6c3.6-3.2,7.7-5.9,11.4-9.1
			c2.2-2.1,4.2-4.3,6.6-6.2c0.7,0,2-0.1,2.7-0.2c4.8-3.7,9.7-7.3,13.2-12.2c3.2-4.9,7.8-9.1,9.7-14.8c3.6-5.2,5.7-11.2,8.5-16.8
			c0.7-1.1,0.4-2.3-0.1-3.4c-2.2,3.5-5.2,6.8-9,8.5l0.3,1c-1.4,0-2.8,0.1-4.2,0.1c0.8,1.7,0.4,3.6,0.1,5.4c-0.2-1.7-0.4-3.3-0.5-5
			c-0.3,0-1,0-1.3,0c-0.7,1.8-1.5,3.5-2.6,5.1c-2.6,3.7-3.8,8.3-6.9,11.7c1.7-2.9,3.4-5.8,4.7-8.9c3.8-5.5,5.6-12.1,10.1-17.1
			c-0.9,2.5-1.8,5.1-2.8,7.6c2.2,1,4.3-1,5.9-2.3c3.1-2.5,4.6-7.3,9.2-7.5l-1.3-2.2l1.5,0.4c0-2.3,1.9-3.9,3.2-5.6
			c-2.3,7.5-6.1,14.4-9.1,21.7c-1.2,3.5-4,6.2-5.3,9.6c-1.8,4.8-6.3,7.9-8.4,12.5c-2.1,4.5-4.7,8.8-8.4,12.2
			c-5.2,5-11.8,8.3-17.7,12.5c-5.5,3.8-11.2,7.2-16.7,10.9c17.7-5.9,35.2-13.1,50.7-23.6c-3,3.7-7.1,6-11.2,8.4
			c-14.7,8.3-30.4,14.6-46.4,19.8c-6.4,2.5-12.2,6.8-19.1,7.9c1.1,0.7,3.1,0.4,3.7,1.5c-3.2,1.4-7.1,1.4-9.9,3.9
			c0.8-2,3-2.7,4.3-4.2c-8.4-0.4-14.4,6.2-21.5,9.5l-1.9-1l0.9,1.8c-2.3,0.6-4.6,3.2-7,1.4l0.9,1.6c-1.2,0.3-2.5,0.7-3.7,1.1
			c-1.1-0.3-2.3-0.7-3.4-1l-0.2,0.8c0.6,0.3,1.9,0.9,2.6,1.2c-2-0.3-4-1-6-0.5c0.5,0.3,1.6,1,2.1,1.3c-3.5-1.5-6.9,0.7-10.2,1.7
			c-9.3,3.4-19.6,3.7-28.3,8.9c-1.6,0.3-3.1,0.7-4.6,1.2c1-0.2,2.9-0.5,3.9-0.6l-0.7,1.6c2.7,0.4,5.3,1,7.9,1.8
			c-4.6,1.2-9.2,0-13.7-0.8c-2,2.4-6.1,2.6-8.5,4.8c-0.5-0.4-1.1-0.8-1.6-1.2c-3.3,0.9-6.7,1.1-10.1,0.9c-0.1,0.3-0.4,1-0.5,1.4
			l-1.2-1.3c-3.2,0-6.5,0.3-9.7,0.4c7.1-2.2,14.7-2,22-3.8c1.8-1.7,4.3-2,6.4-3c-2.1-1.1-4.2-2.2-6.2-3.5c4.3,0.3,9.2,4.7,12.9,0.7
			c3.5-3.8,7.1-7.5,11.1-10.8c-5.6,1.6-11.6,2-16.6,5.2c1.2-1.8,2.7-3.4,4.6-4.4c8.7-4.8,18.8-6,27.9-9.8c5.1-2,10.1-4.2,14.7-7.1
			c9.5-7.3,17-16.9,23.1-27.1c-1.4,0.1-2,1.5-3.1,2.2c0.7-1.3,1.7-2.5,2.6-3.6l0.5-0.6l0.5-0.7l1.6,0.8l-0.5-2
			c2.1-3.6,3.8-7.4,5.6-11.1l1.7,1c-0.9-3,1.7-5.7,3-8.2c5.2-6.8,7.6-15.2,11.4-22.8c1.8-3.9,3-8,4.7-11.8c1.2-2.5,0.9-5.7,3-7.7
			c-0.5,0-1.6-0.1-2.1-0.1c0.4-0.5,1.3-1.5,1.7-2c0.1-1,0.4-3,0.5-4c0.7,1,1.3,2.1,2.1,3.1c-0.1-0.7-0.5-2.1-0.6-2.8
			c0.3-0.1,0.9-0.4,1.3-0.5c2.2-7.6,4.4-15.2,6.9-22.6c4.6-11,8.5-22.3,10.9-34c3.5-11.9,7-24,8.1-36.4c-1.3,3.7-2.9,7.4-4.7,11
			c-3.2,8-3.8,16.8-6,25.1c-2.6,9.5-5.6,19-9.8,28c-1.2,2.4-1.4,5.1-1.7,7.8l-0.9-0.3c-0.1,0.6-0.2,1.8-0.2,2.4
			c0.3-0.1,0.9-0.4,1.2-0.5c-1,1.3-0.8,2.9-0.8,4.5c-0.5-1.1-1-2.1-1.6-3.1c0.1,0.6,0.3,1.8,0.4,2.5c-1.5,1-1.6,3-2.3,4.6
			c-5.5,13.2-9.6,27-16,39.9c-8,15.8-16.2,31.5-24.3,47.2c1.2-0.7,2.4-1.4,3.6-2.1c-5.5,5.1-10,11.4-16.8,14.9
			c-5.9,2.9-10.8,7.5-16.8,10.5c0.9-2,3.4-2.5,4.6-4.3c-4.6,1-9.3,1.8-13.5,3.9c-1.6,0.1-3.3-0.1-4.8,0.8c-1.9,1.1-4.1,0.4-6.1,1.1
			c-3.2,1.3-6.7,2-9.9,3.4c-7.5,0.7-15,1.2-22.5,0.7c0.5-1.9,2.5-2,4-1.8c2.9,0.1,5.8-0.7,8.7-0.8l-0.3-1.1c2.2,0,4.4,0.1,6.6,0.5
			c-4.9-2.2-10.1-0.6-14.8,1.1c-2-0.5-4.1-0.6-6.2-0.8c0.9-2.5,4.3-0.9,6.3-1.3c0.5-0.3,1.4-1,1.9-1.4c2.8,0.2,5.5-0.6,7.9-1.8
			c-3.8,0.2-7.6-0.1-11.4,0.1c-2.1,0.6-3.7,2.2-5.1,3.8c-10.3,4.7-19.2,12.7-30.4,15.5c8.4-3.9,15.7-9.6,24-13.7
			c-1.9,0.3-3.9,1.1-5.8,0.1c-6.1,1.7-11.8,4.9-18.3,4.8c-15.8,1-32.7,2.5-47.4-4.6c-7.1-4.8-12.4-11.7-17.7-18.3
			c-5.3-7.5-9-15.9-12.8-24.1c-2-3.8-3.9-7.8-5.1-12l-0.3-0.5c-0.1-0.6-0.3-1.8-0.4-2.5c-3-7.1-6.6-14.3-6.8-22.1
			c0.6,3.4,1.5,6.7,2.5,9.9c1.1,4,3.5,7.5,4.5,11.6c0.2,0,0.7,0,0.9,0c0.2,0.6,0.7,1.7,0.9,2.2l0.3,0.6c0.6,4.4,2.8,8.4,5.1,12.1
			c1.5,2.5,2.4,5.4,4.4,7.6c4.4,4.8,7,10.9,11.3,15.8c4.4,5.2,8.8,10.6,14.2,14.8c2.8,2.2,6.6,2.4,9.8,3.7
			c9.3,3.1,19.2,2.6,28.8,2.3c8.8-0.7,18-0.4,26.4-3.9c7.9-1.9,13.9-8,21.5-10.6c4.2-1.2,6.9-5.1,10.9-6.7c0.2,0.3,0.7,0.9,1,1.2
			c3.8-3.1,8-5.7,11.5-9.3c5.5-5.1,9.8-11.4,15.4-16.3c-2.7,4.5-4.9,9.4-8.3,13.4c-5.9,7.3-14,12.5-22.2,16.8
			c-4.2,1.3-7.6,4-10.9,6.8c8.3,1.1,14.8-5.2,21.2-9.5c6.6-3.7,11.3-10,17.9-13.6l-2-0.9c0.6,0.2,2,0.5,2.6,0.7
			c-6,4.4-10.6,10.4-16.9,14.4c-1.4,0.9-2.9,1.8-4.1,3c-2.5,2.4-6,3.2-8.3,5.8c4.2-0.5,8.6-1.1,12.4-3c5.2-2.4,9.5-6.3,14.3-9.5
			c4.1-2.5,7.4-6,10.7-9.4c0.9-1.2,2.3-1.5,3.7-1.4c1.7-1.8,3.2-3.7,4.9-5.4c-1.6,4.2-4.1,8.2-7.5,11.1c-2.3,2.1-5.2,3.5-7.2,5.9
			c5-2.7,9.5-6.2,14.2-9.5c-0.5,0.9-1.6,2.6-2.1,3.5c1.4-0.6,5.1-3.5,4.9-0.4c-4,5.4-10.7,8.1-14.6,13.4c-0.4-0.1-1.1-0.2-1.4-0.3
			l0.8,1.4l-1.3,0.1c-0.5,0.4-1.4,1.3-1.9,1.7c0.3-0.1,0.8-0.3,1-0.4c2.4-1.5,5.3-2.6,7-5c1.9,2.7-1.5,3.2-3.1,4.6
			c3.1-1.5,8.2-1.2,8.9-5.6c0.6,0.7,1.1,1.4,1.7,2.1c0.9-1.3,2.3-2.4,2.3-4.1c0.6,0.8,1.1,1.6,1.6,2.5c2.1-1.8,3.3-5.2,6.3-5.6
			c0,0.5,0,1.6,0,2.2l0.3-1.6c6.8-2.8,9.1-10.6,12.4-16.5c-3.6,5.5-7.2,11.1-11.9,15.8c-0.2,0-0.6,0.1-0.8,0.1
			c0-0.5,0.1-1.4,0.1-1.9c0.1-1,0.1-1,0,0l-1.2-0.4l1,2.2l-1.7-0.9c-1.2,1.3-2.5,2.5-3.4,4.1c-0.5-0.4-1-0.9-1.5-1.3
			c3.6-2.6,6.4-6,9.1-9.5c6-5.9,11.3-12.7,14.6-20.5c8.9-22.3,17.4-44.7,24.5-67.6c3.8-7.6,8.7-14.7,11.7-22.7
			c0.4-0.1,1.1-0.3,1.5-0.4c0.9-2,1.8-3.9,2.7-5.8c1.5-0.1,3.2-0.4,4-1.9c0-1.9-1.7-1.4-2.9-1.3c0.4-1.4,1.3-4.1,1.7-5.5
			c0.7,1.7,0.9,3.5,1.5,5.2c2.1-8.1,5.5-16,6.5-24.3c-2.1,3-3.1,7.3-3,11.1c-0.5,0.1-1.4,0.4-1.8,0.5c1.3-7.3,4-14.3,6.3-21.3
			c1.6-5.4,2.6-11,4.6-16.2c-0.1,1.3-0.1,2.5-0.2,3.8c2.8-1,2.2-4.5,2.8-6.8c2.3-11.3,4.5-22.7,6.7-34c1.1-8.6,2.4-17.1,4.3-25.5
			c-0.6,0.3-1.7,1-2.3,1.3c-0.3-0.7-0.8-2-1-2.7c-1.2,5.7-2.3,11.5-4.3,17c1-11.1,3-22.1,4.2-33.2c2.3-18.9,1.3-37.9,2.3-56.9
			c0.2-10.1,2-20.1,2.5-30.2c-0.3-0.2-1-0.5-1.4-0.7c-0.2-3.1,0.1-6.2-0.2-9.3c-2.1,4.1-4.6,7.9-7.6,11.4c1.1-1.8,1.5-3.8,2.1-5.8
			c1.3-2.7,2.8-5.3,3.4-8.3c-2.4,2.6-3.8,6.1-6.9,7.9c-3.4,10.4-6.1,21.1-8.6,31.8c-0.7,9.5-3.8,18.6-8,27.1c0.8-3.9,1.2-8,2.6-11.8
			c0.8-2.4,1.9-4.7,2-7.2c-0.9,0.9-1.2,2.2-2.1,3c-0.3,1.7-0.6,3.3-0.7,5c-0.7-0.1-1.5-0.3-2.2-0.4c-0.6,2.5-1.8,4.9-2.9,7.3
			c0.6-0.3,1.9-0.9,2.6-1.2l-0.9-2l2-0.9c-0.1,2.8-2.3,4.4-4.4,5.8l0.9,3c-0.8-0.5-1.6-1.1-2.2-1.9c-0.4,1.3-0.1,3.1-1.3,4l-0.8,0.3
			l-0.8,0.4c-2.4,4.3-3.5,9.4-5.1,14.1c2.9-4,5.3-8.3,6.7-13c0.7-0.5,1.2-0.2,1.5,0.8c-2.6,5.6-5.6,11-9,16.2
			c-4.4,6.3-3,15.3-8.9,20.7l0.9-3c-1.9,0.5-1.1,5.5-3.9,3.2c2.2-3.1,3-6.9,4.7-10.2c0.9-1.6,1.5-3.2,1.6-5
			c-3.4,7.4-6.6,14.9-10.2,22.2c0.6,0.6,1.2,1.2,1.9,1.9c-0.7,0.2-2.2,0.6-2.9,0.8c-1.7,3.5-3.3,7.1-5.3,10.4
			c-2.8,5-7,9.1-10.3,13.8c1.8-7,6.3-13,9.2-19.5c4.4-13.4,9.5-26.6,15.3-39.5c3-7.1,4.9-15.1,10.5-20.7c1.1,1.4,2.2,1.4,3.5,0.2
			c3.3-7.2,7.7-13.9,10.3-21.5c0.1-1.7-0.2-3.4,0.1-5c1.7-5.5,2.4-11.2,4.5-16.6c2.5-7.8,6.7-14.8,9.4-22.4c1.9-2.3,3.9-4.8,6.8-6
			c2.9-3.5,4.3-8.4,8.2-11.1c1.7-2.1,2.2-5,3.7-7.4c2.2-3.6,2.5-7.8,3.6-11.8c0.5-0.3,1.4-0.8,1.9-1.1c-0.3,5-2.2,9.8-2.7,14.8
			c0.6-0.2,1.8-0.7,2.4-0.9c4-11.7,5.9-24,10-35.7c2.4-7.2,3.2-14.8,5.6-22.1c1.6-5.2,4.4-10,5.2-15.5l1.3,0.4
			c-0.2-0.8-0.6-2.3-0.8-3c0.6,0.8,1.1,1.5,1.6,2.3c0.1-9.8,3.7-19.2,3.1-29c1.2-7,2-14.1,3.1-21.1c-0.2-2.2-0.8-4.5-0.6-6.7
			c0.5,1.3,1,2.6,1.3,3.9c0.5-3.2-0.7-6.3,0.3-9.4c0.4-0.1,1.1-0.2,1.5-0.3c0.3,0.6,0.8,1.9,1,2.5c0.7-3.2,1.5-6.6,0.9-9.9
			c-0.5-2.4,0.8-4.8,0.7-7.2c0.6-8.7,0.1-17.4-1.1-26c-0.6-4.6-0.6-9.3-0.2-13.9c0.9,2.2,0.7,4.7,0.9,7.1c0.1,6.1,1.6,12.1,2.1,18.1
			c0.5-0.5,1.5-1.5,2-2.1c0,0.9,0.1,2.7,0.1,3.5c1.9-0.7,1-3.1,1.2-4.6c0-2.2-0.1-4.4-0.3-6.6c0.5,0,1.5,0.1,2,0.1
			c-0.3-0.1-0.9-0.3-1.2-0.4c-1.2-2.6-1.8-5.4-1.5-8.4c0.4,1.7,1.3,5,1.7,6.6l1.1-0.8c1.1-5.4-0.4-11.2,2.4-16.2
			c0.8-4.9,2.5-9.7,3.4-14.6c3.3-4.4,2.5-10.6,2.8-15.8c2.8-5.5,0.6-12.2,4.1-17.5l0.3-1.2c0.6-2,0.8-4.1,0.9-6.2
			c-0.4,2.3-0.9,4.6-1.9,6.7c-0.4-0.1-1.1-0.4-1.5-0.5c0.9-8.4,0.5-16.9,2.2-25.1c0.8-3.7,1.6-7.4,1.7-11.2
			C377.1,195.1,381,183.7,380.6,172z M375.8,250.1c-1.5,3.6,0,7.8-2,11.3c-1.3,2.2,0.8,4.6-0.1,6.9c-0.7,2.7-1.2,5.5-0.8,8.3
			c-0.4,0.2-1.3,0.7-1.8,0.9c0,1.3,0,2.6,0,3.9l-1.4-0.4c-0.4,6.6-1.3,13.2,0.2,19.8c-1.5-2.1-1-5-2.4-7.1
			c-0.7,9.9,0.8,19.8,0.7,29.7c-1.6-0.6-1.3-2.2-1.4-3.5c-0.2-3.1-0.1-6.2-0.5-9.3c-1.5,2-1.4,4.9-2.1,7.3c-1,3.7,0.5,7.4-0.4,11
			c-0.6,6.6,0.3,13.3-1.2,19.8c0.2-6.1,0.1-12.5-1.9-18.3c-3.4,5.2-2.8,11.7-3.9,17.5c-0.5,6.2-3.8,11.7-4,17.9
			c-0.5,6.7-2.4,13.3-2.4,20.1c3.7-5.4,4.9-12.1,5.5-18.5c0.2-0.2,0.6-0.5,0.8-0.6c0.1,0.8,0.1,2.3,0.2,3.1c2.5-2.6,3.2-6.5,5-9.6
			c1.6-2.7,2.2-6.4,5.2-7.9c1.4-4.5,2.2-9.1,3.2-13.6c1.9-8.4,4.4-16.6,6.1-25c0.6,0.7,1.2,1.3,1.9,2c-0.2,5.1-2.9,10-2.4,15
			c1.2-4.6,2-9.3,4.1-13.5c-2.6-5,2.1-10.4-0.3-15.6c-0.4,4.5-1.1,9-1.5,13.5c-1.8-2.4-1.2-5.6-1.9-8.4c2-11.3,1-22.8-0.7-34
			c0.3-1.7,0.8-3.3,0.5-5c-0.8-5.9-1-11.9-0.2-17.7L375.8,250.1z M354.7,396.5 M313.9,501.2c0.2,1.6-0.9,4.4,1.5,4.8
			c0.1-1.7,0.2-3.5,0.4-5.2c0.6-1.4,2.2-2.1,2.8-3.5C316.5,497.8,314.1,498.7,313.9,501.2z M304.7,506 M313.4,520.6
			c-0.1,6.4,0,12.8-0.1,19.2c0.2,1.7-2,2.4-1.5,4.1c-0.2,27.8-4.6,55.3-5,83.1c1.6-4.9,2.2-10,3.5-15c0.3-3,0.5-6.3-1.1-9l1.3-0.7
			c0.1-4.2-0.8-8.3-0.6-12.5c-0.3-8.8,1.2-17.5,2.5-26.2c0.3,0,1,0.1,1.3,0.1c0.1,0.6,0.4,1.7,0.6,2.2c-0.7-4-1.2-8-1.2-12
			c1.2-2.6,1-5.9,3.3-7.9c0-1.2,0-2.5,0-3.7c-0.5-0.1-1.5-0.4-2-0.5c-1.4-3.5,2.1-6.2,3.4-9.1c-3.8-1.7-2.9-6.7-0.4-9.2
			c-0.6-2.5-1.1-5.2-0.4-7.8c0.1-1.4,1.3-3.4-1.1-4C315,514.6,315.4,518.1,313.4,520.6z M305.1,658c-1,9.1-3.6,17.9-5.4,26.9
			c0,2.4,0.2,4.7,0.2,7.1c1.3-3.5,1.3-7.2,2.1-10.9c2.2-8.2,2.7-16.7,4.1-24.9C305.6,656.7,305.3,657.3,305.1,658z M276.5,746.3
			c-1.1,5.1-4.5,9.2-6.9,13.7c-2.6,6.5-7.7,11.9-9.2,18.9c-6,18.1-12.3,36.2-19.6,53.9c-0.8,1.6-1.2,3.4-1.3,5.2
			c3.2-5.4,5.6-11.2,8.7-16.7c5.4-9.8,9.1-20.2,13.4-30.5c2.8-7.1,6.4-13.8,8.9-21c-0.9,0.6-2.6,1.9-3.5,2.5
			c1.1-3.9,4.5-6.7,5.8-10.5c1.6-4.8,3.3-9.5,5.3-14.1C277.6,747.3,277,746.8,276.5,746.3z M307.7,849.9c-3.5,1.7-5.6,5.1-8.3,7.8
			c7.8-4.6,16-9.6,20.8-17.6C316.2,843.6,312.2,847.1,307.7,849.9z M260.8,868.3c-7.2,6-16.3,9.2-23.3,15.6
			c9.5-4.2,17.8-10.7,26.3-16.6c0.2-0.3,0.6-0.9,0.8-1.2C263.3,866.7,261.9,867.3,260.8,868.3z M251.7,887l0.2,0.8
			C254.5,888.8,253.6,885.6,251.7,887z M214.5,890.2c0.3,0.6,0.5,1.3,0.8,1.9c1.4-1.9,4.4-1.7,5.3-4
			C218.6,888.9,216.7,890.6,214.5,890.2z M230,890.6c-1.6,1.4-3.5,2.5-5.5,3.2c4.5-1.6,9.1-3.1,13.1-5.7
			C234.9,888.4,232,888.6,230,890.6z M211,892.2c-4.4,1.9-9,3.8-12.8,6.8c2.8,0,5.5-1.3,8.3-1.1c-0.1,0.2-0.4,0.7-0.6,0.9
			c-4.5,1-9.1,1.8-13.6,2.9c-4.1,2.2-8.4,4.1-11.6,7.5l0.5-3c-0.8,0.9-1.5,1.8-2.2,2.8c-1.6,0.6-3.1,1.7-3.7,3.3
			c1-0.6,2.1-1.1,2.6-2.2c3.2,1.1,6.3-1.9,9.2-3.2c1.9,0.2,3.7-0.7,5.4-1.4c4.1-1.8,8.3-3.3,12.4-5.1c1.4,0.4,2.7,0.9,4.2,0.9
			c-1-0.6-2-1.1-3-1.6c0.7-0.2,2-0.4,2.7-0.6c-0.1-0.4-0.4-1.2-0.5-1.6c1.9-1.4,4.4-2.1,6.3-3.6l-3-0.5l2.5-1.2
			C213.1,892,212,891.6,211,892.2z M222.5,898.6c2.2,0.6,4.1-0.9,5.9-1.9l0-0.7C226.5,896.9,224.5,897.8,222.5,898.6z M219.6,900.1"
			/>
	</g>
	<path class="st0" d="M504.8,179.9c1.7,4.4,2.2,9.2,3.2,13.8c1.1,5.2,2.7,10.2,4.2,15.3c0.2-0.9,0.6-2.7,0.8-3.5
		c0.9,10.5,3,21.2,0.9,31.6c-2.9-2.8-0.6-7.4-2.8-10.6c1.2-4.2-0.1-8.4-0.6-12.6C508.5,202.6,505.6,191.3,504.8,179.9z"/>
	<path class="st0" d="M642.1,197.9c-0.1-1.1,0.3-2.1,0.8-3c0.9,4.2,0.4,8.6,0.9,12.8c1.1,9,0.8,18,2.2,27c1,9,2.4,18.1,1.5,27.2
		c-0.2,10.3,0.3,20.7,1.4,30.9c0.2,11,1,22,0.6,33c0,8.3-0.2,16.7,0.3,25c0.2,4.7,0.9,9.3,0.7,14c-0.2,8.1,1.4,16,2.9,23.9
		c0.6,5.3,0.2,10.7,0,16c-3.5-4.7-1.2-10.8-2.5-16.1c-1.9-9.2-3.2-18.5-3.5-27.8c-2.4-12.5-1.7-25.4-1.6-38.1
		c0.6-17.6,0.8-35.3,0-52.9c-0.4-8,1.3-16,0.1-23.9c-0.6-8.4-2.4-16.8-2.5-25.2C643.1,213.1,641.7,205.5,642.1,197.9z"/>
	<path class="st0" d="M366.1,212.3c0.1,0,0.4,0,0.6,0c0.3,4.6,0.1,9.2,0,13.7c2.1,7.2-1.3,14.5-0.9,21.8c0.3,10.3,0,20.5,0.3,30.8
		c-1-0.2-1.9-0.3-2.9-0.5c-0.8-5-0.3-10.1-0.4-15.1l-1.5,0.1c-0.1,0.9-0.4,1.8-1,2.6c-1.6-3.6-0.5-7.5,0.1-11.1
		c1.1-3.7,2.6-7.3,2.9-11.2c0.8-2.4,0.6-5,0.5-7.5l1.3,0.1c-0.3-0.1-1-0.2-1.3-0.3c0.7-2.5,1.3-5,1.4-7.6c-0.5,0.9-1.2,1.6-2.3,1.3
		c1.8-5,1.6-10.4,1.7-15.6l1.7,0.7C366.2,214,366.1,212.9,366.1,212.3z"/>
	<path class="st0" d="M515.9,241.9c0.5-9.8,0-19.7,2.1-29.3c0.9,4.1,0.5,8.2,0.3,12.3C517.6,230.6,517.4,236.4,515.9,241.9z"/>
	<g>
		<path class="st0" d="M510.6,227.7c1.8,3.4,0.2,7.5,0.7,11.2c0.8,5.8-2.8,11.7-0.3,17.3c3.1,7.3,3.5,15.6,7.7,22.4
			c0.1-6.3,0.9-12.6,0.7-18.9c0.4-6.8-0.9-14.4,2.8-20.6c0.2,3.9-1,7.6-0.9,11.5c0.2,11.7,1.1,23.6-0.6,35.2c1.6,2.1,3,4.3,4.3,6.7
			c-3.1-9.1-1.2-18.7-0.2-28c0.2-1.4,0-3.2,1.4-4c0.8,7.8-1.1,15.5-0.7,23.2c0.3,4.4,1.7,8.7,2.2,13c-0.5,0-1.5,0.2-2,0.2
			c1.1,2,2.3,4,3.9,5.6c-0.5-5.9-1.8-12-0.5-17.9c0.3-0.3,0.8-1,1.1-1.3c0.3,4.1,0.2,8.1,0.7,12.2c0.9-7.3,0.1-15.1,3.3-22
			c-2.1,10.2,0,20.7-0.9,31c-0.8,2.3,3.1,5.6-0.2,6.8c-1.6,15.7,0.2,31.5-0.1,47.2c0.5,8,0.9,16,1.1,24c2.1,4.2,3.2,9,6.3,12.6
			c-0.8-0.1-2.4-0.3-3.2-0.4c1.2,1.5,2.9,2.3,4.5,3.2c0.9,0,1.7,0,2.6,0.1c-0.3-1.8-0.9-3.6-1.3-5.4c-0.2,1.2-0.5,2.5-0.8,3.7
			c-2.5-1.9-1.9-6.2-3.8-8.7c0-1.5,0.1-3,0.4-4.4c0.8,2.3,1.1,4.7,1.8,7c1.4-2.1,0.3-4.5,0.4-6.8c2.3,5.7,2.6,12.5,6.5,17.5
			c-1,0.6-2.3,0.4-2.4-1c-1.6-2.2-0.5,0.8-0.4,1.7c0.8,0,2.3-0.1,3.1-0.1l-2.2,1.8c0,0.5,0,1.6,0,2.1c0.6-0.9,0.5-2.7,1.6-2.8
			c2.8,6.6,3.5,13.9,5.9,20.6c2.6,2.4,2.1,6.1,3.4,9.2c2.1,5.2,3.6,10.7,5.6,16l-1.5-0.6c-0.2-0.6-0.5-2-0.7-2.6
			c-0.2,2.9,0.5,6.4,2.6,8.5c-0.4-1.9-1.1-3.7-1.7-5.5c2.8,1.1,2.2,4.8,2.6,7.2c1.9,5.8,1.8,12.1,4.7,17.5
			c3.3,6.4,8.2,11.8,10.8,18.5c1.7,4.2,0.7,8.8-0.4,13.1c-1.4-3.6-1.3-7.6-3-11.1c-1.4-2.9-2.9-5.7-4.8-8.3
			c-2.9-1.6-2.8-5.3-4.8-7.7c-2.7-7-5.7-13.9-8.3-20.9c-1.7-3.7-2.8-7.8-5.7-10.8c-0.8-3-3.2-5.1-4.3-7.9c1.5,0.4,2.6,1.6,3.8,2.7
			c-0.2-3.1,0.5-6.4-0.8-9.4c-1.2-2.4-0.4-5.1-1-7.6c-1.4-5-3-9.9-5.2-14.5c-3.5-6.1-7.9-11.8-10.7-18.3c0.3,1.5,0.3,3,0.1,4.5
			c-0.5-0.3-1.5-0.9-2-1.2c-3.3-6.1-5.2-13-10-18.3c-1.7-3.9-2.2-8.2-3.7-12.1c-1.6-6.3-6.7-10.9-8.5-17.1
			c-1.5-5.7-3.9-11.1-5.4-16.8c-1.4-5.5-5.1-10.4-5.2-16.2c-0.2-2.2-0.6-4.4-0.3-6.6c-1.1-1.1-2.3-2.2-3.5-3.2
			c0.5-1.2,1.1-2.3,1.9-3.4c-1.9-2.8,0-5.8-0.4-8.8c2.5-3.4,1.9-7.7,3.1-11.6c-2.3,2.9-2.8,7-6,9.1c-0.7,1.9-2,3.5-3.3,5
			c0.5,1,1,2.1,1.3,3.1c-1.2,1.6-2.6,2.9-3.6,4.6c2.3-1.5,3.9-3.9,6.6-4.8c-0.4,2.7-3.9,3.6-3.9,6.4c0.7-0.3,2-1,2.7-1.3
			c-0.3,0.8-1,2.5-1.3,3.3c0.6,0,1.7,0,2.2,0c-2.8,4.6-5.7,9.1-9,13.3l-0.1-3c-0.7,1.1-1.6,2.2-2,3.5c-0.9,1.2-2.1,2-3.4,2.6
			c0.4,0.3,0.9,0.6,1.4,0.9c0.8-1.4,1.5-3,3-3.8c0.9,0,1.9,0.2,2.4-0.7c2.3-2.8,4.5-5.9,7.6-7.9c-0.1,1.4-0.5,2.7-1.3,3.9l1.2,0.8
			c-1.5,3-4.2,5.3-5.2,8.5c-2.9,5.3-6.7,10-10.1,15c-1.1-0.1-1.3-1-0.8-1.8c1.1-2,2.6-3.6,3.8-5.5c0.2-2.1,1.2-3.9,2.1-5.7
			c-0.1-1.8,1.1-3.1,2-4.4c-0.4,0-1.1-0.1-1.5-0.2l0.3,1.5c-1.2,0.8-2.3,1.6-3.4,2.5l0.4-1.4c-1.1-0.1-2.2-0.3-3.2-0.4
			c1.9-3.7,5.2-6.5,6.9-10.4c-1,1-2.1,1.3-3.3,1c0.4-1.9,2-3.2,2.9-4.8c-1.3,1-2.5,2.6-4.4,2.1c-2.1,2.2-4.4,4.3-6.8,6.2
			c-0.3-0.1-1-0.4-1.3-0.6c3.4-4,7.1-7.8,11-11.4c0.5-0.8,0.9-1.6,1.3-2.4c-1.4,1.1-2.6,2.4-3.8,3.7c-3.1,0.9-5.2,3.6-7.8,5.4
			c-4.3,2.9-7.5,7.5-12.5,9.2c-0.1-1.2,0.2-2.3,1-3.2c-1.2,0.4-4,2.1-4-0.3c1.8-1.4,4-2.2,5.8-3.6c3.4-5.7,9.7-8.9,14.1-13.8
			c4.4-3.7,8.2-8,11.8-12.4c4.5-7.5,8.3-15.4,12.8-23c-1.7,1.3-3.3,2.8-4,4.9c-3,6.8-8.2,12.3-12.9,18c-4.1,5.1-8.4,10.1-13.3,14.4
			c-2.9,0.4-4.2,3.5-6.5,4.9c-3,1.9-5.4,5.4-9.2,5.5c4.1-3.5,8.8-6.3,12.6-10c9.6-7.2,16.3-17.2,23.6-26.5
			c3.5-4.2,4.3-10.5,9.7-13.1c0.1-1.7,0.2-3.5,0.5-5.2c0.4,1.4,0.7,2.8,1,4.2c1-4,2.4-8,2.7-12.2
			C507.3,242.3,509.2,235.1,510.6,227.7z M503.9,281.7c-1.2,2.6-1.8,5.3-2.5,8c0.5,0.5,1.4,1.6,1.9,2.2c-0.8,1.5-1.6,2.9-2.4,4.3
			c0.5,2.2,0.8,4.4,0.4,6.6c2.5,4.8,0.7,10.6,2.9,15.5c2,4.5,3.2,9.3,5.9,13.4c-0.4,0.2-1.1,0.5-1.4,0.7c1.9,3.5,2.4,7.5,3.4,11.4
			c1.1,4.8,3.9,8.9,6.4,13.1c0.3-2.5-0.9-4.7-1.8-7c-2.1-5.2-3.9-10.6-6.8-15.5c0.4-0.1,1-0.2,1.4-0.3c4.9,9,7.4,19.2,13.1,27.8
			c3.1,4.5,5.3,9.6,6.8,14.9c0.1-4.4-0.3-8.8-0.6-13.2c-2.1-10.5,0.2-21.3-1.3-31.8c-0.9-5.1-0.1-10.2-1.1-15.3
			c0.6-1.1,1.1-2.3,1.8-3.4c-0.3-2.5,0.7-5.6-1.2-7.6c-3.6-3.6-6.2-8.3-7.1-13.4c-1.2-2.8-3.5-5-4.6-7.8c-4.4-4.9-4-11.9-6.5-17.6
			c-0.8-1.8-1.1-4.1-3.3-4.7C505.5,268.5,505.4,275.2,503.9,281.7z M519.6,358.5c2.7,7.2,3.8,15.2,8.8,21.4c1.5,1.2,0.9,4.1,2.9,4.6
			c-1.4-3.9-3.3-7.5-5.4-11.2c0.7-5.4-4.5-9.3-5.1-14.4C520.5,358.9,519.9,358.6,519.6,358.5z M541.5,391.1l-0.5,0.5l0.4,0.9
			l0.9,0.1l0.4-0.8C542.4,391.5,541.8,391.2,541.5,391.1z M540.7,400"/>
	</g>
	<path class="st0" d="M362.1,230.8c0.6-0.2,1.9-0.6,2.5-0.8c-0.8,3.7-2.4,7.1-1.3,11l-1.4-0.7c0,1.8,0,3.6,0.2,5.3l-1.7-0.6
		c0.2,0.9,0.7,2.8,0.9,3.7l-1.4-0.5c-0.4,2.1-1.5,4.1-1.2,6.2l-1.8,0.2C357.9,246.5,361.3,238.9,362.1,230.8z"/>
	<path class="st0" d="M488.1,237.4c0.7-2,1.2-4.2,2.9-5.6c-0.9,2-1.8,3.9-2.4,6c-2.9,11.4-7.3,22.3-10.7,33.6
		c-1.2,3.2-2.3,6.4-3.7,9.5c-3.4,6.2-8,11.8-11.5,18c-0.9,1.7-2.4,2.9-4.1,3.8c-0.2-1.9,1.6-2.8,2.4-4.1c3.8-6.4,8.5-12.3,12.3-18.8
		c2.1-4.5,4-9.2,5.3-14C482,256.4,485.4,247,488.1,237.4z"/>
	<path class="st0" d="M237.7,276.6c1.6,3.5,1.4,7.5,1.6,11.3c-0.1,10.9,4.1,21.2,4,32.1c0.2,5.9-1.1,11.6-1.7,17.5
		c-0.1,0-0.3,0-0.4,0c-1.4-9.5-2.2-19-1.8-28.6C239.2,298,238.3,287.3,237.7,276.6z"/>
	<path class="st0" d="M371.9,279c0.5-0.7,1-1.3,1.6-2c-0.4,3,0.8,6.2-0.4,9C372.5,283.7,372.3,281.4,371.9,279z"/>
	<path class="st0" d="M617.9,293.7c2.4,2.7,2,6.8,2.5,10.2c-0.1,9,0.8,18,1.3,27c1.4,9.6,2,19.5,1.5,29.2c-1.5-2.1-1.5-4.8-1.8-7.2
		c-0.2-5.9-0.6-11.7-1.2-17.6C618.1,321.5,620.5,307.4,617.9,293.7z"/>
	<path class="st0" d="M604.9,323.8c-0.3-5.4-1.2-10.9,0.1-16.2c0.7,4,0.5,8.1,0.9,12.1c0.4,3.8,0.7,7.6,0.1,11.3
		C604.8,328.9,605.2,326.2,604.9,323.8z"/>
	<path class="st0" d="M546.5,308.6c0.8,0.5,1.4,1.1,1.7,2.1c2.2,5.4,2.5,11.3,4.7,16.7c0.8,2.9,3,5.6,2.1,8.8
		c-0.7-0.6-1.2-1.3-1.4-2.2C550.5,325.8,548.9,317.1,546.5,308.6z"/>
	<path class="st0" d="M558.6,312.8c2.9,6,4.8,12.5,5.7,19c0.8,4.6,1.2,9.4,2.7,13.9c-2,0.2-1.8-2.3-2.3-3.6
		c-0.7-5.4-1.2-10.9-2.2-16.3C561.6,321.3,559.8,317.1,558.6,312.8z"/>
	<path class="st0" d="M432.3,314.1c2.2,0,4.1,1,6,2l-0.4,0.7C436.1,315.9,434.1,315.1,432.3,314.1z"/>
	<path class="st0" d="M326.8,335.1c5.6-4.6,8.4-11.5,12.5-17.2c-1.6,5-4.3,9.5-7.2,13.9c-2.4,3.1-5.7,5.4-8.2,8.5
		c-5.4,5.8-8.4,13.3-12,20.2c-5.6,10.4-6.9,22.5-11.3,33.4c-1.5,0.2-2.2-0.4-2.1-1.9c0.2-2.7,1.1-5.2,1.7-7.8
		c-0.9,0.8-2.3,0.4-1.6-1c2-4.5,4.3-8.9,5.9-13.5c0.2-1.5,1.8-1.7,2.8-2.2c1.9-5.4,4.9-10.3,7.3-15.5
		C317.6,345.7,321.6,339.8,326.8,335.1z"/>
	<path class="st0" d="M498.5,316.9c0.4,0.8,0.8,1.6,1.3,2.4l-0.6,0.1c-0.7,3.9-3.4,6.9-4.9,10.5c-1.5,3.9-4.6,7-5.5,11.1
		c2.2-1.7,3.7-4.5,6.6-5.1l0.7,1.2c-2.4,2.8-4.3,5.9-6.6,8.8c-3.8,4-8.3,7.3-11.6,11.7c2-4,5.7-7.2,8.6-10.6
		c1.2-1.5,0.3-3.3-1.6-3.5c1.7-2.4,2.4-5.3,2.7-8.2c-1.4,1.3-2.7,2.8-3.6,4.6c-3.2,6-7.6,11.2-12.4,15.9c0.8-2,1.5-4.2,3.1-5.7
		c0.9-0.7-0.1-1.8-0.2-2.6c0.9-1,1.7-2.2,3-2.6l-2,3.2c2.7-1.8,4.4-4.6,6.4-7c3-5.2,7.4-9.3,9.7-14.9c-0.2-0.4-0.6-1.2-0.8-1.7
		C494.7,323.9,495.5,319,498.5,316.9z"/>
	<path class="st0" d="M349.3,326.9c1.5,4.6-0.4,9.6-2.2,14c-3.2,7-3.1,15-6,22.1c-0.7,8-4,15.4-5.9,23.2c-1.6,6.4-5.1,12.2-5.9,18.9
		c-0.7,6.7-3.5,12.9-5.1,19.4c-2.3,3.1-3.2,6.9-5.1,10.1c-4.1,8.3-9,16.6-10.1,25.9l-1-0.2c0,0.6-0.1,1.9-0.1,2.6l-1.1-1.2
		c0.2,3-1.5,5.7-2.8,8.2c0.8-5.8,3.5-11.2,4.6-16.9c1.9-5.4,3.9-10.7,5.5-16.2c1.4-4.8,5-8.8,5.6-13.8c0.1-2.4,1.5-4.3,2.5-6.4
		c-0.6-1.5-0.5-3,0.3-4.6l-1.7,0.5c0-0.3,0-0.8,0-1.1l1.5,0.6c2.5-13,5-26,7.4-39c0.5,0.7,1,1.5,1.5,2.2c-0.9,4-1.1,8.1-1.9,12
		c-0.1,0.9,0.6,1.6,0.9,2.4c0-1.2-0.1-2.3-0.2-3.5c1.9-8.1,4.8-15.9,6-24.1l0.9,0.1c0.1,0.7,0.3,2.1,0.4,2.9
		c0.1-0.6,0.2-1.7,0.3-2.2c4.3-6.9,5.4-15.2,8.7-22.6C348.1,336.1,348.7,331.4,349.3,326.9z"/>
	<path class="st0" d="M352,347.9c0.9-3.3,0.2-6.8,1-10.1c0.8,3.9,2,7.9,0.4,11.8C352.9,349,352.5,348.5,352,347.9z"/>
	<path class="st0" d="M222.9,352.7c0.4,3.3,0.2,6.7,0.3,10.1c0.1,5.4,1.6,10.7,2.2,16.1c0.5,10.6,2.4,21.5-0.5,31.9
		c-2.2-9.5-1-19.3-1.2-28.9c0.7-7.1-2-14-1.3-21C222.6,358.1,222.7,355.4,222.9,352.7z"/>
	<path class="st0" d="M326,354.1c-2.1,7.8-6.5,14.7-9.4,22.2c-1.5,3.7-2.4,7.6-4,11.2c0.4,0.1,1.3,0.4,1.7,0.5l-1.7-0.1
		c1,1.6-0.2,3.1-0.8,4.6c-5.8,13.1-8.7,27.3-14.7,40.3c-0.4,0.9-1,1.6-1.8,2.2c0.9-5,3.6-9.4,5-14.2c3.2-7.7,4.8-16,8.6-23.5
		c-3.1-0.8-0.5-4-0.2-5.9C312.9,378.2,319.8,366.3,326,354.1z"/>
	<path class="st0" d="M333,357.6c0.2,0.3,0.6,1,0.8,1.4c-0.9,5-2.5,9.9-2.5,15.1c-0.5-0.8-1-1.7-1.4-2.6
		C330.5,366.7,331.7,362.1,333,357.6z"/>
	<g>
		<path class="st0" d="M371.4,371.8c0.5,0,1.4,0.1,1.9,0.1c-0.8,3.8-2.1,7.5-3.5,11.2c-1,7.5-2.1,15.2-4.3,22.5
			c-1.2,6.1,0.7,12.4-1.2,18.4c-0.2,4.1-1.3,8.1-1.5,12.3c-1.2,4.3-1.6,9-4.3,12.7c1.7-8.8,4-17.5,4.2-26.5l-0.9,0.9
			c-1.4,6.5-2.6,13-3.6,19.5c-0.6,2.1-0.4,5-2.9,5.8c1.1-8.4,3.2-16.7,4.1-25.1c0.3-0.4,0.8-1.1,1.1-1.5c-0.1-0.8-0.3-2.5-0.4-3.3
			c-5,16.2-8.6,32.7-13.4,48.9c-2.2,5.9-2.9,12.3-5.3,18.1c-1.7,5.9-3.6,11.9-5.5,17.7c-0.4,0.2-1.1,0.6-1.5,0.8
			c0-0.9,0.1-2.6,0.1-3.5c3.1-10,6.2-20.1,9.2-30.1c3.5-10.1,5.5-20.7,8.5-30.9c1.2-3.2,2.3-6.4,2.2-9.9c2.5-11.3,6.2-22.4,8.5-33.7
			C364.3,387.7,368.5,379.9,371.4,371.8z M362.4,422.4c1.5-0.5,1.3-3.1,0.9-4.4C362.1,418.7,362.1,421,362.4,422.4z"/>
	</g>
	<path class="st0" d="M442.9,383.3c3.7-3.5,6-8.5,10.3-11.4c-0.1,0.6-0.4,1.8-0.5,2.3c-3.9,4.3-8.1,8.4-12,12.7
		c-5,4.8-9.1,10.5-14,15.3c-0.5,0.1-1.4,0.2-1.9,0.2c-1,1.5-2,2.9-3.2,4.2c-0.8-3.5,2.9-5.5,5-7.6
		C431.5,393.3,437.8,388.9,442.9,383.3z"/>
	<path class="st0" d="M570.1,386.4c-0.6-4.6-2.4-8.9-3.4-13.4c2.1,5.4,3.3,11.2,6,16.2c0.9,1.8,1.8,3.6,2.8,5.4
		c-1.7-0.8-2.1,1.2-3,2c-0.5-3-0.9-6.1-2-9c-0.5-0.1-1.4-0.3-1.8-0.4C569.1,387.1,569.8,386.6,570.1,386.4z"/>
	<path class="st0" d="M215.5,401.8c0.4-3-0.4-6.3,1.1-9c1.1,6.6,0.2,13.4,0.8,20.1c0.4,6.7,2.1,14-1.5,20.2
		C215,422.7,215.5,412.2,215.5,401.8z"/>
	<path class="st0" d="M521.4,402.1c-1.6-2.3-1.9-6.2,0.6-8c0.1,0.3,0.3,1,0.4,1.3C520.7,397.1,522.1,400,521.4,402.1z"/>
	<path class="st0" d="M573.9,398.1"/>
	<path class="st0" d="M575.8,398.2"/>
	<path class="st0" d="M574.3,399.4c0.3,0.1,1,0.2,1.3,0.3c-0.2,0.5-0.6,1.6-0.8,2.1C574.7,401.2,574.4,400,574.3,399.4z"/>
	<path class="st0" d="M513.9,402.3c0.4-0.3,1.1-0.9,1.4-1.2c-2.5,10.1-4.4,20.4-6.6,30.6c-0.6,3.3-5-3.1-2.1-3.6
		c0.5,0.2,1.4,0.6,1.8,0.7l-0.7-1.5C509.9,419,511,410.4,513.9,402.3z"/>
	<path class="st0" d="M520.7,406.2c1-1.9,0.9-4.5,3-5.7c-0.4,2.2-0.9,4.4-1.5,6.6c-1.3,3.5,0,7.3-1.2,10.9c-0.9,3.3-0.1,6.8-1.3,10
		c-1,2.5-0.7,5.2-0.7,7.8c0-2.8-0.8-5.5-1.7-8.1c-0.5,1-1,2-1.5,3c0-1.5,0.5-2.9,1.3-4.1c-0.1-0.8-0.4-2.5-0.5-3.4l0.5,0
		c0,1.7,0.3,3.4,1.4,4.8c0.2-2.3-0.4-4.5-0.6-6.8c0.3-2.9,1.4-5.6,1.6-8.4c-0.5-0.1-1.4-0.4-1.8-0.5c1-3.7,2-7.5,1.8-11.4
		C520.7,402.3,520.7,404.3,520.7,406.2z"/>
	<path class="st0" d="M509.5,405.7c0.6-0.5,1.1-1,1.8-1.5c-1.1,7.9-2.1,15.8-4,23.5c-0.4-0.1-1.1-0.2-1.5-0.2
		C507.1,420.2,508.7,413,509.5,405.7z"/>
	<path class="st0" d="M422.8,410.2c1.3-2,3-4,5.5-4.2c0.1,2.8-2.8,3.9-4.5,5.5C423.6,411.2,423.1,410.5,422.8,410.2z"/>
	<path class="st0" d="M412.5,421.5c2.2-3.3,4.4-7,8.1-8.7C418.7,416.4,415.3,418.7,412.5,421.5z"/>
	<g>
		<path class="st0" d="M348.1,419.8c0-1.6,0.3-3.4,1.9-4.1c-2.4,11.3-3.5,22.9-7,33.9c0.3,7.1-1.3,14-3.1,20.8l-1.1-0.2l-0.1,1
			c-0.3,0-1-0.1-1.3-0.1c-0.4,3-0.7,6-1.9,8.8c-0.8,0.8-1.7,1.5-1.8,2.7c-1.7,7.8-3.5,15.5-4.6,23.3c-0.4-0.8-0.7-1.6-1-2.4
			l-0.5,2.3c0.3-0.1,0.8-0.3,1.1-0.4c-0.1,1.1-0.4,3.4-0.6,4.5c-0.5-0.5-1.4-1.4-1.9-1.8c0.4,0.4,1.1,1.3,1.5,1.7
			c-0.2,1.5-0.4,3-0.6,4.6l-0.8,0c0-1-0.1-2.9-0.2-3.9c-2.1,1.8,0.7,4.1,0.2,6.3c0.3,1.7-0.8,3-1.9,4.2c-0.9-7.9-0.4-16,2.5-23.5
			c2.8-6.6,4.6-13.6,6-20.6c-1.2,2.6-1.2,6.1-3.8,7.9c0.3-4.7,2.4-9.1,3.8-13.5l-0.7-3.1c0.6,0.1,1.7,0.3,2.3,0.4
			c-0.6-1-1.1-2.1-1.6-3.1c3.3-7.1,4.4-15,6.1-22.7c0.9-1.9,2.9-3.3,2.8-5.7c0.3,0,1.1,0,1.4,0c-0.4,2.3-1,4.6-1.5,6.8
			c0.5,0,1.5,0,2,0C345,435.8,346.7,427.8,348.1,419.8z M341.4,444.1c0.2,4.7-2.4,9.1-1.2,13.9c3.2-3,0.5-8.2,2.8-11.9
			C342.5,445.5,342,444.8,341.4,444.1z M337.8,469.9l1.2-0.6c0.3-3.2,1.6-6.3,1.9-9.5C337.7,462,339.8,466.7,337.8,469.9z"/>
	</g>
	<path class="st0" d="M505.5,427.5c1.1,1.8,0.9,4,1.6,5.9c1.8,4-0.8,8.2-0.3,12.3c0.3-3.8,2.1-7.2,2.8-10.9c0.3-1.6,1.5-2.8,2.5-4
		c-2.6,10.8-5.7,21.5-8,32.4c-0.1,1.3-1.4,1.7-2.5,1.2c0.9-4.1,1.4-8.3,1.8-12.5c1.7-5.2,2.2-10.8,2.6-16.2
		c-0.9,2.7-1.3,5.6-1.8,8.4c-0.5-0.9-1-1.8-1.3-2.7C503.9,436.8,505.6,432.3,505.5,427.5z"/>
	<path class="st0" d="M542.6,443.8c-1.7-4.7-1.6-10-0.6-14.9c1.3,4.2-0.4,8.7,1.2,12.8c1.6,3.8,0,8.1,1,12c3,6.3-0.3,13.6,2.1,20.1
		c0.9,2.2,0.2,4.5,0.2,6.8c-0.2-3-0.4-6-1.7-8.7c-0.8-5,0-10-0.6-15C541.8,452.9,543.1,448.2,542.6,443.8z"/>
	<path class="st0" d="M648.9,430.1c0.7,0.7,3.1-0.7,3.5,0.6c0.4,2.4,0.3,5,2.3,6.7c-1.3,0-2.4,0.3-3.5,1
		C652.5,435.3,650.3,432.5,648.9,430.1z"/>
	<path class="st0" d="M652.1,440.2c0.4-0.8,0.7-1.6,1.1-2.3c2.6,5,7.3,8.7,10.5,13.4c1.4,2.2,1,5.8,3.4,7.3
		c-0.7,1.6-0.4,3.1,0.4,4.5c-0.5,0.9-1,1.8-1.6,2.7c-0.8-4.9-0.8-10.3-4-14.4C659.4,447.1,655.2,444.1,652.1,440.2z"/>
	<path class="st0" d="M521.9,439.8c1,7.3,0.5,14.8,0.8,22.1c0.2,2.4-0.5,4.6-1,6.9c-0.3,10.4,0.2,20.9-0.3,31.3
		c-0.8-1.2-1.2-2.6-1-4c0.1-8.7,0-17.4,0-26.1C522.4,460,520.9,449.8,521.9,439.8z"/>
	<g>
		<path class="st0" d="M665.3,440.7c6,4.2,12.8,7.2,18.1,12.3c4.4,3.9,9.8,6.9,12.6,12.2c-0.4,3.7,3.5,5.2,6.2,6.7
			c0.3-0.6,0.7-1.3,1-1.9c1,2.5,2.2,4.9,3.4,7.3c-1.7-0.9-3.2-2-4.7-3.1c1.1,1.8-0.1,2.9-1.4,3.6c-1.8,6.3,1.2,12.6,0.4,19
			c0.3-6.8-3-13.3-1.7-20.1c0.8-0.6,1.5-1.1,2.3-1.7c-0.3-2.3-2.9-2.5-4.1-4c-1.9-2.2-3.4-4.8-5.5-6.8c0.6,2.7,0.3,5.5,0.3,8.2
			c-1.9,0.9-0.9,3.4-1.3,5c2.3-0.1,1.1,2.3,1.2,3.7c-3.1,10.6,0.4,21.9-0.5,32.8c-0.8,6.7-0.2,13.4-0.6,20c-0.5-10,0.4-20-0.8-29.9
			c-1-8-0.2-16-1.1-24c-2.5-5-1-10.9-3.1-16.1c-0.6,2.6,0.3,5.7-1.5,7.9c-1.1,1.8-2.9,2.8-4.6,3.8c-0.8,2.7-0.6,5.5-0.5,8.3
			c0.3,6-0.3,12-0.1,18c0.2,3.1-1.4,5.9-1.3,9c-0.2,2.9,0.3,5.9-0.1,8.8c0.1-4.9-0.6-9.9,0.6-14.7c0.9-9.4-0.8-18.9-0.5-28.3
			c-2.6,0,0.1,3.3-2,2.9c-0.9,1.8-3.2,2-4.7,3c0.1,3.5,0.9,6.9,0.8,10.3c-2.4-7.1-1.2-14.6-1.9-21.9c-0.7,0.6-2.1,1.9-2.8,2.5
			c-0.1-1.8,1.4-3,2.2-4.4c1.5-4,5.2-6.9,5.2-11.4c-0.9-2.9-3.4-4.9-4.7-7.6c-0.7,0.7-0.8,2.4-1.9,2.4c-0.7-1.1,0.4-2.3,0.7-3.4
			c-0.3,0.1-1,0.3-1.4,0.4c-0.3-2.2-0.7-4.4-0.4-6.6C666.6,442.3,665.9,441.5,665.3,440.7z M673.5,449.9c0.6,1.2,1.2,2.3,1.8,3.5
			c-0.2,0.3-0.7,1-1,1.3c3.1,2,1.2,6.6,1.7,9.7c0.5-0.6,1.5-1.7,2-2.3C678.5,457.6,677.1,452.8,673.5,449.9z M679,457.6
			c0,0.6-0.1,1.7-0.2,2.3c-0.1-1.3,0.4-2.4,1.4-3c0.6,2.4,1.5,4.6,2.2,7c0.6,3.7-1.8,6.8-2.3,10.3c3-1.7,4.9-5,4.3-8.5
			c-0.1-4.5-4-7.6-4.4-12C679.7,455,680.4,456.8,679,457.6z M685.6,456.9c3.7,5.7,3,12.8,3.3,19.3l1.1,0.8c-0.2-1.8,0.3-3.4,0.9-5
			c0.6-3.9-1.1-7.6-2.3-11.2C688.3,459,686.7,458,685.6,456.9z M679.3,460.8c-0.4,4.5-5,6.4-7.6,9.4c-0.4,3.4,0.3,6.9-0.2,10.4
			c0.8-0.2,2.3-0.5,3.1-0.6c1.5-5,6.5-8.6,6.2-14C680.6,464.2,680.8,461.9,679.3,460.8z"/>
	</g>
	<path class="st0" d="M585.8,441.9c2,3.6,4,7.1,5.2,11c0.7,1.4,0.1,2.9-0.8,4C589.1,451.8,587.1,447,585.8,441.9z"/>
	<g>
		<path class="st0" d="M502.5,442.6c2.8,3.2,0.7,7.5,0.2,11.2c-1.8,10.7-4.6,21.3-6.1,32c-0.3,0.6-0.6,4.5,0.8,2.5
			c0.5-4.3,1.1-8.6,1.8-12.9c0.8,0,1.6,0.1,2.4,0.1c-1.8,3.4-1.6,7.5-2.3,11.2c-2.9,13.8-3.6,28-7.2,41.7c-0.3,0-0.8-0.1-1.1-0.1
			c-0.1-3.2-1.5-7.4,0.8-10c-1.2-3.8,2.6-7.2,0.2-10.6c-0.6,2.5-1.4,5-2,7.6c-0.3,0.6-0.9,1.9-1.2,2.5c2.7-11.2,4.7-22.5,6.6-33.9
			C497.2,470.1,501.4,456.6,502.5,442.6z M495.8,490.8c-0.9,4-1.8,8.1-2.1,12.3c-2.5,2.2-0.3,6.2,0,8.9c0.9-2.1,0.5-4.3,0.3-6.4
			c1.9-1.7,0.9-4.6,1.3-6.8c1-2.5,1-5.4,1-8L495.8,490.8z M492.3,514.3c0.1,0.9,0.2,2.8,0.3,3.7l0.4,0c0.1-0.9,0.3-2.8,0.4-3.7
			C493.1,514.3,492.6,514.3,492.3,514.3z M492.1,523.6c0.1-0.9,0.3-2.6,0.4-3.5C490.9,519.2,490.5,523.7,492.1,523.6z"/>
	</g>
	<path class="st0" d="M668.4,455.3c0.3,0,0.8,0,1,0.1c0.2,2-0.1,4.2-1.4,5.8l-0.4-0.1C667.3,459.1,668.4,457.2,668.4,455.3z"/>
	<path class="st0" d="M501.5,464.9c0.6,0.6,2.1,1,1.6,2.1c-0.8,2.8-1.5,5.6-1.7,8.5c-0.6-0.5-1.2-1-1.8-1.5
		C500.4,471,501.1,468,501.5,464.9z"/>
	<g>
		<path class="st0" d="M557.8,466.8c4.7,6,6.8,13.9,12.4,19.3c7,14.9,8.1,31.8,13.5,47.3c0.7,3.2,1.5,6.3,2.4,9.4
			c-0.4-0.1-1.2-0.4-1.6-0.5c-0.4-5.6-3.5-10.4-4.2-15.9l-3.1,1.8c0.5-1,1.5-3,2-4.1c-0.7-4.7-2.8-8.9-4.5-13.3
			c0.7,4.7,3,9,4.1,13.6c-0.3,0.8-0.7,1.6-1.1,2.4c-1.4-6.2-4.4-12-5.2-18.4l1-0.2c0.2,0.5,0.5,1.4,0.6,1.8c0-0.7,0-2.1,0-2.8
			l-1.3,0.5c0.2-1.7-0.1-3.2-0.9-4.7c0.6-0.1,1.7-0.2,2.3-0.3l-2.7,0.3c0.2-0.9,0.5-2.7,0.6-3.5c-0.5,0.7-1,1.5-1.5,2.2
			c-1.2-5.6-3.8-10.9-6.7-15.8c0.5-0.8,1.1-1.5,1.7-2.2C562.5,478.2,559.9,472.6,557.8,466.8z M564.5,485.8c3,4,4.7,8.7,6.7,13.2
			c0.3-5.5-3-10.3-5.3-15.1C565.6,484.4,564.9,485.3,564.5,485.8z"/>
	</g>
	<path class="st0" d="M331.9,468.1c2,4.3-3,7.6-3.7,11.7c-0.4-0.7-0.7-1.4-1.1-2.1C329,474.7,331.3,471.7,331.9,468.1z"/>
	<path class="st0" d="M326.9,480.1"/>
	<path class="st0" d="M607.7,490c-1-0.7-0.6-3.5,0.7-3.3C609.2,487.5,609.7,490.8,607.7,490z"/>
	<path class="st0" d="M187.4,490.8c1.6,2.2,1.4,5.2,2.8,7.6c2.1,3.4,4.9,6.5,6.3,10.4l-1.7-0.7c-0.3,4.7,0.4,9.6-1.1,14.1
		c-0.5-5.1-0.2-10.3-0.1-15.4c-2.7-2.5-5.7-4.7-8.2-7.4c0.9-0.1,1.8-0.1,2.8,0C187.3,496.6,187.2,493.7,187.4,490.8z"/>
	<path class="st0" d="M200.2,499.8c-0.2-1.2,0.1-2.1,0.8-2.7c0.7,1.5,0.7,3.3,0.3,4.8C200.3,503.9,200,500.4,200.2,499.8z"/>
	<path class="st0" d="M519.4,498.7c2.1,2.6,1,6.1,1.3,9.2c-0.2,5.7,0.7,11.5-0.6,17.2c1.7,7.5-0.5,15.4,1.4,22.9
		c0.3,7.6-0.4,15.2-0.6,22.8c-0.3-6.7-0.6-13.3-0.6-20c0.1-2.7-1.2-5.2-1.1-7.9c-0.2-6,0.6-12.1-0.8-18
		C520.3,516.3,518.9,507.4,519.4,498.7z"/>
	<g>
		<path class="st0" d="M583.8,506.9c3.2,6.2,5.1,13,6.9,19.7c0.6-1.5,1.9-1.6,3.2-1c-0.6,3.1,1.2,6.1,0.6,9.3
			c-0.5,1.1-1.1,2-1.8,2.9C589.9,527.4,586,517.4,583.8,506.9z M591.4,527.2c-0.3,1.9,0.5,5,1.7,6.2
			C593.2,531.6,593.4,527.9,591.4,527.2z"/>
	</g>
	<path class="st0" d="M172.3,509.4"/>
	<path class="st0" d="M336.8,520.8c0,3.7-0.8,7.4-1.1,11.1c-0.8,7.6-5.6,14.5-4.7,22.3l-1,0c0.4,9.5-2.4,18.8-4.9,27.9
		c-2.5,10.6-5.9,20.9-7.2,31.7c-0.1-9.7,1.1-19.4,2.8-29c2.1-9.7,5.2-19.1,6.4-29c0.8-5.7,2.7-11.2,4.8-16.5
		C334.1,533.3,334.3,526.7,336.8,520.8z"/>
	<path class="st0" d="M533.1,567.9c-2.9-15-6.6-29.8-8.4-45c2.4,8.9,4,18,5.9,27C531.7,555.9,533.2,561.8,533.1,567.9z"/>
	<path class="st0" d="M557.7,524c4.2,14.6,6.5,29.8,8.2,45c1.8,12.7,4.9,25.2,6.8,37.9c0.4-0.5,1.1-1.5,1.4-2
		c0.3,3.8-1.1,7.6-0.1,11.3c0.2-1.9,0.2-3.8,0.5-5.6c3.6,10,3.8,21,4.2,31.5c0.2,1.1-0.1,2.1-0.7,3.1c-0.6-7-2.7-13.8-3.1-20.8
		l-1.1,0.2c0.1-0.8,0.2-2.5,0.2-3.3c-0.3,0.1-1.1,0.4-1.4,0.5c-0.1-7.2-4.5-13.5-4.5-20.7c-2.1-9.6-3.5-19.3-4.4-29
		c-0.3-8.7,0-17.4-1.8-25.9C560.5,538.7,559.2,531.3,557.7,524z"/>
	<path class="st0" d="M579.4,529.7c-2.2,0.7-1-4,0.4-1.9C579.7,528.2,579.5,529.2,579.4,529.7z"/>
	<path class="st0" d="M280.6,569.1"/>
	<path class="st0" d="M290.1,568.8c-0.9,3.9-3.5,7-5.5,10.3c-4,6.6-7.3,13.7-10.8,20.6c-2.7,2,2,2.6,0,0l1,0.5
		c1.4-2.3,2.9-4.6,5-6.4c-3.4,6.8-8.1,12.8-12.4,19c-2.3,4.1-3.9,8.5-5.8,12.8c2.6-9.8,7.6-18.8,11.9-27.9
		C278.4,587.8,283.7,577.9,290.1,568.8z"/>
	<path class="st0" d="M600.6,570.2c2.1-0.9,0.8,3.9-0.5,1.9C600.3,571.6,600.5,570.7,600.6,570.2z"/>
	<path class="st0" d="M230.8,580.6c1.6-0.4,2.5-1.7,3.7-2.7c-1,1.7-2.4,3.1-3,4.9c-0.5,3.2-0.4,6.4-0.6,9.7
		c-0.7-0.2-1.4-0.3-2.1-0.4c-0.6,4.7-1.1,9.5-3,13.8c0.9-5.4,1.5-10.8,1.8-16.3c-3.3,4.8-4.8,10.8-8.9,15.2
		c3.4-5.2,5.4-11.1,8.3-16.5C228.2,585.7,229.9,583.3,230.8,580.6z"/>
	<path class="st0" d="M275.6,580.2"/>
	<g>
		<path class="st0" d="M244,610.3c2-5.6,3.6-11.6,7.4-16.4c-1.6,5-3.9,9.8-5.4,14.9c-3.1,10.6-6.1,21.4-11,31.4l-1.1-0.9
			c0,0.6,0.1,1.9,0.2,2.6c-5.1,11-8.7,22.7-14,33.6c-1.4,3.5-3.7,6.5-4.8,10.1c-0.6-1-1.2-2.1-1.9-3.1c0.5,2.1,1.3,4.4-0.2,6.4
			c-0.5-0.5-1.4-1.4-1.8-1.9c0.3,0.5,0.9,1.5,1.2,2.1c-1.6,2.5-3.2,5.1-4.3,7.9c-3.3,8.5-7.6,16.6-12.4,24.4
			c-3.9,8.1-8.4,16-13.5,23.5c-3.4,4-6,8.8-6.7,14c2.6-3.9,4.8-8.1,7.8-11.7c6.7-8.2,11.5-17.7,16.2-27.2
			c5.7-10.8,10.8-21.9,15.7-33.1c3.5-7.4,7.3-14.8,10.1-22.5c3.7-8,5.9-16.7,9.9-24.5l0.7,1.8c-5.8,16.4-11.4,32.8-18.8,48.6
			c5.7-6.4,9.5-14.3,14.5-21.3c1.8-2.5,1.7-6.1,4.1-8.1c-0.2,1.4-0.7,2.8-1.3,4.2c0.6,5.4-1.5,10.6-1.7,16c0.2,3.4-2.7,5.8-2.3,9.2
			c-0.3-4.7,0.5-9.4,1.1-14c-1.8,4.5-3.4,9.2-6.3,13.2c-3.7,5-6.7,10.5-10,15.8c-2.3,3.7-5.8,6.2-8.9,9.2
			c-6.4,12.6-12.2,25.8-21.4,36.7c-3.7,4.1-5,10.1-9.8,13.1c-1.1,1.1-2.2,0.3-2.6-1c-1.9,7.2-5.9,13.6-8.1,20.6
			c-1.1,2.7-2.1,6.2-5.3,7.2c-0.4-0.5-1.3-1.5-1.7-2c-2.1,2.6-5,4.5-6.5,7.5c-0.4-0.3-1.1-1-1.4-1.3c0,3.7-2.9,5.9-5.5,7.9
			c-2.2,4-3.5,9.2-7.6,11.7c-3.9,3.9-7.2,8.3-10.8,12.4c-1.3-2.2,0.6-4.2,2-5.7c3.2-4,7.4-7.4,10-11.8c1-1.4,0.9-3.1,0.8-4.8
			c0.2,0.6,0.6,1.8,0.8,2.4c2.6-2.6,3.2-6.5,6-9.1c1.9-4.1,2.9-8.5,4.6-12.7c0.2-7.3,4.8-13.9,10.2-18.5c1.1-0.8,2.1-1.8,3.1-2.8
			c-1.4,1.9-2.7,4-4.9,5c0.8,0.5,1.5,1,2.3,1.6c1.5-1.2,3-2.4,4.3-3.8c-0.4-5.3,4.4-9.1,4.4-14.4c2.4,2.1-0.6,4.8,1.2,6.9
			c-3.6,4.8-4.7,10.7-6.8,16.1c-1,1.7-1.5,3.5-2.2,5.4c2.1-1,1.7-4.2,2.9-6.1c2.7-5,3.9-10.7,6.9-15.6c1.7-2.8,4.9-6.1,3.2-9.5
			c-0.1,0.8-0.2,2.5-0.3,3.3c-0.7-0.3-1.3-0.5-2-0.7c0.9-3.2,4.3-7,1.5-10.1c-0.5,4.2-2,8.2-2.6,12.5c-1.4-2-0.7-4.6-1.8-6.7
			c-1.9,4.9-4.4,9.5-7.1,14c1.7-4,4.1-7.8,5.6-11.9c0.5-1.5,1.5-2.6,2.6-3.6c0.4-0.8,0.9-1.6,1.3-2.4c0.3-1.5,0.7-3,1.4-4.3
			c0.7,0,2-0.1,2.7-0.1l-0.9,2.4l1.5-0.9c0.3,0.7,0.6,1.4,0.9,2.2c-0.6,1.5-0.8,3.2-0.9,4.8c1-2.2,1.8-4.6,3.6-6.3
			c-0.1,0.9-0.2,2.6-0.3,3.4c5.7-7.8,10.4-16.3,14.5-25c5.9-8.9,10.4-18.7,14.2-28.7c1.7-4.5,3.9-8.8,5-13.5
			c2.8-6.5,5.1-13.2,7.4-19.9c2.4-5.5,4.4-11.2,5.2-17.1c0.7,1.1,1.1,2.4,1.3,3.8c-1.7,2.5-1.7,5.7-2.9,8.4c0.5,0.5,1,1,1.4,1.4
			c0.7-5.2,3.8-9.7,5.8-14.5C237.3,630.6,240.9,620.5,244,610.3z M223.8,656.1c-1.7,1.6,2.1,2.3,0.9,0.2L223.8,656.1z M222.2,658.6
			c0.1,1.7-0.5,3.4-1.2,4.9c-1.8,4-2.8,8.3-4.6,12.2c-0.9,2-1.7,4-1.9,6.2c3.6-7.3,6.1-15.1,9.2-22.5l1.2-1
			C224,658.5,223.1,658.6,222.2,658.6z M157.5,770.2c-2.2,3.8-4.2,7.8-5.9,12c2.9-0.3,2.7,2.4,2.7,4.5c1-1.4,1.5-3.2,3-4.2
			c0.8,0.2,2.3,0.6,3,0.8c-0.4-5.2,3.2-9.5,4.2-14.4C162.7,770.6,159.4,773.4,157.5,770.2z"/>
	</g>
	<path class="st0" d="M380.1,614c-0.8,10.8-4.3,21.2-6,31.9c-0.5,3.7-2.3,7.2-1.9,11c-0.4-0.3-1.3-0.9-1.7-1.1
		c0.4,2.1,0.7,4.2,0.9,6.4c-0.6-1.1-1.1-2.2-1.7-3.4l-0.2,3.6c-0.5-0.6-0.9-1.1-1.3-1.7c2.9-8.1,4.9-16.6,7-24.9
		C376.5,628.5,379.1,621.4,380.1,614z"/>
	<path class="st0" d="M254,623.9c1-2.3,3.2-0.1,1.4,1.3C254.4,625.8,253.9,625.4,254,623.9z"/>
	<path class="st0" d="M533.7,622.8c2.5,4.2,3.3,9.2,4.4,13.9c2.3,11.8,5.6,23.5,7.8,35.4c2.5,13.6,8,26.5,12,39.7c1,2.9,1.1,6,0.3,9
		c-4-14-9.5-27.6-12.9-41.9c-2-7.6-2.7-15.5-4.7-23.1C537.7,644.9,536.1,633.8,533.7,622.8z"/>
	<path class="st0" d="M517,624.6l1,0.9c3.6,12.7,6.1,25.7,9.7,38.4c2.9,11,4.1,22.4,4.3,33.8c-1.2-3.5-1.1-7.2-1.8-10.8
		C527.1,665.8,521.5,645.3,517,624.6z"/>
	<path class="st0" d="M252.4,627c0.4,0,1.2-0.1,1.6-0.1l0.2,0.7c-0.4,0-1.2,0.1-1.5,0.1L252.4,627z"/>
	<path class="st0" d="M131.8,630.9"/>
	<path class="st0" d="M254.7,646.9c1.4-5.2,0.9-11,3.4-15.9c-1.3,6.5-2.3,13.2-2.6,19.7C254.7,649.5,253.8,648.2,254.7,646.9z"/>
	<path class="st0" d="M194.7,658.8c2.4-8.1,4.1-16.4,7.6-24.2c0.1,3.4-1.5,6.5-2.5,9.6C198.3,649.2,196.8,654.1,194.7,658.8z"/>
	<path class="st0" d="M227.7,640.7c-1.6-1.5,1.1-4,1.4-5.8C229.2,636.6,229.9,640,227.7,640.7z"/>
	<path class="st0" d="M250.4,646.6c0-3.2-2-7.1,0.7-9.7c-0.1,4,0.7,8.2-0.9,12c0.5-0.2,1.4-0.5,1.8-0.6c-1.2,2.4-1.4,5.2-2.4,7.7
		c-2.4,5.3-1.3,11.2-1.1,16.8c2.1-7.1,5.6-14.4,4.8-21.9c0.3,0,0.9,0.1,1.2,0.1c0,0.8-0.1,2.3-0.1,3.1c1.1-1.8,2.2-3.6,3.6-5.3
		c-0.8,6.9-4.7,13.1-5,20.1c0.8,9.3-3.5,18-5.1,27c0-6.3,2.6-12.1,4-18.1c0.6-2.6,1.7-5.6,0.1-8.1c-2.2,9.4-4.8,18.7-7.3,28
		c-0.7,2.9-2.1,5.6-3.8,8.1c1.4-10.2,4.3-20.1,6.9-30.1c0.1-4.3,0.2-8.8-0.7-13.1c-2.9,6.9-6.2,13.6-9.6,20.2c-1.8,4.5-3,9.3-5,13.8
		c-1.4,0.8-2.8,1.6-4.1,2.5c0.2-2.9,1.8-5.5,1.4-8.5c0.3,0.5,0.9,1.5,1.3,2c3.6-10.9,10.6-20.3,14.1-31.2c2.2-0.5,0.4-3,0.4-4.5
		l0.4,0.1c0.4,0.4,1.1,1.3,1.4,1.7c-0.1-2.4-2.1-6.8,1.5-7.7c0-2.8-0.3-5.6,0-8.3C249.3,643.8,250.1,645.7,250.4,646.6z"/>
	<g>
		<path class="st0" d="M376,644c-0.1,4-0.1,8-0.2,12c-1.4,9.8-4.7,19.3-4.9,29.3h-1c0.9,1.9,0.6,3.5-0.8,4.8c0-0.8,0-2.5,0-3.3
			c-1.4,2.5-1.4,5.7-3.1,8c0,2.1,0,4.2,0.9,6.2c0.5-3.3,1.9-6.6,1.3-9.9c0.4-0.2,1.3-0.7,1.7-0.9c-1.1,8.1-3.4,15.9-5.2,23.8
			c-1.2,4.6-0.1,9.4-0.7,14.1c-0.5-2.9-0.4-5.8-0.6-8.7c-0.8,1.4-1.3,2.9-1.8,4.4c0.1-1.9,0.3-3.8,1.4-5.3c1.1-5,2.1-10,1.9-15.1
			l1.1,0.2c-0.2-3-0.6-6-1.2-8.9c1.7-0.5,1.5-2.5,1.8-3.8c0.4-4.7-0.6-9.4,0.7-14c0.5-1.4,0-3.2,1.4-4.1c-0.3-3.3,1.1-6.4,1-9.6
			l-1-0.1c-4.6,15.9-8.6,32.1-10,48.6c2-5,3.4-10.3,5.7-15.2c-0.1,3.3-1.3,6.4-2.1,9.5c-4.1,13-7.5,26.3-11.4,39.4
			c-2.4,5.7-5,11.4-7.7,17c-0.8,1.4-0.7,3-0.9,4.5l-1.6-0.6c0.1,0.5,0.3,1.5,0.5,1.9l-1.2,0.3c-1.8,3.1-3.8,6.2-5.4,9.4
			c-0.7,6.9-2.4,13.6-4.9,20.1c-1,2.4-1.4,5.1-3.2,7.1c2.4-8.3,6.2-16.2,7-24.9l-0.8-0.1c-0.9,2.3-2.6,6.9-3.4,9.2
			c-1.6-5.7,2.9-9.3,3.2-14.4c0.8-1.9,1.3-3.9,1.9-5.8c4.7-8.5,7.7-17.8,11-27c1.7-4.7,4.6-8.9,5.6-13.8l1.4,0.8
			c-0.2-0.9-0.6-2.8-0.8-3.7l1.3,0l-0.2,1.8l0.5,0.6c0.5-1.8,1.1-3.6,1.8-5.3c-1.3,0.5-2.1,1.5-2.4,2.9l-0.2-2.5
			c0.5,0,1.4-0.1,1.8-0.1c-0.6-1.6-0.7-3.2-0.3-4.8c0,1.6,0.7,3.4,1.5,4.8c-0.1-2.9,1.6-5.7,0.5-8.5l1.1,0.2
			c0.7-7.2,2.1-14.3,3.2-21.5c1.6-10,5-19.7,7.2-29.6c0.4-0.3,1.3-1,1.8-1.3c3.4,2.6-1.4,7.6,1.1,10
			C371.9,662.7,374.9,653.5,376,644z M368.8,673.8c-1.4,3.8-2,8.2-0.9,12.3c0.5-4.2,2.1-8.2,1.5-12.5L368.8,673.8z M346.8,744.4
			c-0.6,1.4-0.2,3.4-1.6,4.4c0.1,1,0.2,3.1,0.3,4.1c-0.6-1.1-1.2-2.1-1.9-3.1c0.1,0.6,0.4,2,0.5,2.6l-1,0.3
			c-1.8,4.2-3.2,8.5-5.1,12.6c-1.1,2.8-2.9,5.3-3.4,8.3c3.5-6.7,8.4-13,9.1-20.8c0.3,0.2,1,0.6,1.4,0.8c3.7-7.4,6.3-15.1,7.8-23.2
			C348.8,734,348.6,739.7,346.8,744.4z"/>
	</g>
	<path class="st0" d="M189.2,671.9c-1.2,2.7-2.3,5.4-3.9,7.9c-4.9,8.1-9.5,16.5-13.6,25.1c-1.2,2.5-2,5.3-4.2,7.1
		c2.3-7.3,6.1-14.1,9.3-21.1C180.5,684.4,185.3,678.5,189.2,671.9z"/>
	<path class="st0" d="M203,682.3c0.9-2.3,1.5-4.9,3.3-6.6c-1.6,6.2-3.8,12.2-6.3,18.1c-1.6,3.3-3,6.9-5.7,9.5l0.3-1.5l1-0.8
		c-0.4-0.7-0.8-1.3-1.1-1.9c-2.1,5.9-4.9,11.5-8.3,16.7c-2.3,8.8-5.8,17.3-8,26.2c-0.5-0.9-0.9-1.7-1.3-2.6
		c5.8-17.7,11.2-35.5,16-53.4c-0.2,7.8-3.2,15.2-4.3,22.8c1.5-3.8,3.4-7.5,6-10.8l0.4,1.6c0.4-0.2,1.1-0.7,1.5-1
		C198.7,693.2,201.2,687.9,203,682.3z"/>
	<path class="st0" d="M179,709.3c3.9-5.6,6.7-11.9,10.4-17.7c0.2,3.1-2.1,5.6-3.3,8.2c-5.4,10.8-13.2,20.1-18.3,31
		c-4.4,9.6-10.8,18-16.4,26.9c-6.8,12.6-15.2,24.2-23.2,36.1c-3.5,6.3-7.5,12.3-11.5,18.3c-1.1,1.6-2.1,3.4-3.9,4.2
		c0.5-3.6,3-6.2,4.9-9.2c4.5-6.7,8.8-13.4,12.6-20.5c0.7-1.5,2.3-2.9,1.8-4.7l2.1,0c0,0.4-0.1,1.1-0.2,1.4c2.5-4.8,6.4-8.8,8-14.1
		c6.5-10.7,13.1-21.3,18.8-32.4l1.7,0.9c-0.2-0.8-0.8-2.3-1-3.1c0.4,0.4,1.2,1.3,1.6,1.7C167.1,726.8,172.9,717.9,179,709.3z"/>
	<path class="st0" d="M132.4,694.3c0.6,0.5,1.2,0.9,1.8,1.4c-2.5,1.5-4.3,4-6.9,5.3C127.4,697.9,130.8,696.5,132.4,694.3z"/>
	<path class="st0" d="M505,709.9c-0.2-4.3-0.2-8.5-0.1-12.8c-0.1,4.2,0.2,8.5,0.6,12.7c0.2,13.7-0.3,27.4-0.1,41.2
		c0.2,4.3,0.9,8.6,0.5,12.9c0.2-5-1.1-9.9-1.4-14.8C504,735.9,504.7,722.9,505,709.9z"/>
	<path class="st0" d="M179.9,715.9c1.5-2.4,2.1-5.6,4.6-7.3c-0.3,2.7-1.8,5-3,7.3c-2.2,4.3-4.3,8.8-7.5,12.5c-0.3,0.1-1,0.2-1.4,0.3
		C174.9,724.3,177.9,720.4,179.9,715.9z"/>
	<path class="st0" d="M427.4,732c0.2-4.4-0.3-9.1,1.6-13.3c-0.2,17.1-1,34.2-1,51.2c0.1,6-2.1,12.5,1.1,18c-0.5-0.5-1.6-1.5-2.2-2
		c0,0.4,0,1.2,0,1.5l-1.2,0.3c0.1-2.6,0-5.2-1.1-7.6l1.5,0.5C426.7,764.4,426.6,748.2,427.4,732z"/>
	<path class="st0" d="M146.6,746.1c5.4-8.6,10.3-17.6,15.6-26.3c0.6,2.2-0.6,4.3-1.6,6.2c-4.8,10.2-10.6,19.9-16.9,29.1
		c-3.2,4.6-5.2,10-8.5,14.5c-0.9,1.4-2.4,2.1-3.8,2.8c1.4-3.8,3.6-7.3,5.4-11C139.4,755.9,143.5,751.3,146.6,746.1z"/>
	<path class="st0" d="M126.7,739c3.2-4.5,5.4-9.7,8.6-14.1c-1.9,6.2-5.4,11.7-8.5,17.3c-1.5,2.4-2.7,5-5,6.7
		C122,745,124.8,742.2,126.7,739z"/>
	<path class="st0" d="M408.1,727.8c0.3,2.2-0.4,4.3-1,6.3c-3.3,9.9-5.2,20.4-10.2,29.6C400.6,751.7,403.9,739.6,408.1,727.8z"/>
	<path class="st0" d="M281.6,729.1c0.4,0.7,0.7,1.3,1.1,2c-0.9,1.9-1.7,3.8-2.1,5.9c-0.4,0.1-1.3,0.2-1.7,0.3
		C280,734.6,281.1,731.9,281.6,729.1z"/>
	<path class="st0" d="M549.6,729.8c2.1,4.1,1.9,8.8,3.8,13c2.5,5.5,5.7,10.8,8.7,16.1c0.6,1.5,2.1,3.2,1.3,5
		c-3.6-9-10.4-16.5-12.5-26.1C550.4,735.1,550,732.5,549.6,729.8z"/>
	<path class="st0" d="M531,732.6l1.4,0.2c1,2.5,0.4,5.3,0.5,8c-0.6,5.3,0.3,10.7-0.5,16.1c-0.6-0.7-1.2-1.4-1.9-2
		C531,747.5,532,740,531,732.6z"/>
	<path class="st0" d="M564.2,743.3l0.8-0.1c0.3,0.4,1,1.2,1.3,1.6c-1,0.5-1.8,0.3-2.4-0.8L564.2,743.3z"/>
	<path class="st0" d="M567.2,747.4c-1.2,2.8-3.1-2.8-0.4-1L567.2,747.4z"/>
	<path class="st0" d="M566.5,749.2c1.4-0.5,1.8,0,1.4,1.5C566.6,751.1,566.1,750.6,566.5,749.2z"/>
	<path class="st0" d="M485.7,754.9c-0.3-1.7-0.1-3.4,0.1-5c4.8,21.2,6.4,42.9,6.7,64.5c0.7,9.8,2.2,19.6,1.4,29.5
		c-1.3-5.9-1.2-12-2.1-18c-1-7.6-1-15.4-1.4-23C490.4,786.8,488.3,770.8,485.7,754.9z"/>
	<path class="st0" d="M148.2,751.9c-0.5,4.1-2.7,7.7-4.1,11.5c-1.5,4.2-4.8,7.3-6.7,11.2c-1.2-0.5-2.1-1.4-1.8-2.7
		C142.1,767.1,144.4,758.7,148.2,751.9z"/>
	<path class="st0" d="M171.8,755.2"/>
	<path class="st0" d="M530.4,755.8c0.6,0.7,1.2,1.3,1.8,2c-2.1,15.9-1.3,32-1.8,48c0.1,11.2-0.8,22.5,1.2,33.6
		c0.1,2.1,0.5,4.4-0.7,6.3c-0.3-0.6-0.6-1.2-0.7-1.9c-2-21.5-0.7-43.2-0.9-64.7h-1.1c-0.1,2.6-0.1,5.2-0.3,7.8
		c-0.2-2.7-0.5-5.5,0.1-8.1l1-0.4C528.1,770.9,530.5,763.4,530.4,755.8z"/>
	<path class="st0" d="M534.5,761.7c2,0.4,1.4,2.7,1.6,4.2c0.1,5.1-0.2,10.2-1.1,15.3C533.7,774.7,533.9,768.1,534.5,761.7z"/>
	<path class="st0" d="M340.5,768.8c2.3-0.5,0.1,3.6-0.3,0.8L340.5,768.8z"/>
	<path class="st0" d="M579.9,772.9c-0.2-1.3-0.6-2.6-0.2-3.9c0.5,1.3,1,2.7,1.9,3.8c-0.3,1.4-1.1,2.5-2.3,3.2l0.7-2.5
		c-0.4-0.3-1.2-0.8-1.6-1.1L579.9,772.9z"/>
	<path class="st0" d="M450.9,769.6c1.1,1.8,1.2,4,1.4,6.1c0.9,14.1,4.9,27.8,5.9,41.8c-0.3-0.2-0.9-0.8-1.2-1
		C452.6,801.4,450.5,785.5,450.9,769.6z"/>
	<path class="st0" d="M133.9,774.1c0.1,0.4,0.2,1.3,0.3,1.8c-0.1,0.1-0.2,0.4-0.2,0.6c0.1-0.1,0.2-0.4,0.2-0.6l0.7-1.4
		c0.8,0.2,1.5,0.7,2,1.4c-1,0.8-1.9,1.7-2.7,2.7c-1.1,0-1.9-1-2.9-1.3C132.5,776.4,133.1,775.2,133.9,774.1z"/>
	<path class="st0" d="M272.7,773.5l0.4,0c0.1,2.1,0,5.6-1.8,6.8C271.3,778,271.9,775.6,272.7,773.5z"/>
	<path class="st0" d="M507.8,777.2c0.7,0.7,1.1,1.6,1.1,2.7c-0.1,4.3,0.5,8.6,0.5,13c1,7.3,3.2,14.5,3,22c-0.2,2.7,0.5,5.8-1.5,8
		c0-4-0.1-8-0.3-12c-0.3-6.8-3-13.3-2.6-20.1C508.3,786.2,508.8,781.6,507.8,777.2z"/>
	<path class="st0" d="M321.1,792.7c3.8-4.7,6.1-10.3,9.3-15.4c-1.3,6.4-6.1,11.3-8.2,17.4C321.9,794,321.5,793.3,321.1,792.7z"/>
	<path class="st0" d="M132.8,779.9c2.1-1.1,1.6,2.6-0.1,0.9L132.8,779.9z"/>
	<path class="st0" d="M268.8,788.4c1.3-2.5,0.9-6.1,3.1-7.8c-0.3,2.2-1.6,4.4-1.2,6.7C270.3,787.6,269.3,788.2,268.8,788.4z"/>
	<path class="st0" d="M414.1,781.8c1.1,2.9,0,6.1-0.1,9.1c-1,5.3-1.3,10.7-3,15.8c-0.1-0.7-0.4-2-0.5-2.7
		C412,796.7,412.5,789.1,414.1,781.8z"/>
	<path class="st0" d="M516,791.6c0.1-1.3-0.8-3.3,1-3.8c1.6,10.3,0.2,20.8,1,31.1c0,3.2,0.8,6.7-0.9,9.7c-2.6-2.9-1.7-7.1-1.8-10.6
		C516.6,809.2,516,800.3,516,791.6z"/>
	<path class="st0" d="M534.4,791.6c-0.8-1,0.5-3,1.7-2.4C536.7,790.2,535.7,792.2,534.4,791.6z"/>
	<path class="st0" d="M417.4,792.8c0.5,0,1.4-0.1,1.9-0.1c1.9,5.3,2.3,11,4.5,16.2c0.2,1.5,0.2,3.1,0.1,4.7c1.3,1,1.2,2.8,1.7,4.2
		c1.1,5.1,2.4,10.1,4.3,14.9c-4.5-4.4-6.6-10.8-6-17c0.6-1.8-1-3-2.4-3.6C420.7,805.6,418.3,799.3,417.4,792.8z"/>
	<g>
		<path class="st0" d="M572.7,820.8c-3.1-8.6-8-16.6-9-25.9c1.7,9.4,6,17.9,10.1,26.4c6.2,9.6,11.7,19.6,17.4,29.5
			c3.5,6.3,9,11.1,14.9,15c-5.3-5.5-8.7-12.2-11.9-19c-2.2-4.6-5-8.8-7.2-13.4c0-1.1-0.1-2.2-0.1-3.3c0.8,3.2,3.4,5.5,4.8,8.5
			c3,5.1,5.5,10.5,8.7,15.5c2,0.3,3.7,1.4,5.1,2.7c-1.7-0.9-3.4-1.9-5.2-2.6c1.5,3,2.9,6.1,5.8,8c3.2,2.2,5.2,5.7,6.7,9.2
			c0.9,0.8,2.8,1.1,2.1,2.8c1.4-0.1,2.3,1.2,3.4,1.9c2.1,1.8,4.6,3.4,6.2,5.8c-3.6-2-6.3-5.3-9.9-7.2c1.7,2.7,3.6,5.4,6,7.6
			c6,8.1,13.7,15.2,22.6,19.8c-3.5-5.2-9-8.7-13-13.4c6.3,4.3,11.7,9.8,16.6,15.6c3.7,3.3,8.1,5.7,12.7,7.8c2.1,0.8,3.3,2.7,3.9,4.8
			c2.7,1.3,5.9,2.5,7.4,5.3c-0.3,0.5-0.8,1.4-1.1,1.9c7.7,2,15,5.3,22.6,7.8c2.1,0.6,4.2,1.7,5.1,3.9c-6.5-1.8-12.9-4.1-19.2-6.6
			c-2.6-0.8-5.1-2.4-7.9-1.8c-1.5,0.2-2.6-0.8-3.9-1.4c-3.3-2-7.2-1.9-10.8-2.6l1.1,1.3c4.8,1.8,9.6,3.6,14.6,5
			c-5.9-0.5-11.2-3.5-16.8-5.2l0.8-1.4c-2.9,1.5-5.3-0.6-7.9-1.5l0.9-1.5c-3.2-1.2-6.1-2.8-9-4.4c-4.5-0.5-8-3.7-11.6-6.3
			c-8.9-6.4-16.6-14.4-26.2-19.7c-3.4-1.7-4.4-5.6-4.9-9c1.5,1.2,2.4,3.1,3.4,4.8c1.1,1.9,3.4,2.5,5.3,3.4c-1.8-2.3-4.1-4.2-5.6-6.6
			c0.5,0,1.4,0.1,1.9,0.1c-0.3-1.8,0.3-3.4,1.4-4.7c0,2.3-1.1,5,0.6,7c6.7,7.4,15.4,12.6,23.3,18.7c4.6,3.8,9.6,7,14.6,10.4
			c0.7-0.2,2-0.5,2.7-0.7c2.8,2.6,6.5,3.5,10.3,3.9c-4.6-3.5-8-8.2-13-11.1c-4.5-2.7-7.8-7.3-12.7-9.3l0.8-1.2L627,896l1.9-2.2
			l-3.3,1.2l1.9-1.8c-3.8-3-6.8-6.7-10.1-10.2c-3.3-4.1-5.9-8.7-9.7-12.4l1.2-2l-2.6,1.6l1.3-2.5l-1.7,1c-1.2-1.4-2.9-5.3-4.9-2.8
			c-0.1-0.5-0.2-1.5-0.3-1.9c-6.9-5.9-11.5-13.7-15.7-21.6C580.9,835.2,576.7,828,572.7,820.8z M656.9,921.5
			c1.1,0.8,2.2,0.9,3.3,0.3C660.4,920.2,656.9,920.1,656.9,921.5z"/>
	</g>
	<path class="st0" d="M258.7,810.9c2.3-4.7,3.9-9.8,6.8-14.2c-3.4,9.6-7.5,19-12,28.2c-1.2,2.4-2,5.1-3.9,7.1
		C251.7,824.6,255.9,818,258.7,810.9z"/>
	<path class="st0" d="M375.4,810.9c2.7-4.8,5.3-9.8,8.8-14.1c-2.9,7.3-7.9,13.7-10.5,21.2c-2.8,7-3.2,15-8.1,21
		c-0.6,0.1-1.2,0.3-1.8,0.5c2.4-1.9,3.1-5,4.3-7.7C370.3,824.8,371.7,817.4,375.4,810.9z"/>
	<path class="st0" d="M269.7,805.1c0.3-0.1,0.8-0.2,1.1-0.2c-0.3,3.8-1.5,7.5-2.9,11c-1.5,3.6-2.1,7.4-3.4,11c-1,3-3.7,5.1-6.1,6.9
		c0.7-1.1,1.4-2.2,2.1-3.3l1.1,0.2c-0.1-0.5-0.2-1.5-0.3-2c1.7-0.5,1.7-2.4,2.4-3.7C266.4,818.7,267.8,811.8,269.7,805.1z"/>
	<path class="st0" d="M407.9,817c0.4-2.3-0.5-6.4,2.4-7.2C409.8,812.3,409.3,814.8,407.9,817z"/>
	<path class="st0" d="M388,812.9c0.2,5.5-1.8,10.9-2,16.5c-1.8-0.6-1-2.7-0.9-4C386.4,821.3,387.3,817.1,388,812.9z"/>
	<path class="st0" d="M387,827.3c-0.1-1.4,0.2-2.4,1-3.2c0.3,1.6,0.4,3.2,0.3,4.8C387.5,829,387.1,828.4,387,827.3z"/>
	<path class="st0" d="M464,841.9c-2.3-5.8-4.5-11.7-5.3-18c1.3,2.5,2.4,5.1,3.1,7.9c1.7,6.5,5.1,12.6,6.3,19.2
		C466.2,848.3,465.3,845,464,841.9z"/>
	<path class="st0" d="M385.8,829.6c0.6,0,1.7,0.1,2.2,0.2c-0.7,5.7-1.4,11.3-2.1,17c0.1-2.1-0.9-4-1.7-5.8
		c-0.3-3.8,0.2-7.6,0.5-11.4c0.8,1.3,1.1,2.8,1.5,4.3C386.1,832.7,385.9,830.6,385.8,829.6z"/>
	<g>
		<path class="st0" d="M518.6,835.7c0.1-0.9,0.5-1.5,1.4-1.9c1.5,4.9,0.8,10,0.7,15c1.5,10.7,4.7,21.2,5.5,32.1
			c0.5,0.2,1.4,0.5,1.8,0.7c-0.6-8.9-1.1-17.8-1.4-26.7c0.3-6.3,0.1-12.6,0.2-18.9c0.2,6.6-0.3,13.2,0.4,19.8
			c1.7,15,2.4,30.1,3.5,45.1c0.6,1.4,0,4.9-2.1,3.3c-1.8-6.1-3.1-12.3-4.6-18.5c-2.3-8.8-2.8-17.9-4.5-26.8
			C518.1,851.2,518.6,843.4,518.6,835.7z M527.1,883.4c0.1,1.4,0.4,2.8,0.8,4.1c1-1.2,0.6-3.9,0.6-5.6
			C527.6,881.7,527.1,882.2,527.1,883.4z"/>
	</g>
	<path class="st0" d="M435.5,836.7c0.3-0.2,1-0.6,1.4-0.8c-0.9,2.6-0.4,5.3,0,8C435,841.9,434.2,839.3,435.5,836.7z"/>
	<path class="st0" d="M445.8,867.8c-5.7-10.2-13-19.6-17-30.7c3.9,6,8.5,11.5,12.1,17.7c6.3,15.2,16.8,28.1,26.8,41
		c-0.5,0-1.4-0.1-1.8-0.1C458.2,887.2,451.4,877.8,445.8,867.8z"/>
	<path class="st0" d="M361.6,843.7c1.5-1.4,3-2.7,4.7-3.8c-2.6,4.3-6.8,7.2-10.3,10.7c1.7-2,2.2-6.4,5.4-6.3
		c-0.1-0.6-0.4-1.9-0.6-2.5C361,842.3,361.4,843.3,361.6,843.7z"/>
	<path class="st0" d="M574.6,843c4.7,6.1,8.7,12.8,11.7,19.9c1.6,4,4.1,7.4,6.4,11c-4.7-2.5-6.3-8.1-8.6-12.5
		C581.5,854.9,577.6,849.2,574.6,843z"/>
	<path class="st0" d="M483.7,847.8c5.6,10.9,10.7,22,15.5,33.3c4,7.3,9.8,13.5,15.8,19.1c2,4.1,3.3,8.5,5.2,12.7
		c-3.5-1.6-7-3.3-10.3-5.4c-1.3-4.2-4.2-7.9-5-12.3c-3.5-4.8-5.6-10.4-8.5-15.5c-2.9-5-4.6-10.6-6.8-15.9
		C487.6,858.5,484.9,853.4,483.7,847.8z"/>
	<path class="st0" d="M353.6,854.6c3.1-0.8,4.5-4.1,7-5.9c-2.1,4.4-5.4,8-8.7,11.5c-1.9,4.1-4.4,7.9-7.3,11.4
		c1.5-3.4,4.1-6.3,5.3-9.8C350.9,859.2,352.1,856.9,353.6,854.6z"/>
	<path class="st0" d="M366.3,860.6c3-3.9,5.5-8.2,9-11.7c-8.8,14.4-19.7,27.8-33.2,38.1c-0.1,0.6-0.3,1.9-0.4,2.6
		c-1.3,0.8-2.5,2.2-4.2,1.9c-1.2,0.8-2.5,1.6-3.9,2.3c1.3-1,2.9-1.6,3.9-3c2.7-3.9,6.8-6.4,10.1-9.8
		C354.5,874.9,360.7,868,366.3,860.6z"/>
	<path class="st0" d="M394.6,871.1c-0.3-3.2,0.1-6.4,1.3-9.3c-0.2,6.9-0.9,13.8-1.8,20.6l-1.2,1.3
		C393.2,879.6,392.8,875.1,394.6,871.1z"/>
	<path class="st0" d="M302.5,894.7c14.1-7.5,25.3-19.1,37-29.9c-4,6.5-10.3,11.1-15.9,16.2C317.1,886.2,310.7,892.4,302.5,894.7z"/>
	<path class="st0" d="M201.5,876.1c3.3-2.1,6.2-4.8,9.3-7.1c2.7,0.2-0.4,3.6-1.4,4.3l0.7,0.8c-1.2,0-2.4,0-3.6,0
		c-1.1,0.9-2.6,1.5-3,3.1C202.9,876.8,202.2,876.4,201.5,876.1z"/>
	<path class="st0" d="M460.6,873.7c4,8.5,9.9,15.9,16.1,22.9c3.3,3.9,7.7,7,9.5,12c-7.6-7.8-15.6-15.4-21.4-24.8
		C463.2,880.6,460.7,877.5,460.6,873.7z"/>
	<path class="st0" d="M279.9,883.2c7.8-1.6,15.4-4.2,22.4-8.1c-5.9,5.4-14.1,7-21.5,9.5C280.6,884.2,280.2,883.5,279.9,883.2z"/>
	<path class="st0" d="M487.5,877.1c2.2,2.6,5.2,4.6,6.7,7.7c1.7,3.2,3.5,6.5,5.1,9.8C494.5,889.5,490.9,883.3,487.5,877.1z"/>
	<path class="st0" d="M257.4,886c6-0.8,11.7-3.2,17.4-5.2c-2,2.8-5.8,3.2-8.8,4.4C263.2,885.9,260.1,887.9,257.4,886z"/>
	<path class="st0" d="M448,906.5c-3.9-7.3-6.6-15.3-8.3-23.4c4.2,6.2,5.3,13.8,8.9,20.4C449.4,904.4,450.2,907.6,448,906.5z"/>
	<path class="st0" d="M331.8,886.2c0.9-1,1.8-2.4,3.4-2.3c-2.2,3.1-5.5,6-6.1,10c-0.4-0.4-1.1-1.1-1.5-1.5l1,3.4l-2.3-2.4l1.4,3.9
		l-2.1-2.3c-0.2,0.5-0.5,1.6-0.7,2.1c-1.6,1.6-3.2,3.2-5.5,3.8C323.5,896,327.7,891.1,331.8,886.2z"/>
	<path class="st0" d="M470.8,883.9c2.6,1.8,4.2,5.2,4.8,8.2C472.9,890.2,471.6,887,470.8,883.9z"/>
	<path class="st0" d="M848.1,887.7c2.7,1.4,0.2,3.9-1.2,5.1C847.2,891.2,847.6,889.4,848.1,887.7z"/>
	<path class="st0" d="M576.3,889.6c6.4,7.4,13.5,14.1,20.6,20.9c8.4,8.1,17.4,15.7,27.6,21.6c14.1,7.7,28.4,15.4,44,19.9
		c1.9,0.8,4.9,1,5.2,3.5c-12.8-1.4-24.5-7.2-35.7-13.1c-7-3.8-14-7.6-20.6-12.1c-10.4-7.1-19.5-15.8-28.3-24.8
		c-4.2-4.5-8.9-8.4-12.4-13.5C576.5,891.3,576.3,890.2,576.3,889.6z"/>
	<path class="st0" d="M518.7,894.9c3.8,5,6.8,10.5,10.2,15.8c4.5,2.2,10.7,3.3,12.7,8.5c-3.6-2.1-6.9-4.7-10.9-6
		c4.5,8.9,16.6,8.1,22.8,15c-2.8,3.1-7.5,1.3-9.9-1.4c-1.5-1.1-3.1-1.9-4.8-2.5c5.8,7.6,12.9,14,20.3,19.9
		c8.1,6.2,16.4,12.5,26.1,16c0.3-1.1,0.8-2,1.2-3c0.2,4.3,4.9,5.4,8.1,6.8c7.2,3.5,15.2,4.7,22.8,6.6c12.9,2.4,25.9,6.1,39.2,4.4
		c2.9-0.2,5.9-0.5,8.8-0.7c-6.3,1-12.4,3.3-18.8,3.2c-10.5-0.3-20.7-3-30.9-4.9c-5.4-1-10.6-3.3-16.2-2.8c-8-1.9-15.5-5.5-23-8.7
		c-9.6-4.8-17.8-12-26-18.9c-7.4-6.2-13.3-13.8-18.8-21.6c-1.1-1.9-3.3-2.7-5.2-3.7c-0.3-0.9-0.6-1.8-0.9-2.7
		c0.2-0.4,0.7-1.3,0.9-1.8C522.3,907.2,521.6,900.5,518.7,894.9z"/>
	<path class="st0" d="M280.1,906.5c6.5-3,12.7-6.6,18.7-10.5c0.4,0,1.2,0,1.6,0c-5.4,5.2-12.8,7.7-18.8,12c3.5,1.5,6.8-0.7,9.8-2.3
		c2.5-1.2,5.2-1.9,7.9-2.5c0.2,0.3,0.7,1,0.9,1.3c-9.9,3.2-20.1,5.5-30.1,8.5l-0.6,1.4c2.8-0.1,5.6-0.3,8.3-0.4
		c-4.2,0.7-8.5,3.5-12.8,1.9c3-4,7.8-6.1,11.9-8.9C277.9,907.3,279,907.1,280.1,906.5z"/>
	<path class="st0" d="M504.6,903.9c-2.4-1.2-4.5-3-5-5.8C502.4,898.9,503.7,901.4,504.6,903.9z"/>
	<g>
		<path class="st0" d="M814.9,914.1c7.7-4.8,14.6-10.7,21.7-16.3c-1.9,3.7-3.9,7.6-7.5,9.9c-2.4,1.5-3.7,4.2-5.7,6.2
			c-1.3-0.4-0.9,2.5-0.1,1.6c1.9-2.2,3.9-4.4,6.3-6c-6.7,10.8-18.9,16.2-27.5,25.2c-6.9,6.7-15.9,10.8-24.6,14.5
			c-6.9,3-14.8,1.9-21.6,5.4c0-0.6,0.2-1.8,0.2-2.3c-0.3,0.2-1,0.8-1.4,1c0.3,0.6,0.7,1.2,1,1.8c-5.5,0.8-11,0.7-16.5,1.7
			c-0.4,0.3-1.2,0.9-1.6,1.2c0.4-0.5,1.3-1.5,1.7-1.9c-2.3-1-4.7-1.1-7.1-1.2c-8.2-1.4-15.8-4.7-23.3-8.2c-7.8-2.8-16-4.3-24.2-5.2
			c-9-0.9-16.6-6.2-24-10.8c-0.1-0.3-0.2-1-0.3-1.3c6.6,3.4,12.7,8,19.9,9.9c1.9,0.3,4,0.1,5.7,1.2c2.2,0.2,4.5,0.1,6.4-1.4
			c-2.2,0.1-4.3-0.4-6.2-1.4c9.5,0.1,19,1.3,28,4.3c6.8,2.1,13.4,5.3,20.8,4.7c-0.6,0.8-1.1,1.6-1.6,2.4l-1.2-0.9l0.1,1.5
			c1.5,0.1,3,0.1,3.8-1.3c3.3,0.6,6.3-1.1,9.3-2.1c4.6-1.8,9.5-2.8,14.2-4c8.7-2.2,16.2-7.2,23.6-11.9c0.8,1.6-0.1,3.3-1.4,4.2
			c-4.8,3.8-10.5,6-15.6,9.2c5.6-2,11.3-4.1,16.5-7.1c0-0.3,0.1-1,0.1-1.4c4.6-3.3,8.9-7.1,14-9.8
			C803.2,922,808.8,917.6,814.9,914.1z M818.4,918.8c1.4,0.2,2.8-1.3,3.4-2.5C820.4,915.3,818.2,917.4,818.4,918.8z M783.8,938.2
			C783.3,938.8,783.3,938.8,783.8,938.2c3.3-0.4,6.3-2.5,9.7-3.1c6.8-3.6,12.7-8.5,18.9-13.1C802.8,927.2,792.8,932,783.8,938.2z
			 M790.4,936.5c-3.1,0.8-6.1,4.4-9.4,2.3c0,0.5,0.1,1.5,0.2,2l-1.5-0.9c-0.6,0.2-1.7,0.6-2.3,0.8c0.1,0.9,0.3,1.8,0.4,2.7
			c-2.4,1.3-4.7,2.8-6.7,4.5c3.3,0.2,6.3-1.2,9.3-2.3c8.7-3.3,17-8.1,23.1-15.1C799.7,933.5,795.1,935.1,790.4,936.5z M691.4,940.8
			c8,1.3,16.1,2.5,23.8,4.7c-6.7-3.5-14.3-4.7-21.6-6.2C692.9,939.8,692.2,940.3,691.4,940.8z M755.1,948.7c4.5-0.1,9-0.3,13.4-0.9
			c3.1-1.6,6.4-3.1,8.5-5.9C769.7,944.2,762.3,946.3,755.1,948.7z M714.2,947c6.9,3.3,14.4,5.9,22.1,6.4c2.3,0.6,4.6,1.2,7,0.8
			c2.7-1.4,5.2-3.2,8.2-4.1c-8.8-2.1-17.2,3.6-25.9,0.9c0.3-0.5,1-1.4,1.4-1.8C722.7,948.8,718.6,946.7,714.2,947z M752.7,949.1"/>
	</g>
	<path class="st0" d="M419.7,899.2c4.4,3.9,7.7,9.1,12.1,13.2c7.5,6.8,11.7,16.3,18.4,23.8c7.9,9.5,18.1,17.2,23.9,28.3
		c-3.6-2.1-5.8-5.8-8.5-8.9c-7-8.3-15.6-15.2-22-24c-7.5-10.3-15.2-20.5-22.8-30.7c-0.3-0.3-0.9-0.9-1.2-1.2L419.7,899.2z"/>
	<path class="st0" d="M262.4,906.7c5.4-2.9,11.1-5.3,17.1-6.6c-0.4,1.6-2.2,1.7-3.4,2.3C271.5,903.8,267.1,905.8,262.4,906.7z"/>
	<path class="st0" d="M344.4,919.8c11.2-7,23.7-11.8,34.3-19.8c-1.6,2.8-4.8,4.2-7.3,6C362.7,911.1,353.7,915.7,344.4,919.8z"/>
	<path class="st0" d="M364.1,901.1c0.2,0.3,0.5,1,0.6,1.3c-8.7,6-17.7,11.7-25.2,19.1c1.4-3.4,4.6-5.7,7.4-8
		C352.4,909,358.5,905.5,364.1,901.1z"/>
	<g>
		<path class="st0" d="M309.9,911.5c9.2-3.2,18.4-6.8,27.5-10.3c0.3,0.4,0.9,1.1,1.1,1.5c-8.7,4.2-17.9,7-26.9,10.5
			c-8.2,5.6-9.8,16.3-15.9,23.7c3.4-7.8,6-16.4,12.2-22.5c-1.9,0.4-3.7,1-5.5,1.5c-5.9,11.5-13,22.7-23.1,31
			c2.2-0.7,5.1-0.2,6.5-2.5c1-1.8,3-1.4,4.7-1.2c-2.6,0.5-4.3,2.5-6.1,4.3c-3.3,1.4-7.4,1.6-10.1,4.2c-5.9,6.1-8.9,15.2-16.8,19.3
			c2.9-4.1,6-7.9,8.7-12.1c-5,4-10.9,6.3-16.8,8.7c-4.2,2.8-7.4,6.9-11.4,10c-3.7,3.4-8.1,5.9-12,9.1c-1.1,1.2-2.7,1.3-4.1,1.5
			c0.5-2.2,3-2.9,4.1-4.7c3.2-4.4,6.4-8.9,11.2-11.7c-6.5,2-14,1.6-19.6,6c2-2.8,5.1-4.4,8.4-5.1c7.8-1.9,15.4-4.1,22.8-7.2
			c1.6-0.6,2.9-1.8,4.2-2.9c1.5,0.5,2.7-0.7,3.9-1.2c10.4-6.2,20-13.8,28.5-22.4c5.2-5.3,8.9-11.7,13.1-17.8c-0.7,0.2-2.2,0.7-2.9,1
			c-4.7,4.9-9.6,9.5-14.9,13.8c6-5.9,12.1-11.7,18-17.7l1.2,0.7l0.1-2.6c-6,2-12.3,2.2-18.5,3.2c4.4-3.1,9.7-3.1,14.8-3.9
			c-0.2-0.3-0.7-0.9-0.9-1.2c-2.7,0.7-5.4,1.3-8.1,1.9c0.2-2-1.3-2.6-2.9-2.9c7.8-1.4,15.3-4,22.9-6.1c-2.2,1.3-4.8,2.1-6.5,4.1
			c-0.8,1.3-2.1,1.8-3.5,2.4C301.7,914.3,305.8,912.7,309.9,911.5z M229.6,981.8c5.4-3.3,9.9-7.9,14.8-11.9
			C238.3,972.2,233.3,976.6,229.6,981.8z"/>
	</g>
	<path class="st0" d="M460.8,903.8c5.3,5.2,9.9,11.2,15.2,16.5c1.4,1.8,4,3,4.3,5.5c-4-2.6-7.1-6.2-10.5-9.5
		C466.5,912.5,461.9,909.2,460.8,903.8z"/>
	<path class="st0" d="M455.6,904.7c5.6,5.9,9.8,12.8,13.5,19.9c-0.2-0.1-0.6-0.2-0.8-0.3c-3-5-6.7-9.5-10.3-14
		C456.5,908.8,456.1,906.6,455.6,904.7z"/>
	<path class="st0" d="M496.6,906.9c4.6,2.5,8.9,5.5,13.9,7c0.2,0.5,0.5,1.4,0.7,1.8C505.9,914.2,499.1,912.7,496.6,906.9z"/>
	<path class="st0" d="M417,933.4c-3.9-7.8-7.5-15.9-9.3-24.5c2.3,5.9,4,12,7,17.5c1.8,3.9,4.7,7.4,5.8,11.6
		C418.5,937.2,418,935,417,933.4z"/>
	<path class="st0" d="M251.5,912.4c4.9-0.3,9.8-1.1,14.7-2.1c-3.4,3.8-8.7,2.9-13.1,4.3c2.3,0.2,4.7,0.1,7,0.1
		c-3.2,2.8-6.4,6.2-10.8,7c-4.9,1.2-9.7,3.3-14.9,3.2c-1.2,0-0.7-1.3-0.7-2c5.9,0.2,11.5-2.1,17.1-3.8c1.7-0.8,3.9-1,4.9-2.7
		c-5.5-0.8-10.4,2.3-15.4,4c-3.1,1.4-6.8,1.5-9.4,3.8c-1.6-0.6-3.3,0.1-4.9,0.4c-12.6,3-25.9,4.5-38.6,1.7c1.3-0.2,2.6-0.5,4-0.5
		c17.4,0.6,35-2.1,51.2-8.4c-3.7,0.2-7.4-1.1-11.1-0.2c1.4,0.3,2.9,0.7,4.3,1.1c-0.3,0.3-0.8,1-1.1,1.3c-3-0.6-5.5-2.3-8.3-3.4
		c7.8-2,16.1-1.9,24-3.5c-0.1-0.4-0.4-1.2-0.5-1.6C250.3,911.4,251.1,912,251.5,912.4z"/>
	<path class="st0" d="M488.8,911c0.6,0.1,1.7,0.4,2.2,0.5c6.6,6.8,12.6,14.1,19.1,20.9c0.9,0.7,0.8,1.5,0.2,2.3
		C503.2,926.7,495.7,919.1,488.8,911z"/>
	<path class="st0" d="M192.3,915.4c3.1-0.4,6.2-0.6,9.3-0.2C198.7,916.2,195.4,915.4,192.3,915.4z"/>
	<path class="st0" d="M651.5,930.1c-3.4-4.1-7.6-7.5-10.2-12.2c1.9,0.2,3.2,1.1,3.8,2.7l1.6-0.8l0,1.2l-1.7,0.1
		c2.4,2.9,4.9,5.9,8.1,8C652.6,929.4,652.1,929.7,651.5,930.1z"/>
	<path class="st0" d="M210.3,921.4c4-0.4,8.2-1.3,12.2,0.1c-4.3,0.2-8.8,0.3-12.8,2c-5.8-0.2-11.5,0.7-17.2,1.3
		c-6.9,1-13.9,0.9-20.9,0.9c-5.3,0.7-10.6-0.4-15.9,0c-2.3-1.1-5-1.2-7.4-1.9c2.3-1.7,5.1-0.3,7.7-0.2c1.2-1.6,2.2-0.1,3.3,0.3
		c3.4,0.6,7,0,10.4,1c2.5,1,5.2,0.2,7.8-0.1c5.3-0.9,10.8-1,16.2-1.5c0.5-0.2,1.5-0.6,2-0.8C200.2,919.9,205.5,921.3,210.3,921.4z"
		/>
	<path class="st0" d="M328.5,931.7c7.7-3.7,15.7-6.9,23.2-11c-1.8,2.4-4.7,3.4-7.3,4.7C339.1,927.7,334.1,930.5,328.5,931.7z"/>
	<path class="st0" d="M138.3,926.9c5.3-1,10.9-1.5,16.3-0.8c-0.2,0.2-0.4,0.6-0.6,0.8c-5.4,0-10.7,1-16,1.6
		C138,928.1,138.2,927.3,138.3,926.9z"/>
	<path class="st0" d="M468.7,925.3c18,10.5,30.7,27.4,45.4,41.8c3.2,3.2,6.9,5.8,10.4,8.6c7.3,6.2,14.3,12.9,23,17.2
		c5.1,2.4,9.9,5.3,14.9,8c-0.3-0.6-1-1.8-1.3-2.4c-7.6-4.1-13.8-10.3-20.3-15.8c-11.6-11.3-22.7-23.2-32.2-36.4
		c11,13.1,22.2,26.2,34.8,37.8c9.1,7.8,18.2,16.3,30,19.7c-3.4-0.4-6.5-1.8-9.4-3.5c0,0.4-0.1,1.1-0.1,1.5c6.3,4.6,14,7.3,19.6,13
		c-11.5-4.7-21.4-12.5-32.5-18.2c-8.1-3.8-15.3-9.1-22-14.9c-5.1-4.7-11.7-7.5-16.5-12.6c-11.8-12.2-22.1-26-35.6-36.4
		C474,930.3,470.6,928.5,468.7,925.3z"/>
	<path class="st0" d="M592.6,927.2c8.3,1.8,15,7.2,22.3,11.1c5.2,2.7,10,6,15.5,8.1c8,2.2,16.1,4.2,23.9,7
		c-9.2-2.3-18.6-3.8-27.4-7.3c-9-2.2-16.5-7.8-24.4-12.3C599.1,931.8,595.5,930,592.6,927.2z"/>
	<path class="st0" d="M654.3,932.5c-0.1-0.6-0.4-1.8-0.5-2.4c2.6,1.6,4.4,4.3,7.3,5.5l-0.6,1c2.8,0,4.7,2.7,6.9,4.2
		C662.2,939.6,658.3,935.8,654.3,932.5z"/>
	<path class="st0" d="M779.5,941"/>
	<path class="st0" d="M641.5,960.5c6-0.4,12-0.9,17.9,0.3c11.1,1.8,21.4,6.8,32.6,8.3c4.4,1.1,9,0.3,13.5,1.2
		c-0.3,0.3-0.9,1-1.1,1.4c-4.3-0.4-8.7,0.5-12.9-0.5c-11-1.4-21.2-6.1-32-8.3C653.6,961.4,647.4,961.7,641.5,960.5z"/>
</g>
</svg>
